<svg width="28" height="28" fill="none" xmlns="http://www.w3.org/2000/svg"><mask id="a" style="mask-type:luminance" maskUnits="userSpaceOnUse" x="1" y="1" width="26" height="26"><path d="M5.75 19.108c-2.111.634-3.417 1.509-3.417 2.475 0 1.934 5.223 3.5 11.667 3.5s11.667-1.566 11.667-3.5c0-.966-1.306-1.841-3.418-2.475" stroke="#fff" stroke-width="2" stroke-linecap="round" stroke-linejoin="round"/><path d="M14 20.417s7.583-4.956 7.583-10.686c0-4.086-3.395-7.398-7.583-7.398-4.188 0-7.583 3.312-7.583 7.398 0 5.73 7.583 10.686 7.583 10.686z" fill="#fff" stroke="#fff" stroke-width="2" stroke-linejoin="round"/><path d="M14 12.833A2.917 2.917 0 1014 7a2.917 2.917 0 000 5.834z" fill="#000" stroke="#000" stroke-width="2" stroke-linejoin="round"/></mask><g mask="url(#a)"><path d="M0 0h28v28H0V0z" fill="#6D7FCE"/></g></svg>