<svg width="21" height="16" fill="none" xmlns="http://www.w3.org/2000/svg"><g clip-path="url(#clip0_1573_3642)"><path d="M0 0h21v16H0" fill="#BD3D44"/><path d="M0 1.843h21H0zM0 4.3h21H0zm0 2.467h21H0zm0 2.466h21H0zM0 11.7h21H0zm0 2.467h21H0z" fill="#323137"/><path d="M0 1.227V2.46h21V1.227H0zm0 2.456v1.234h21V3.683H0zM0 6.15v1.233h21V6.15H0zm0 2.467V9.85h21V8.617H0zm0 2.466v1.234h21v-1.234H0zm0 2.467v1.233h21V13.55H0z" fill="#fff"/><path d="M0 0h11.97v8.617H0" fill="#192F5D"/><path d="M10.96 7.267l.295.9L10.5 7.6h.919l-.755.567.295-.9zm-1.97 0l.296.9L8.53 7.6h.919l-.755.567.296-.9zm-2 0l.294.9L6.53 7.6h.918l-.754.567.295-.9zm-2.003 0l.296.9-.755-.567h.919l-.755.567.295-.9zm-2.001 0l.295.9-.754-.567h.918l-.754.567.295-.9zm-2.002 0l.296.9L.525 7.6h.919l-.755.567.295-.9zM9.975 6.4l.295.9-.754-.567h.918L9.68 7.3l.295-.9zm-2.002 0l.296.9-.755-.567h.919l-.755.567.295-.9zm-1.968 0l.295.9-.755-.567h.92l-.756.567.296-.9zm-2.002 0l.295.9-.754-.567h.918l-.754.567.295-.9zm-2.001 0l.295.9-.755-.567h.919l-.755.567.296-.9zm8.957-.867l.296.9-.755-.566h.919l-.755.566.295-.9zm-1.968 0l.295.9-.755-.566h.919l-.755.566.296-.9zm-2.002 0l.295.9-.754-.566h.918l-.754.566.295-.9zm-2.002 0l.296.9-.755-.566h.919l-.755.566.295-.9zm-2.001 0l.295.9-.754-.566h.918l-.754.566.295-.9zm-2.002 0l.296.9-.755-.566h.919l-.755.566.295-.9zM9.975 4.7l.295.9-.754-.567h.918L9.68 5.6l.295-.9zm-2.002 0l.296.9-.755-.567h.919l-.755.567.295-.9zm-1.968 0l.295.9-.755-.567h.92l-.756.567.296-.9zm-2.002 0l.295.9-.754-.567h.918l-.754.567.295-.9zm-2.001 0l.295.9-.755-.567h.919l-.755.567.296-.9zm8.957-.867l.296.9-.755-.566h.919l-.755.566.295-.9zm-1.968 0l.295.9-.755-.566h.919l-.755.566.296-.9zm-2.002 0l.295.9-.754-.566h.918l-.754.566.295-.9zm-2.002 0l.296.9-.755-.566h.919l-.755.566.295-.9zm-2.001 0l.295.9-.754-.566h.918l-.754.566.295-.9zm-2.002 0l.296.9-.755-.566h.919l-.755.566.295-.9zm8.991-.866l.295.9-.754-.567h.918l-.754.567.295-.9zm-2.002 0l.296.9-.755-.567h.919l-.755.567.295-.9zm-1.968 0l.295.9-.755-.567h.92l-.756.567.296-.9zm-2.002 0l.295.9-.754-.567h.918l-.754.567.295-.9zm-2.001 0l.295.9-.755-.567h.919l-.755.567.296-.9zm8.957-.867l.296.9-.755-.567h.919L10.664 3l.295-.9zm-1.968 0l.295.9-.755-.567h.919L8.695 3l.296-.9zm-2.002 0l.295.9-.754-.567h.918L6.694 3l.295-.9zm-2.002 0l.296.9-.755-.567h.919L4.692 3l.295-.9zm-2.001 0l.295.9-.754-.567h.918L2.691 3l.295-.9zm-2.002 0l.296.9-.755-.567h.919L.689 3l.295-.9zm8.991-.867l.295.9-.754-.566h.918l-.754.566.295-.9zm-2.002 0l.296.9-.755-.566h.919l-.755.566.295-.9zm-1.968 0l.295.9-.755-.566h.92l-.756.566.296-.9zm-2.002 0l.295.9-.754-.566h.918l-.754.566.295-.9zm-2.001 0l.295.9-.755-.566h.919l-.755.566.296-.9zm8.957-.866l.296.9L10.5.7h.919l-.755.567.295-.9zm-1.968 0l.295.9L8.53.7h.919l-.755.567.296-.9zm-2.002 0l.295.9L6.53.7h.918l-.754.567.295-.9zm-2.002 0l.296.9L4.528.7h.919l-.755.567.295-.9zm-2.001 0l.295.9L2.527.7h.918l-.754.567.295-.9zm-2.002 0l.296.9L.525.7h.919l-.755.567.295-.9z" fill="#fff"/></g><defs><clipPath id="clip0_1573_3642"><path fill="#fff" d="M0 0h21v16H0z"/></clipPath></defs></svg>