<svg width="24" height="25" fill="none" xmlns="http://www.w3.org/2000/svg"><path d="M12 22.5c5.523 0 10-4.477 10-10s-4.477-10-10-10-10 4.478-10 10c0 5.523 4.477 10 10 10z" stroke="#BEF9C3" stroke-width="2"/><path d="M3 15.993c1.316.527 2.263.527 2.842 0 .868-.792.119-3.194 1.335-3.857 1.215-.662 3.068 2.275 4.799 1.309 1.73-.967-.164-3.544 1.037-4.588 1.201-1.045 2.764.133 3.037-1.614.273-1.747-1.274-.989-1.571-2.64-.197-1.1-.197-1.678 0-1.735m.031 19.307c-.937-.959-1.274-1.85-1.011-2.674.393-1.236 1.042-1.163 1.325-1.927.284-.764-.516-1.853 1.258-2.783 1.183-.62 2.81.099 4.88 2.156" stroke="#BEF9C3" stroke-width="2" stroke-linecap="round"/></svg>