<svg width="24" height="25" fill="none" xmlns="http://www.w3.org/2000/svg"><path d="M4.929 16.878C3.119 17.422 2 18.172 2 19c0 1.657 4.477 3 10 3s10-1.343 10-3c0-.828-1.12-1.578-2.929-2.122" stroke="#9AE1A0" stroke-width="2" stroke-linecap="round" stroke-linejoin="round"/><path d="M12 18s6.5-4.248 6.5-9.159C18.5 5.339 15.59 2.5 12 2.5S5.5 5.339 5.5 8.841C5.5 13.752 12 18 12 18z" stroke="#9AE1A0" stroke-width="2" stroke-linejoin="round"/><path d="M12 11.5a2.5 2.5 0 100-5 2.5 2.5 0 000 5z" stroke="#9AE1A0" stroke-width="2" stroke-linejoin="round"/></svg>