<svg width="24" height="25" fill="none" xmlns="http://www.w3.org/2000/svg"><path d="M18 20.5h-2a.965.965 0 01-.713-.288A.973.973 0 0115 19.5c0-.283.096-.52.288-.712A.97.97 0 0116 18.5h2v-2c0-.283.096-.52.288-.712A.973.973 0 0119 15.5c.283 0 .52.095.713.288A.96.96 0 0120 16.5v2h2c.284 0 .521.096.713.288.192.192.288.43.287.712a.97.97 0 01-.288.713.956.956 0 01-.712.287h-2v2a.968.968 0 01-.288.713.964.964 0 01-.712.287.973.973 0 01-.712-.288A.965.965 0 0118 22.5v-2zm-15 0a.965.965 0 01-.713-.288A.972.972 0 012 19.5v-5h-.175a.96.96 0 01-.775-.363.946.946 0 01-.2-.837l1-5a.99.99 0 01.35-.575.96.96 0 01.625-.225h13.35a.96.96 0 01.625.225c.184.15.3.342.35.575l1 5a.946.946 0 01-.2.838.956.956 0 01-.775.362H17v2a.968.968 0 01-.288.713.964.964 0 01-.712.287.973.973 0 01-.712-.288A.965.965 0 0115 16.5v-2h-4v5a.968.968 0 01-.288.713.964.964 0 01-.712.287H3zm1-2h5v-4H4v4zm-1-12a.965.965 0 01-.713-.288A.972.972 0 012 5.5c0-.283.096-.52.288-.712A.97.97 0 013 4.5h13c.284 0 .521.096.713.288.192.192.288.43.287.712a.97.97 0 01-.288.713A.956.956 0 0116 6.5H3zm.05 6h12.9l-.6-3H3.65l-.6 3z" fill="#FFE4AA"/></svg>