<svg width="24" height="25" fill="none" xmlns="http://www.w3.org/2000/svg"><path d="M21.4 14.75l-7.15 7.15c-.2.2-.425.35-.675.45-.25.1-.5.15-.75.15s-.5-.05-.75-.15c-.25-.1-.475-.25-.675-.45l-8.825-8.825a1.974 1.974 0 01-.575-1.4V4.5c0-.55.196-1.02.588-1.412A1.93 1.93 0 014 2.5h7.175c.267 0 .525.054.775.163.25.109.467.254.65.437l8.8 8.825c.2.2.346.425.438.675a2.105 2.105 0 010 1.488c-.09.242-.237.463-.438.662zm-8.575 5.75l7.15-7.15L11.15 4.5H4v7.15l8.825 8.85zM6.5 8.5a1.45 1.45 0 001.063-.437A1.44 1.44 0 008 7c0-.417-.146-.771-.437-1.062A1.453 1.453 0 006.5 5.5a1.43 1.43 0 00-1.062.438C5.148 6.231 5.002 6.585 5 7c-.002.415.144.769.438 1.063.294.294.648.44 1.062.437z" fill="#845186"/></svg>