<svg width="24" height="25" fill="none" xmlns="http://www.w3.org/2000/svg"><path fill-rule="evenodd" clip-rule="evenodd" d="M12.351 9.748a1.2 1.2 0 010-1.696l3.6-3.6a1.2 1.2 0 111.697 1.696l-3.6 3.6a1.2 1.2 0 01-1.697 0z" fill="#A5F2FF"/><path fill-rule="evenodd" clip-rule="evenodd" d="M21.249 9.748a1.2 1.2 0 01-1.697 0l-3.6-3.6a1.2 1.2 0 011.697-1.696l3.6 3.6a1.2 1.2 0 010 1.696z" fill="#A5F2FF"/><path fill-rule="evenodd" clip-rule="evenodd" d="M16.8 6.5A1.2 1.2 0 0118 7.7v9.6a1.2 1.2 0 11-2.4 0V7.7a1.2 1.2 0 011.2-1.2zm-5.15 8.752a1.2 1.2 0 010 1.696l-3.6 3.6a1.2 1.2 0 01-1.698-1.696l3.6-3.6a1.2 1.2 0 011.697 0z" fill="#A5F2FF"/><path fill-rule="evenodd" clip-rule="evenodd" d="M2.752 15.252a1.2 1.2 0 011.697 0l3.6 3.6a1.2 1.2 0 11-1.697 1.696l-3.6-3.6a1.2 1.2 0 010-1.697z" fill="#A5F2FF"/><path fill-rule="evenodd" clip-rule="evenodd" d="M7.2 18.5A1.2 1.2 0 016 17.3V7.7a1.2 1.2 0 012.4 0v9.6a1.2 1.2 0 01-1.2 1.2z" fill="#A5F2FF"/></svg>