<svg width="24" height="25" fill="none" xmlns="http://www.w3.org/2000/svg"><path fill-rule="evenodd" clip-rule="evenodd" d="M14 7.5a1 1 0 00-1 1v8a1 1 0 001 1h4a1 1 0 001-1v-8a1 1 0 00-1-1h-4zm3 2h-2v6h2v-6z" fill="#845186"/><path d="M6 7.5a1 1 0 000 2h4a1 1 0 100-2H6zm0 4a1 1 0 000 2h4a1 1 0 000-2H6zm-1 5a1 1 0 011-1h4a1 1 0 010 2H6a1 1 0 01-1-1z" fill="#845186"/><path fill-rule="evenodd" clip-rule="evenodd" d="M4 3.5a3 3 0 00-3 3v12a3 3 0 003 3h16a3 3 0 003-3v-12a3 3 0 00-3-3H4zm16 2H4a1 1 0 00-1 1v12a1 1 0 001 1h16a1 1 0 001-1v-12a1 1 0 00-1-1z" fill="#845186"/></svg>