<svg width="24" height="25" fill="none" xmlns="http://www.w3.org/2000/svg"><path d="M10.5 19.75A8.75 8.75 0 0019.25 11a8.75 8.75 0 10-17.5 0 8.75 8.75 0 008.75 8.75z" stroke="#A5F2FF" stroke-width="1.75"/><path d="M2.625 14.056c1.151.462 1.98.462 2.487 0 .76-.693.104-2.794 1.168-3.374 1.063-.58 2.684 1.99 4.199 1.144 1.514-.845-.143-3.1.908-4.014 1.05-.914 2.418.117 2.657-1.412.239-1.528-1.115-.865-1.375-2.31-.173-.962-.173-1.468 0-1.518m.027 16.894c-.82-.84-1.114-1.62-.885-2.34.345-1.082.913-1.018 1.16-1.686.248-.669-.451-1.621 1.1-2.435 1.036-.542 2.46.086 4.27 1.886" stroke="#A5F2FF" stroke-width="1.75" stroke-linecap="round"/><path d="M11.5 9.5A2.5 2.5 0 0114 7c1.1 0 2.03.71 2.37 1.69.08.26.13.53.13.81A2.5 2.5 0 0114 12c-1.09 0-2-.69-2.36-1.66-.09-.26-.14-.55-.14-.84zM5 9.5c0 4.5 5.08 10.66 6 11.81l-1 1.19s-7-7.75-7-13c0-3.17 2.11-5.85 5-6.71C6.16 4.44 5 6.83 5 9.5zm9-7c3.86 0 7 3.13 7 7 0 5.25-7 13-7 13s-7-7.75-7-13c0-3.87 3.14-7 7-7zm0 2c-2.76 0-5 2.24-5 5 0 1 0 3 5 9.71 5-6.71 5-8.71 5-9.71 0-2.76-2.24-5-5-5z" fill="#A5F2FF"/></svg>