<svg width="60" height="61" viewBox="0 0 60 61" fill="none" xmlns="http://www.w3.org/2000/svg">
<path d="M0 7.55882C0 3.66034 3.16034 0.5 7.05882 0.5H52.9412C56.8397 0.5 60 3.66034 60 7.55882V53.4412C60 57.3397 56.8397 60.5 52.9412 60.5H7.05882C3.16034 60.5 0 57.3397 0 53.4412V7.55882Z" fill="#FFE9BB" fill-opacity="0.3"/>
<path d="M30 39.5C32.5 39.5 34.625 38.625 36.375 36.875C38.125 35.125 39 33 39 30.5C39 28 38.125 25.875 36.375 24.125C34.625 22.375 32.5 21.5 30 21.5C27.5 21.5 25.375 22.375 23.625 24.125C21.875 25.875 21 28 21 30.5C21 33 21.875 35.125 23.625 36.875C25.375 38.625 27.5 39.5 30 39.5ZM30 36.5C29.275 36.5 28.575 36.369 27.9 36.107C27.225 35.845 26.6125 35.476 26.0625 35H33.9375C33.3875 35.475 32.775 35.844 32.1 36.107C31.425 36.37 30.725 36.501 30 36.5ZM24.825 33.5C24.625 33.15 24.4625 32.7875 24.3375 32.4125C24.2125 32.0375 24.125 31.65 24.075 31.25H35.925C35.875 31.65 35.7875 32.0375 35.6625 32.4125C35.5375 32.7875 35.375 33.15 35.175 33.5H24.825ZM24.075 29.75C24.125 29.35 24.2125 28.9625 24.3375 28.5875C24.4625 28.2125 24.625 27.85 24.825 27.5H35.175C35.375 27.85 35.5375 28.2125 35.6625 28.5875C35.7875 28.9625 35.875 29.35 35.925 29.75H24.075ZM26.0625 26C26.6125 25.525 27.225 25.1565 27.9 24.8945C28.575 24.6325 29.275 24.501 30 24.5C30.725 24.499 31.425 24.63 32.1 24.893C32.775 25.156 33.3875 25.525 33.9375 26H26.0625ZM19.5 44C18.675 44 17.969 43.7065 17.382 43.1195C16.795 42.5325 16.501 41.826 16.5 41V20C16.5 19.175 16.794 18.469 17.382 17.882C17.97 17.295 18.676 17.001 19.5 17H40.5C41.325 17 42.0315 17.294 42.6195 17.882C43.2075 18.47 43.501 19.176 43.5 20V41C43.5 41.825 43.2065 42.5315 42.6195 43.1195C42.0325 43.7075 41.326 44.001 40.5 44H19.5ZM19.5 41H40.5V20H19.5V41Z" fill="#E6C888"/>
</svg>
