<svg width="60" height="61" viewBox="0 0 60 61" fill="none" xmlns="http://www.w3.org/2000/svg">
<path d="M0 7.55882C0 3.66034 3.16034 0.5 7.05882 0.5H52.9412C56.8397 0.5 60 3.66034 60 7.55882V53.4412C60 57.3397 56.8397 60.5 52.9412 60.5H7.05882C3.16034 60.5 0 57.3397 0 53.4412V7.55882Z" fill="#FFE9BB" fill-opacity="0.3"/>
<path d="M30 19.0444C25.5 16.5979 16.5 14.3449 16.5 24.9154C16.5 33.1534 18.282 39.5494 21.0075 43.1269C21.975 44.3974 24.3315 44.0029 25.3395 42.7294C25.4515 42.5799 25.5396 42.4139 25.6005 42.2374L27.195 38.0374C28.176 35.4574 31.824 35.4574 32.805 38.0374L34.3995 42.2374C34.467 42.4114 34.545 42.5824 34.6605 42.7294C35.6685 44.0044 38.025 44.3974 38.9925 43.1269C41.718 39.5494 43.5 33.1549 43.5 24.9154C43.5 14.3464 34.5 16.5979 30 19.0444ZM30 19.0444L34.5 21.4999" stroke="#E6C888" stroke-width="2" stroke-linecap="round" stroke-linejoin="round"/>
</svg>
