<svg width="60" height="61" viewBox="0 0 60 61" fill="none" xmlns="http://www.w3.org/2000/svg">
<path d="M0 7.55882C0 3.66034 3.16034 0.5 7.05882 0.5H52.9412C56.8397 0.5 60 3.66034 60 7.55882V53.4412C60 57.3397 56.8397 60.5 52.9412 60.5H7.05882C3.16034 60.5 0 57.3397 0 53.4412V7.55882Z" fill="#FFE9BB" fill-opacity="0.3"/>
<path d="M25.5 20H22.5C21.7044 20 20.9413 20.3161 20.3787 20.8787C19.8161 21.4413 19.5 22.2044 19.5 23V41C19.5 41.7956 19.8161 42.5587 20.3787 43.1213C20.9413 43.6839 21.7044 44 22.5 44H37.5C38.2956 44 39.0587 43.6839 39.6213 43.1213C40.1839 42.5587 40.5 41.7956 40.5 41V23C40.5 22.2044 40.1839 21.4413 39.6213 20.8787C39.0587 20.3161 38.2956 20 37.5 20H34.5" stroke="#E6C888" stroke-width="3" stroke-linecap="round" stroke-linejoin="round"/>
<path d="M27 33.5H33M30 30.5V36.5M25.5 20C25.5 19.2044 25.8161 18.4413 26.3787 17.8787C26.9413 17.3161 27.7044 17 28.5 17H31.5C32.2956 17 33.0587 17.3161 33.6213 17.8787C34.1839 18.4413 34.5 19.2044 34.5 20C34.5 20.7956 34.1839 21.5587 33.6213 22.1213C33.0587 22.6839 32.2956 23 31.5 23H28.5C27.7044 23 26.9413 22.6839 26.3787 22.1213C25.8161 21.5587 25.5 20.7956 25.5 20Z" stroke="#E6C888" stroke-width="3" stroke-linecap="round" stroke-linejoin="round"/>
</svg>
