<svg width="60" height="61" viewBox="0 0 60 61" fill="none" xmlns="http://www.w3.org/2000/svg">
<path d="M0 7.55882C0 3.66034 3.16034 0.5 7.05882 0.5H52.9412C56.8397 0.5 60 3.66034 60 7.55882V53.4412C60 57.3397 56.8397 60.5 52.9412 60.5H7.05882C3.16034 60.5 0 57.3397 0 53.4412V7.55882Z" fill="#FFE9BB" fill-opacity="0.3"/>
<path d="M45 28.25V30.5C45 37.571 45 41.1065 42.8025 43.3025C40.608 45.5 37.071 45.5 30 45.5C22.929 45.5 19.3935 45.5 17.196 43.3025C15 41.108 15 37.571 15 30.5C15 28.808 15 27.317 15.03 26M32.25 15.5H30C22.929 15.5 19.3935 15.5 17.196 17.696C16.536 18.3575 16.0725 19.1405 15.75 20.105" stroke="#E6C888" stroke-width="2" stroke-linecap="round"/>
<path d="M22.5 33.5L25.1955 30.266C26.2635 28.9835 26.7975 28.343 27.4995 28.343C28.203 28.343 28.737 28.9835 29.805 30.266L30.195 30.734C31.263 32.0165 31.797 32.657 32.5005 32.657C33.204 32.657 33.7365 32.0165 34.8045 30.734L37.5 27.5" stroke="#E6C888" stroke-width="2" stroke-linecap="round"/>
<path d="M40.5 24.5C42.9853 24.5 45 22.4853 45 20C45 17.5147 42.9853 15.5 40.5 15.5C38.0147 15.5 36 17.5147 36 20C36 22.4853 38.0147 24.5 40.5 24.5Z" stroke="#E6C888" stroke-width="2"/>
</svg>
