<svg width="60" height="61" viewBox="0 0 60 61" fill="none" xmlns="http://www.w3.org/2000/svg">
<path d="M0 7.55882C0 3.66034 3.16034 0.5 7.05882 0.5H52.9412C56.8397 0.5 60 3.66034 60 7.55882V53.4412C60 57.3397 56.8397 60.5 52.9412 60.5H7.05882C3.16034 60.5 0 57.3397 0 53.4412V7.55882Z" fill="#FFE9BB" fill-opacity="0.3"/>
<path d="M41.2812 46.3438H39.125V43.1094C39.1233 41.6802 38.5548 40.3101 37.5442 39.2995C36.5337 38.2889 35.1635 37.7205 33.7344 37.7188H27.2656C25.8365 37.7205 24.4663 38.2889 23.4558 39.2995C22.4452 40.3101 21.8767 41.6802 21.875 43.1094V46.3438H19.7188V43.1094C19.7216 41.1087 20.5176 39.1908 21.9323 37.7761C23.347 36.3614 25.2649 35.5654 27.2656 35.5625H33.7344C35.7351 35.5654 37.653 36.3614 39.0677 37.7761C40.4824 39.1908 41.2784 41.1087 41.2812 43.1094V46.3438ZM18.6406 20.4688C18.3547 20.4688 18.0805 20.5823 17.8783 20.7845C17.6761 20.9867 17.5625 21.2609 17.5625 21.5469V31.25H19.7188V21.5469C19.7188 21.2609 19.6052 20.9867 19.403 20.7845C19.2008 20.5823 18.9266 20.4688 18.6406 20.4688Z" fill="#E6C888"/>
<path d="M17.5625 16.1562V18.3125H22.9531V25.8594C22.9531 27.8609 23.7482 29.7805 25.1636 31.1958C26.5789 32.6111 28.4984 33.4062 30.5 33.4062C32.5016 33.4062 34.4211 32.6111 35.8364 31.1958C37.2518 29.7805 38.0469 27.8609 38.0469 25.8594V18.3125H43.4375V16.1562H17.5625ZM25.1094 18.3125H35.8906V21.5469H25.1094V18.3125ZM30.5 31.25C29.0703 31.25 27.6992 30.6821 26.6883 29.6711C25.6773 28.6602 25.1094 27.2891 25.1094 25.8594V23.7031H35.8906V25.8594C35.8906 27.2891 35.3227 28.6602 34.3117 29.6711C33.3008 30.6821 31.9297 31.25 30.5 31.25Z" fill="#E6C888"/>
</svg>
