<svg width="60" height="61" viewBox="0 0 60 61" fill="none" xmlns="http://www.w3.org/2000/svg">
<path d="M0 7.55882C0 3.66034 3.16034 0.5 7.05882 0.5H52.9412C56.8397 0.5 60 3.66034 60 7.55882V53.4412C60 57.3397 56.8397 60.5 52.9412 60.5H7.05882C3.16034 60.5 0 57.3397 0 53.4412V7.55882Z" fill="#FFE9BB" fill-opacity="0.3"/>
<g clip-path="url(#clip0_1417_13671)">
<path d="M32.117 15.6172V18.3125H34.2409C34.8964 18.3125 35.5411 18.485 36.1104 18.8106L38.8919 20.3976C38.9753 20.445 39.0644 20.4688 39.1593 20.4688H43.9764C44.4053 20.4688 44.8166 20.6391 45.1199 20.9424C45.4232 21.2457 45.5935 21.657 45.5935 22.0859C45.5935 22.5148 45.4232 22.9262 45.1199 23.2295C44.8166 23.5327 44.4053 23.7031 43.9764 23.7031H43.0556L47.6075 33.8203C47.742 34.1196 47.7823 34.4527 47.723 34.7755C47.6637 35.0982 47.5076 35.3953 47.2754 35.6272L46.1326 34.4844L47.2733 35.6293L47.2711 35.6337L47.2668 35.638L47.2539 35.6509L47.2409 35.6617L47.2194 35.6833L47.1223 35.7695C46.6666 36.1504 46.1736 36.4739 45.6431 36.7398C44.6362 37.2444 43.1785 37.7188 41.281 37.7188C39.7706 37.7364 38.277 37.4012 36.919 36.7398C36.3896 36.4755 35.8931 36.1498 35.4398 35.7695L35.3427 35.6833L35.3082 35.6509L35.2953 35.638L35.2867 35.6293V35.6272C35.0545 35.3953 34.8984 35.0982 34.8391 34.7755C34.7798 34.4527 34.8201 34.1196 34.9546 33.8203L39.5086 23.7031H39.1593C38.5016 23.7031 37.8569 23.5328 37.2877 23.205L34.5061 21.618C34.4247 21.5715 34.3325 21.5469 34.2387 21.5469H32.117V42.0312H37.5076C37.9365 42.0312 38.3479 42.2016 38.6511 42.5049C38.9544 42.8082 39.1248 43.2195 39.1248 43.6484C39.1248 44.0773 38.9544 44.4887 38.6511 44.792C38.3479 45.0952 37.9365 45.2656 37.5076 45.2656H23.492C23.0631 45.2656 22.6517 45.0952 22.3485 44.792C22.0452 44.4887 21.8748 44.0773 21.8748 43.6484C21.8748 43.2195 22.0452 42.8082 22.3485 42.5049C22.6517 42.2016 23.0631 42.0312 23.492 42.0312H28.8826V21.5469H26.7609C26.6671 21.5469 26.5749 21.5715 26.4935 21.618L23.7141 23.2072C23.1427 23.5306 22.498 23.7031 21.8403 23.7031H21.491L26.045 33.8203C26.1795 34.1196 26.2198 34.4527 26.1605 34.7755C26.1012 35.0982 25.9451 35.3953 25.7129 35.6272L24.5701 34.4844L25.7108 35.6293L25.7086 35.6337L25.7043 35.638L25.6914 35.6509L25.6569 35.6833L25.5598 35.7695C25.1041 36.1504 24.6111 36.4739 24.0806 36.7398C23.0737 37.2444 21.616 37.7188 19.7185 37.7188C18.2081 37.7364 16.7145 37.4012 15.3565 36.7398C14.8271 36.4755 14.3306 36.1498 13.8773 35.7695L13.7802 35.6833L13.7457 35.6509L13.7328 35.638L13.7242 35.6293V35.6272C13.492 35.3953 13.3359 35.0982 13.2766 34.7755C13.2173 34.4527 13.2576 34.1196 13.3921 33.8203L17.9461 23.7031H17.0232C16.5943 23.7031 16.183 23.5327 15.8797 23.2295C15.5764 22.9262 15.406 22.5148 15.406 22.0859C15.406 21.657 15.5764 21.2457 15.8797 20.9424C16.183 20.6391 16.5943 20.4688 17.0232 20.4688H21.8403C21.9348 20.4691 22.0278 20.4445 22.1098 20.3976L24.8871 18.8084C25.4585 18.485 26.1032 18.3125 26.7609 18.3125H28.8826V15.6172C28.8826 15.1883 29.053 14.7769 29.3563 14.4737C29.6596 14.1704 30.0709 14 30.4998 14C30.9287 14 31.34 14.1704 31.6433 14.4737C31.9466 14.7769 32.117 15.1883 32.117 15.6172ZM38.4671 33.8957C39.0817 34.1868 40.0153 34.4844 41.281 34.4844C42.5468 34.4844 43.4804 34.1868 44.095 33.8957L41.281 27.6426L38.4671 33.8957ZM16.9046 33.8957C17.5192 34.1868 18.4528 34.4844 19.7185 34.4844C20.9843 34.4844 21.9179 34.1868 22.5325 33.8957L19.7185 27.6426L16.9046 33.8957Z" fill="#E6C888"/>
</g>
<defs>
<clipPath id="clip0_1417_13671">
<rect width="34.5" height="34.5" fill="white" transform="translate(13.25 14)"/>
</clipPath>
</defs>
</svg>
