<svg width="60" height="61" viewBox="0 0 60 61" fill="none" xmlns="http://www.w3.org/2000/svg">
<path d="M0 7.55882C0 3.66034 3.16034 0.5 7.05882 0.5H52.9412C56.8397 0.5 60 3.66034 60 7.55882V53.4412C60 57.3397 56.8397 60.5 52.9412 60.5H7.05882C3.16034 60.5 0 57.3397 0 53.4412V7.55882Z" fill="#FFE9BB" fill-opacity="0.3"/>
<path d="M39.0008 42.5H36.0008C35.5758 42.5 35.2198 42.356 34.9328 42.068C34.6458 41.78 34.5018 41.424 34.5008 41C34.4998 40.576 34.6438 40.22 34.9328 39.932C35.2218 39.644 35.5778 39.5 36.0008 39.5H39.0008V36.5C39.0008 36.075 39.1448 35.719 39.4328 35.432C39.7208 35.145 40.0768 35.001 40.5008 35C40.9248 34.999 41.2813 35.143 41.5703 35.432C41.8593 35.721 42.0028 36.077 42.0008 36.5V39.5H45.0008C45.4258 39.5 45.7823 39.644 46.0703 39.932C46.3583 40.22 46.5018 40.576 46.5008 41C46.4998 41.424 46.3558 41.7805 46.0688 42.0695C45.7818 42.3585 45.4258 42.502 45.0008 42.5H42.0008V45.5C42.0008 45.925 41.8568 46.2815 41.5688 46.5695C41.2808 46.8575 40.9248 47.001 40.5008 47C40.0768 46.999 39.7208 46.855 39.4328 46.568C39.1448 46.281 39.0008 45.925 39.0008 45.5V42.5ZM16.5008 42.5C16.0758 42.5 15.7198 42.356 15.4328 42.068C15.1458 41.78 15.0018 41.424 15.0008 41V33.5H14.7383C14.2633 33.5 13.8758 33.3185 13.5758 32.9555C13.2758 32.5925 13.1758 32.174 13.2758 31.7L14.7758 24.2C14.8508 23.85 15.0258 23.5625 15.3008 23.3375C15.5758 23.1125 15.8883 23 16.2383 23H36.2633C36.6133 23 36.9258 23.1125 37.2008 23.3375C37.4758 23.5625 37.6508 23.85 37.7258 24.2L39.2258 31.7C39.3258 32.175 39.2258 32.594 38.9258 32.957C38.6258 33.32 38.2383 33.501 37.7633 33.5H37.5008V36.5C37.5008 36.925 37.3568 37.2815 37.0688 37.5695C36.7808 37.8575 36.4248 38.001 36.0008 38C35.5768 37.999 35.2208 37.855 34.9328 37.568C34.6448 37.281 34.5008 36.925 34.5008 36.5V33.5H28.5008V41C28.5008 41.425 28.3568 41.7815 28.0688 42.0695C27.7808 42.3575 27.4248 42.501 27.0008 42.5H16.5008ZM18.0008 39.5H25.5008V33.5H18.0008V39.5ZM16.5008 21.5C16.0758 21.5 15.7198 21.356 15.4328 21.068C15.1458 20.78 15.0018 20.424 15.0008 20C14.9998 19.576 15.1438 19.22 15.4328 18.932C15.7218 18.644 16.0778 18.5 16.5008 18.5H36.0008C36.4258 18.5 36.7823 18.644 37.0703 18.932C37.3583 19.22 37.5018 19.576 37.5008 20C37.4998 20.424 37.3558 20.7805 37.0688 21.0695C36.7818 21.3585 36.4258 21.502 36.0008 21.5H16.5008ZM16.5758 30.5H35.9258L35.0258 26H17.4758L16.5758 30.5Z" fill="#E6C888"/>
</svg>
