<svg width="60" height="61" viewBox="0 0 60 61" fill="none" xmlns="http://www.w3.org/2000/svg">
<path d="M0 7.55882C0 3.66034 3.16034 0.5 7.05882 0.5H52.9412C56.8397 0.5 60 3.66034 60 7.55882V53.4412C60 57.3397 56.8397 60.5 52.9412 60.5H7.05882C3.16034 60.5 0 57.3397 0 53.4412V7.55882Z" fill="#FFE9BB" fill-opacity="0.3"/>
<path d="M16.5 44H43.5M40.5 44V38M40.5 38C41.2956 38 42.0587 37.6839 42.6213 37.1213C43.1839 36.5587 43.5 35.7956 43.5 35V32C43.5 31.2044 43.1839 30.4413 42.6213 29.8787C42.0587 29.3161 41.2956 29 40.5 29C39.7044 29 38.9413 29.3161 38.3787 29.8787C37.8161 30.4413 37.5 31.2044 37.5 32V35C37.5 35.7956 37.8161 36.5587 38.3787 37.1213C38.9413 37.6839 39.7044 38 40.5 38ZM33 44V23C33 21.8065 32.5259 20.6619 31.682 19.818C30.8381 18.9741 29.6935 18.5 28.5 18.5H22.5C21.3065 18.5 20.1619 18.9741 19.318 19.818C18.4741 20.6619 18 21.8065 18 23V44M25.5 38V44M24 32H27M24 26H27" stroke="#E6C888" stroke-width="2" stroke-linecap="round" stroke-linejoin="round"/>
</svg>
