<svg width="60" height="61" viewBox="0 0 60 61" fill="none" xmlns="http://www.w3.org/2000/svg">
<path d="M0 7.55882C0 3.66034 3.16034 0.5 7.05882 0.5H52.9412C56.8397 0.5 60 3.66034 60 7.55882V53.4412C60 57.3397 56.8397 60.5 52.9412 60.5H7.05882C3.16034 60.5 0 57.3397 0 53.4412V7.55882Z" fill="#FFE9BB" fill-opacity="0.3"/>
<path d="M18 44C17.175 44 16.469 43.7065 15.882 43.1195C15.295 42.5325 15.001 41.826 15 41V24.5C15 23.675 15.294 22.969 15.882 22.382C16.47 21.795 17.176 21.501 18 21.5H24V18.5C24 17.675 24.294 16.969 24.882 16.382C25.47 15.795 26.176 15.501 27 15.5H33C33.825 15.5 34.5315 15.794 35.1195 16.382C35.7075 16.97 36.001 17.676 36 18.5V21.5H42C42.825 21.5 43.5315 21.794 44.1195 22.382C44.7075 22.97 45.001 23.676 45 24.5V41C45 41.825 44.7065 42.5315 44.1195 43.1195C43.5325 43.7075 42.826 44.001 42 44H18ZM27 21.5H33V18.5H27V21.5ZM42 35H34.5V38H25.5V35H18V41H42V35ZM28.5 35H31.5V32H28.5V35ZM18 32H25.5V29H34.5V32H42V24.5H18V32Z" fill="#E6C888"/>
</svg>
