<svg width="10" height="13" viewBox="0 0 10 13" fill="none" xmlns="http://www.w3.org/2000/svg">
<path d="M8.77239 5.96667C8.61906 5.76667 8.43239 5.59333 8.25906 5.42C7.81239 5.02 7.30572 4.73333 6.87906 4.31333C5.88572 3.34 5.66572 1.73333 6.29906 0.5C5.66572 0.653333 5.11239 1 4.63906 1.38C2.91239 2.76667 2.23239 5.21333 3.04572 7.31333C3.07239 7.38 3.09906 7.44667 3.09906 7.53333C3.09906 7.68 2.99906 7.81333 2.86572 7.86667C2.71239 7.93333 2.55239 7.89333 2.42572 7.78667C2.38789 7.75497 2.35624 7.71655 2.33239 7.67333C1.57906 6.72 1.45906 5.35333 1.96572 4.26C0.85239 5.16667 0.245723 6.7 0.33239 8.14667C0.37239 8.48 0.41239 8.81333 0.525723 9.14667C0.619057 9.54667 0.799057 9.94667 0.999057 10.3C1.71906 11.4533 2.96572 12.28 4.30572 12.4467C5.73239 12.6267 7.25906 12.3667 8.35239 11.38C9.57239 10.2733 9.99906 8.5 9.37239 6.98L9.28572 6.80667C9.14572 6.5 8.77239 5.96667 8.77239 5.96667ZM6.66572 10.1667C6.47906 10.3267 6.17239 10.5 5.93239 10.5667C5.18572 10.8333 4.43906 10.46 3.99906 10.02C4.79239 9.83333 5.26572 9.24667 5.40572 8.65333C5.51906 8.12 5.30572 7.68 5.21906 7.16667C5.13906 6.67333 5.15239 6.25333 5.33239 5.79333C5.45906 6.04667 5.59239 6.3 5.75239 6.5C6.26572 7.16667 7.07239 7.46 7.24572 8.36667C7.27239 8.46 7.28572 8.55333 7.28572 8.65333C7.30572 9.2 7.06572 9.8 6.66572 10.1667Z" fill="#323137"/>
</svg>
