<svg width="60" height="60" viewBox="0 0 60 60" fill="none" xmlns="http://www.w3.org/2000/svg">
<path d="M0 7.05882C0 3.16034 3.16034 0 7.05882 0H52.9412C56.8397 0 60 3.16034 60 7.05882V52.9412C60 56.8397 56.8397 60 52.9412 60H7.05882C3.16034 60 0 56.8397 0 52.9412V7.05882Z" fill="#CEB9CF"/>
<path d="M44.693 42.3061L38.0147 35.625C40.0171 33.0157 40.9519 29.7424 40.6296 26.4691C40.3073 23.1958 38.752 20.1677 36.2792 17.999C33.8063 15.8303 30.6012 14.6835 27.3138 14.7911C24.0265 14.8986 20.9032 16.2526 18.5775 18.5784C16.2517 20.9041 14.8977 24.0274 14.7901 27.3148C14.6826 30.6021 15.8294 33.8073 17.9981 36.2801C20.1668 38.7529 23.1949 40.3082 26.4682 40.6305C29.7414 40.9528 33.0147 40.018 35.6241 38.0156L42.308 44.7009C42.465 44.8579 42.6513 44.9824 42.8564 45.0674C43.0615 45.1523 43.2813 45.196 43.5033 45.196C43.7253 45.196 43.9451 45.1523 44.1502 45.0674C44.3553 44.9824 44.5416 44.8579 44.6986 44.7009C44.8556 44.544 44.9801 44.3576 45.065 44.1525C45.15 43.9474 45.1937 43.7276 45.1937 43.5056C45.1937 43.2836 45.15 43.0638 45.065 42.8587C44.9801 42.6536 44.8556 42.4673 44.6986 42.3103L44.693 42.3061ZM18.1866 27.75C18.1866 25.8587 18.7474 24.0099 19.7981 22.4373C20.8489 20.8648 22.3423 19.6392 24.0897 18.9154C25.837 18.1916 27.7597 18.0023 29.6146 18.3712C31.4696 18.7402 33.1734 19.6509 34.5108 20.9883C35.8481 22.3256 36.7589 24.0295 37.1278 25.8844C37.4968 27.7394 37.3074 29.6621 36.5837 31.4094C35.8599 33.1567 34.6343 34.6502 33.0617 35.7009C31.4892 36.7517 29.6404 37.3125 27.7491 37.3125C25.2137 37.3099 22.783 36.3016 20.9902 34.5088C19.1975 32.7161 18.1892 30.2853 18.1866 27.75Z" fill="#9D749E"/>
</svg>
