<svg width="60" height="60" viewBox="0 0 60 60" fill="none" xmlns="http://www.w3.org/2000/svg">
<path d="M0 7.05882C0 3.16034 3.16034 0 7.05882 0H52.9412C56.8397 0 60 3.16034 60 7.05882V52.9412C60 56.8397 56.8397 60 52.9412 60H7.05882C3.16034 60 0 56.8397 0 52.9412V7.05882Z" fill="#FFEFCC"/>
<path d="M40.4859 44.1994L34.279 38.0298L32.8683 42.3155C32.7116 42.7551 32.4138 42.9673 31.9749 42.9523C31.536 42.9372 31.2382 42.7093 31.0815 42.2684L26.8025 27.9984C26.6771 27.6531 26.7555 27.3391 27.0376 27.0565C27.3197 26.7739 27.6332 26.6954 27.9781 26.821L42.2257 31.1068C42.6646 31.2637 42.8922 31.562 42.9085 32.0016C42.9248 32.4411 42.7129 32.7394 42.2727 32.8964L37.9937 34.3093L44.2006 40.5259C44.7335 41.0597 45 41.6719 45 42.3626C45 43.0534 44.7335 43.6656 44.2006 44.1994C43.6677 44.7331 43.0489 45 42.3442 45C41.6395 45 41.0201 44.7331 40.4859 44.1994ZM15 26.303C15 23.1633 16.0972 20.4945 18.2915 18.2967C20.4859 16.0989 23.1505 15 26.2853 15C28.6991 15 30.8545 15.6675 32.7517 17.0025C34.6489 18.3375 36.0044 20.0719 36.8182 22.2057C37.0063 22.708 36.9987 23.1947 36.7956 23.6656C36.5925 24.1366 36.2395 24.4662 35.7367 24.6546C35.2339 24.843 34.7561 24.8355 34.3034 24.632C33.8508 24.4286 33.5292 24.075 33.3386 23.5714C32.8056 22.1586 31.8966 21.0044 30.6113 20.1089C29.326 19.2135 27.884 18.7664 26.2853 18.7677C24.2163 18.7677 22.4451 19.5055 20.9718 20.9812C19.4984 22.4568 18.7618 24.2308 18.7618 26.303C18.7618 27.9042 19.2088 29.3485 20.1028 30.6358C20.9969 31.9231 22.1486 32.8336 23.558 33.3673C24.0596 33.5557 24.4125 33.8854 24.6169 34.3564C24.8213 34.8273 24.8288 35.314 24.6395 35.8163C24.4502 36.3187 24.121 36.6641 23.652 36.8524C23.1831 37.0408 22.6972 37.0408 22.1944 36.8524C20.0313 36.0361 18.2915 34.6622 16.9749 32.7306C15.6583 30.7991 15 28.6565 15 26.303Z" fill="#E6C888"/>
</svg>
