<svg width="60" height="60" viewBox="0 0 60 60" fill="none" xmlns="http://www.w3.org/2000/svg">
<path d="M0 7.05882C0 3.16034 3.16034 0 7.05882 0H52.9412C56.8397 0 60 3.16034 60 7.05882V52.9412C60 56.8397 56.8397 60 52.9412 60H7.05882C3.16034 60 0 56.8397 0 52.9412V7.05882Z" fill="#FFE9BB"/>
<path d="M19.6 41C18.885 41 18.2731 40.7554 17.7644 40.2662C17.2557 39.7771 17.0009 39.1883 17 38.5V23.5C17 22.8125 17.2548 22.2242 17.7644 21.735C18.274 21.2458 18.8859 21.0008 19.6 21H40.4C41.115 21 41.7273 21.245 42.2369 21.735C42.7465 22.225 43.0009 22.8133 43 23.5V38.5C43 39.1875 42.7456 39.7762 42.2369 40.2662C41.7282 40.7562 41.1159 41.0008 40.4 41H19.6ZM30 32.25L40.4 26V23.5L30 29.75L19.6 23.5V26L30 32.25Z" fill="#E6C888"/>
</svg>
