<svg width="60" height="60" viewBox="0 0 60 60" fill="none" xmlns="http://www.w3.org/2000/svg">
<path d="M0 7.05882C0 3.16034 3.16034 0 7.05882 0H52.9412C56.8397 0 60 3.16034 60 7.05882V52.9412C60 56.8397 56.8397 60 52.9412 60H7.05882C3.16034 60 0 56.8397 0 52.9412V7.05882Z" fill="#A7B2E2"/>
<path fill-rule="evenodd" clip-rule="evenodd" d="M33.312 19.245C33.992 19.455 34.642 19.725 35.262 20.055L38.0115 18.405C38.2982 18.233 38.6341 18.1618 38.9659 18.2026C39.2978 18.2433 39.6064 18.3938 39.843 18.63L41.37 20.157C41.6062 20.3936 41.7567 20.7022 41.7974 21.0341C41.8382 21.3659 41.767 21.7018 41.595 21.9885L39.945 24.738C40.275 25.358 40.545 26.008 40.755 26.688L43.8645 27.4665C44.1889 27.5478 44.4768 27.7351 44.6825 27.9987C44.8882 28.2623 45 28.5871 45 28.9215V31.0785C45 31.4129 44.8882 31.7377 44.6825 32.0013C44.4768 32.2649 44.1889 32.4522 43.8645 32.5335L40.755 33.312C40.545 33.992 40.275 34.642 39.945 35.262L41.595 38.0115C41.767 38.2982 41.8382 38.6341 41.7974 38.9659C41.7567 39.2978 41.6062 39.6064 41.37 39.843L39.843 41.37C39.6064 41.6062 39.2978 41.7567 38.9659 41.7974C38.6341 41.8382 38.2982 41.767 38.0115 41.595L35.262 39.945C34.642 40.275 33.992 40.545 33.312 40.755L32.5335 43.8645C32.4522 44.1889 32.2649 44.4768 32.0013 44.6825C31.7377 44.8882 31.4129 45 31.0785 45H28.9215C28.5871 45 28.2623 44.8882 27.9987 44.6825C27.7351 44.4768 27.5478 44.1889 27.4665 43.8645L26.688 40.755C26.014 40.5467 25.3612 40.2755 24.738 39.945L21.9885 41.595C21.7018 41.767 21.3659 41.8382 21.0341 41.7974C20.7022 41.7567 20.3936 41.6062 20.157 41.37L18.63 39.843C18.3938 39.6064 18.2433 39.2978 18.2026 38.9659C18.1618 38.6341 18.233 38.2982 18.405 38.0115L20.055 35.262C19.7245 34.6388 19.4533 33.986 19.245 33.312L16.1355 32.5335C15.8114 32.4523 15.5236 32.2652 15.3179 32.0019C15.1122 31.7386 15.0003 31.4141 15 31.08V28.923C15 28.5886 15.1118 28.2638 15.3175 28.0002C15.5232 27.7366 15.8111 27.5493 16.1355 27.468L19.245 26.6895C19.455 26.0095 19.725 25.3595 20.055 24.7395L18.405 21.99C18.233 21.7033 18.1618 21.3674 18.2026 21.0356C18.2433 20.7037 18.3938 20.3951 18.63 20.1585L20.157 18.63C20.3936 18.3938 20.7022 18.2433 21.0341 18.2026C21.3659 18.1618 21.7018 18.233 21.9885 18.405L24.738 20.055C25.358 19.725 26.008 19.455 26.688 19.245L27.4665 16.1355C27.5477 15.8114 27.7348 15.5236 27.9981 15.3179C28.2614 15.1122 28.5859 15.0003 28.92 15H31.077C31.4114 15 31.7362 15.1118 31.9998 15.3175C32.2634 15.5232 32.4507 15.8111 32.532 16.1355L33.312 19.245ZM30 36C31.5913 36 33.1174 35.3679 34.2426 34.2426C35.3679 33.1174 36 31.5913 36 30C36 28.4087 35.3679 26.8826 34.2426 25.7574C33.1174 24.6321 31.5913 24 30 24C28.4087 24 26.8826 24.6321 25.7574 25.7574C24.6321 26.8826 24 28.4087 24 30C24 31.5913 24.6321 33.1174 25.7574 34.2426C26.8826 35.3679 28.4087 36 30 36Z" fill="#6D7FCE"/>
</svg>
