<svg width="60" height="60" viewBox="0 0 60 60" fill="none" xmlns="http://www.w3.org/2000/svg">
<path d="M0 7.05882C0 3.16034 3.16034 0 7.05882 0H52.9412C56.8397 0 60 3.16034 60 7.05882V52.9412C60 56.8397 56.8397 60 52.9412 60H7.05882C3.16034 60 0 56.8397 0 52.9412V7.05882Z" fill="#D8FBDB"/>
<path d="M21 16.5V21H16.5V16.5H21ZM14.25 14.25V23.25H23.25V14.25H14.25ZM32.25 19.875V24.375H27.75V19.875H32.25ZM25.5 17.625V26.625H34.5V17.625H25.5ZM21 30V34.5H16.5V30H21ZM14.25 27.75V36.75H23.25V27.75H14.25Z" fill="#77CA7E"/>
<path d="M36.75 23.25V30H30V36.75H23.25V45.75H45.75V23.25H36.75ZM32.25 32.25H36.75V36.75H32.25V32.25ZM30 43.5H25.5V39H30V43.5ZM36.75 43.5H32.25V39H36.75V43.5ZM43.5 43.5H39V39H43.5V43.5ZM43.5 36.75H39V32.25H43.5V36.75ZM39 30V25.5H43.5V30H39Z" fill="#77CA7E"/>
</svg>
