<svg width="60" height="60" viewBox="0 0 60 60" fill="none" xmlns="http://www.w3.org/2000/svg">
<path d="M0 7.05882C0 3.16034 3.16034 0 7.05882 0H52.9412C56.8397 0 60 3.16034 60 7.05882V52.9412C60 56.8397 56.8397 60 52.9412 60H7.05882C3.16034 60 0 56.8397 0 52.9412V7.05882Z" fill="#A7B2E2"/>
<path d="M17.9991 40.5L16.6041 39.945C16.5044 40.1958 16.4743 40.4688 16.5168 40.7353C16.5593 41.0019 16.6729 41.252 16.8457 41.4593C17.0185 41.6666 17.244 41.8235 17.4985 41.9134C17.7529 42.0033 18.0269 42.0228 18.2916 41.97L17.9991 40.5ZM25.0581 39.096L25.7691 37.7745L25.2936 37.5195L24.7656 37.6245L25.0581 39.096ZM20.4351 34.3755L21.8301 34.9305L22.0746 34.3095L21.7806 33.711L20.4351 34.3755ZM40.4991 30C40.4991 34.869 36.2196 39 30.7041 39V42C37.6656 42 43.4991 36.729 43.4991 30H40.4991ZM20.9106 30C20.9106 25.131 25.1916 21 30.7056 21V18C23.7441 18 17.9091 23.271 17.9091 30H20.9106ZM30.7056 21C36.2196 21 40.4991 25.131 40.4991 30H43.4991C43.4991 23.271 37.6671 18 30.7056 18V21ZM30.7041 39C28.8966 39 27.2136 38.55 25.7691 37.7745L24.3471 40.416C26.3021 41.4641 28.4859 42.0085 30.7041 42V39ZM18.2916 41.97L25.3506 40.566L24.7656 37.6245L17.7066 39.0285L18.2916 41.9715V41.97ZM21.7806 33.711C21.2096 32.5571 20.9129 31.2874 20.9106 30H17.9091C17.9091 31.8 18.3321 33.507 19.0881 35.04L21.7806 33.711ZM19.0416 33.8205L16.6041 39.9465L19.3911 41.0535L21.8271 34.929L19.0401 33.8205H19.0416Z" fill="#6D7FCE"/>
<path d="M25.5 31.5C26.3284 31.5 27 30.8284 27 30C27 29.1716 26.3284 28.5 25.5 28.5C24.6716 28.5 24 29.1716 24 30C24 30.8284 24.6716 31.5 25.5 31.5Z" fill="#6D7FCE"/>
<path d="M30.75 31.5C31.5784 31.5 32.25 30.8284 32.25 30C32.25 29.1716 31.5784 28.5 30.75 28.5C29.9216 28.5 29.25 29.1716 29.25 30C29.25 30.8284 29.9216 31.5 30.75 31.5Z" fill="#6D7FCE"/>
<path d="M36 31.5C36.8284 31.5 37.5 30.8284 37.5 30C37.5 29.1716 36.8284 28.5 36 28.5C35.1716 28.5 34.5 29.1716 34.5 30C34.5 30.8284 35.1716 31.5 36 31.5Z" fill="#6D7FCE"/>
</svg>
