<svg width="60" height="60" viewBox="0 0 60 60" fill="none" xmlns="http://www.w3.org/2000/svg">
<path d="M0 7.05882C0 3.16034 3.16034 0 7.05882 0H52.9412C56.8397 0 60 3.16034 60 7.05882V52.9412C60 56.8397 56.8397 60 52.9412 60H7.05882C3.16034 60 0 56.8397 0 52.9412V7.05882Z" fill="#6D7FCE"/>
<path d="M29.9995 37.905L36.2245 41.67C37.3645 42.36 38.7595 41.34 38.4595 40.05L36.8095 32.97L42.3145 28.2C43.3195 27.33 42.7795 25.68 41.4595 25.575L34.2145 24.96L31.3795 18.27C30.8695 17.055 29.1295 17.055 28.6195 18.27L25.7845 24.945L18.5395 25.56C17.2195 25.665 16.6795 27.315 17.6845 28.185L23.1895 32.955L21.5395 40.035C21.2395 41.325 22.6345 42.345 23.7745 41.655L29.9995 37.905Z" fill="#C5CCEB"/>
</svg>
