<svg width="32" height="33" viewBox="0 0 32 33" fill="none" xmlns="http://www.w3.org/2000/svg">
<path d="M21.9993 16.5C21.9993 15.5933 21.9193 14.7133 21.8127 13.8333H26.3193C26.5327 14.6866 26.666 15.58 26.666 16.5C26.666 16.9933 26.626 17.4733 26.5593 17.94C27.4793 18.0733 28.3327 18.3666 29.1194 18.7933C29.2527 18.0466 29.3327 17.2866 29.3327 16.5C29.3327 9.16663 23.3327 3.16663 15.9993 3.16663C8.62602 3.16663 2.66602 9.16663 2.66602 16.5C2.66602 23.8333 8.66602 29.8333 15.9993 29.8333C16.786 29.8333 17.546 29.7533 18.2927 29.62C17.6594 28.4585 17.3292 27.1562 17.3327 25.8333C17.3327 25.4466 17.3727 25.0733 17.426 24.7C16.9993 25.54 16.5327 26.3533 15.9993 27.1133C14.8927 25.5133 13.9993 23.74 13.4527 21.8333H18.4127C19.2135 20.4418 20.4176 19.326 21.866 18.6333C21.946 17.9266 21.9993 17.22 21.9993 16.5ZM15.9993 5.87329C17.106 7.47329 17.9993 9.25996 18.546 11.1666H13.4527C13.9993 9.25996 14.8927 7.47329 15.9993 5.87329ZM5.67935 19.1666C5.46602 18.3133 5.33268 17.42 5.33268 16.5C5.33268 15.58 5.46602 14.6866 5.67935 13.8333H10.186C10.0793 14.7133 9.99935 15.5933 9.99935 16.5C9.99935 17.4066 10.0793 18.2866 10.186 19.1666H5.67935ZM6.77268 21.8333H10.666C11.1327 23.5 11.7327 25.1 12.5327 26.58C10.1037 25.743 8.0584 24.0575 6.77268 21.8333ZM10.666 11.1666H6.77268C8.05087 8.936 10.0989 7.24828 12.5327 6.41996C11.7327 7.89996 11.1327 9.49996 10.666 11.1666ZM19.1194 19.1666H12.8793C12.746 18.2866 12.666 17.4066 12.666 16.5C12.666 15.5933 12.746 14.7 12.8793 13.8333H19.1194C19.2393 14.7 19.3327 15.5933 19.3327 16.5C19.3327 17.4066 19.2393 18.2866 19.1194 19.1666ZM19.4527 6.41996C21.906 7.25996 23.946 8.95329 25.226 11.1666H21.2927C20.8747 9.51544 20.2568 7.92143 19.4527 6.41996ZM29.9993 23.5L23.666 29.8333L19.9993 25.8333L21.546 24.2866L23.666 26.4066L28.4527 21.62L29.9993 23.5Z" fill="#8A99D8"/>
</svg>
