<svg width="32" height="33" viewBox="0 0 32 33" fill="none" xmlns="http://www.w3.org/2000/svg">
<path d="M31.3955 13.3C31.5662 13.3 31.7138 13.4191 31.7422 13.5862C31.9093 14.5213 32 15.5275 32 16.5C32.0049 20.4375 30.5529 24.2375 27.9235 27.1684C27.8625 27.2361 27.7774 27.2773 27.6865 27.2833C27.5955 27.2893 27.5058 27.2595 27.4364 27.2004L23.0898 23.5204C23.0523 23.4882 23.0218 23.4488 23 23.4044C22.9782 23.3601 22.9656 23.3118 22.9629 23.2625C22.9603 23.2132 22.9676 23.1638 22.9845 23.1174C23.0014 23.071 23.0276 23.0285 23.0613 22.9924C23.9366 22.0396 24.6102 20.9197 25.0418 19.7H16.3556C16.2613 19.7 16.1708 19.6625 16.1041 19.5958C16.0375 19.5292 16 19.4387 16 19.3444V13.6555C16 13.46 16.16 13.3 16.3556 13.3H31.3955ZM20.3964 25.0333C20.4604 25.0011 20.5324 24.988 20.6036 24.9956C20.6748 25.0032 20.7424 25.0311 20.7982 25.076L25.3635 28.9391C25.4043 28.973 25.4367 29.0158 25.4584 29.0641C25.4801 29.1125 25.4905 29.1651 25.4888 29.2181C25.4871 29.2711 25.4733 29.323 25.4485 29.3698C25.4237 29.4166 25.3886 29.4572 25.3458 29.4884C22.6254 31.4514 19.3547 32.5053 16 32.5C13.3336 32.5002 10.7093 31.834 8.36585 30.562C6.02237 29.29 4.03396 27.4525 2.58134 25.2164C2.53378 25.1425 2.51579 25.0533 2.53094 24.9667C2.54609 24.8801 2.59327 24.8023 2.66312 24.7489L7.18756 21.2609C7.22916 21.2298 7.27687 21.2079 7.32755 21.1965C7.37823 21.1852 7.43074 21.1847 7.48162 21.1951C7.5325 21.2055 7.5806 21.2266 7.62276 21.2569C7.66492 21.2873 7.70018 21.3262 7.72622 21.3711C8.97068 23.4845 10.9768 25.0414 13.3329 25.7224C15.689 26.4034 18.2164 26.1569 20.3964 25.0333ZM6.54222 18.1462C6.55462 18.2114 6.54853 18.2787 6.52465 18.3406C6.50078 18.4025 6.46006 18.4565 6.40711 18.4964L1.54489 22.2422C1.50198 22.2759 1.45177 22.299 1.39829 22.3097C1.34481 22.3205 1.28955 22.3185 1.23698 22.3039C1.18441 22.2894 1.13598 22.2628 1.09559 22.2261C1.0552 22.1894 1.02398 22.1438 1.00445 22.0929C0.338614 20.3034 -0.00156391 18.4093 5.40493e-06 16.5C5.40493e-06 14.452 0.385783 12.4929 1.088 10.692C1.10772 10.6424 1.13859 10.5979 1.17822 10.5621C1.21785 10.5263 1.26518 10.5001 1.31655 10.4855C1.36793 10.4709 1.42197 10.4683 1.47451 10.4779C1.52705 10.4875 1.57668 10.509 1.61956 10.5409L6.47645 14.1035C6.592 14.1871 6.64534 14.3347 6.61511 14.4733C6.35402 15.6814 6.33045 16.9285 6.54222 18.1462ZM7.37245 11.4529C7.54311 11.5773 7.78311 11.5276 7.89689 11.3498C8.76385 9.986 9.96106 8.86314 11.3776 8.08529C12.794 7.30743 14.384 6.89974 16 6.9C18.2347 6.89925 20.3989 7.68251 22.1155 9.11333C22.1848 9.17204 22.2736 9.20276 22.3643 9.19947C22.4551 9.19618 22.5413 9.15912 22.6062 9.09555L26.6347 5.06533C26.6684 5.03177 26.695 4.99168 26.7127 4.94751C26.7304 4.90334 26.739 4.85602 26.7378 4.80843C26.7367 4.76085 26.7258 4.714 26.7059 4.67075C26.686 4.62751 26.6576 4.58876 26.6222 4.55689C23.702 1.94241 19.9196 0.497792 16 0.500004C13.3682 0.498238 10.7768 1.1464 8.45572 2.38694C6.13468 3.62747 4.1559 5.42199 2.69511 7.61111C2.646 7.68631 2.62765 7.7775 2.64387 7.86584C2.66008 7.95418 2.70961 8.03292 2.78223 8.08578L7.37245 11.4529Z" fill="#BEF9C3"/>
</svg>
