<svg width="32" height="33" viewBox="0 0 32 33" fill="none" xmlns="http://www.w3.org/2000/svg">
<path d="M8.10267 27.1667L4.92933 30.34C4.75778 30.5116 4.56 30.5547 4.336 30.4693C4.112 30.384 4 30.2196 4 29.976V10.656C4 10.0418 4.20578 9.52933 4.61733 9.11867C5.02889 8.708 5.54089 8.50178 6.15333 8.5H25.8467C26.46 8.5 26.972 8.70578 27.3827 9.11733C27.7933 9.52889 27.9991 10.0413 28 10.6547V25.0133C28 25.6267 27.7942 26.1391 27.3827 26.5507C26.9711 26.9622 26.4591 27.1676 25.8467 27.1667H8.10267ZM16 20.7227L18.2267 22.0773C18.4187 22.1982 18.6116 22.1884 18.8053 22.048C18.9982 21.9067 19.0702 21.7173 19.0213 21.48L18.4307 18.964L20.3907 17.28C20.5773 17.1138 20.6351 16.9218 20.564 16.704C20.4929 16.4862 20.3356 16.3662 20.092 16.344L17.5107 16.1107L16.4973 13.736C16.4031 13.52 16.2373 13.412 16 13.412C15.7627 13.412 15.5969 13.52 15.5027 13.736L14.4893 16.1093L11.908 16.344C11.6653 16.3662 11.508 16.4862 11.436 16.704C11.364 16.9218 11.4218 17.1138 11.6093 17.28L13.5693 18.964L12.98 21.4787C12.9302 21.7169 13.0018 21.9067 13.1947 22.048C13.3876 22.1893 13.5809 22.1991 13.7747 22.0773L16 20.7227Z" fill="#A5F2FF"/>
</svg>
