<svg width="40" height="40" viewBox="0 0 40 40" fill="none" xmlns="http://www.w3.org/2000/svg">
<path d="M0 7.05882C0 3.16034 3.16034 0 7.05882 0H32.9412C36.8397 0 40 3.16034 40 7.05882V32.9412C40 36.8397 36.8397 40 32.9412 40H7.05882C3.16034 40 0 36.8397 0 32.9412V7.05882Z" fill="#A7B2E2"/>
<path fill-rule="evenodd" clip-rule="evenodd" d="M13.2461 15.5C13.2487 16.6264 13.6973 17.7058 14.4938 18.5023C15.2903 19.2987 16.3697 19.7474 17.4961 19.75C18.6225 19.7474 19.7019 19.2987 20.4984 18.5023C21.2948 17.7058 21.7435 16.6264 21.7461 15.5C21.7435 14.3736 21.2948 13.2942 20.4984 12.4977C19.7019 11.7013 18.6225 11.2526 17.4961 11.25C16.3697 11.2526 15.2903 11.7013 14.4938 12.4977C13.6973 13.2942 13.2487 14.3736 13.2461 15.5ZM14.7461 15.5C14.7461 13.98 15.9761 12.75 17.4961 12.75C19.0161 12.75 20.2461 13.98 20.2461 15.5C20.2461 17.02 19.0161 18.25 17.4961 18.25C15.9761 18.25 14.7461 17.02 14.7461 15.5ZM10.2461 28C10.2461 28.41 10.5861 28.75 10.9961 28.75C11.4061 28.75 11.7461 28.41 11.7461 28V25.97C11.7461 25.13 12.0761 24.09 12.9961 23.67C15.2961 22.63 18.2861 22.46 20.7861 23.21C21.1761 23.33 21.5961 23.1 21.7161 22.71C21.8361 22.32 21.6161 21.9 21.2161 21.78C18.3761 20.93 15.0161 21.12 12.3761 22.31C11.0561 22.91 10.2461 24.31 10.2461 25.97V28ZM22.4951 19.6C22.1751 19.6 21.8751 19.39 21.7751 19.06C21.6551 18.66 21.8851 18.25 22.2751 18.13C22.8426 17.9632 23.3406 17.6165 23.6941 17.1422C24.0476 16.6678 24.2374 16.0915 24.2351 15.5C24.2351 14.28 23.4251 13.2 22.2751 12.86C22.181 12.8321 22.0934 12.7858 22.0172 12.7239C21.9411 12.6619 21.878 12.5855 21.8315 12.4991C21.785 12.4126 21.7561 12.3178 21.7464 12.2202C21.7368 12.1225 21.7465 12.0239 21.7751 11.93C21.8951 11.53 22.3151 11.31 22.7051 11.43C24.4951 11.96 25.7451 13.64 25.7451 15.51C25.7451 17.38 24.5251 19.04 22.7051 19.58C22.6351 19.6 22.5651 19.61 22.4951 19.61V19.6ZM25.2461 28C25.2461 28.41 25.5861 28.75 25.9961 28.75C26.4061 28.75 26.7461 28.41 26.7461 28V25.75H28.9961C29.4061 25.75 29.7461 25.41 29.7461 25C29.7461 24.59 29.4061 24.25 28.9961 24.25H26.7461V22C26.7461 21.59 26.4061 21.25 25.9961 21.25C25.5861 21.25 25.2461 21.59 25.2461 22V24.25H22.9961C22.5861 24.25 22.2461 24.59 22.2461 25C22.2461 25.41 22.5861 25.75 22.9961 25.75H25.2461V28Z" fill="#6D7FCE"/>
</svg>
