<svg width="40" height="40" viewBox="0 0 40 40" fill="none" xmlns="http://www.w3.org/2000/svg">
<path d="M0 7.05882C0 3.16034 3.16034 0 7.05882 0H32.9412C36.8397 0 40 3.16034 40 7.05882V32.9412C40 36.8397 36.8397 40 32.9412 40H7.05882C3.16034 40 0 36.8397 0 32.9412V7.05882Z" fill="#B597B6"/>
<path d="M23.7499 20C22.7862 20 21.8543 19.5697 21.1249 18.7888C20.4157 18.027 19.9826 17.0113 19.9062 15.9294C19.8246 14.7753 20.1767 13.7141 20.8971 12.9406C21.6176 12.1672 22.6249 11.75 23.7499 11.75C24.867 11.75 25.8771 12.1747 26.5953 12.9462C27.3204 13.7253 27.6734 14.7847 27.5918 15.9289C27.5135 17.0122 27.0809 18.0275 26.3731 18.7883C25.6456 19.5697 24.7142 20 23.7499 20ZM29.9295 28.25H17.5709C17.3722 28.2511 17.1759 28.2065 16.9971 28.1198C16.8183 28.0331 16.6618 27.9065 16.5396 27.7498C16.41 27.58 16.3205 27.383 16.2778 27.1736C16.2351 26.9643 16.2403 26.748 16.2931 26.5409C16.6878 24.9561 17.6656 23.6417 19.1206 22.7403C20.412 21.9406 22.0559 21.5 23.7499 21.5C25.4773 21.5 27.0781 21.9219 28.377 22.7211C29.8353 23.6178 30.8145 24.9397 31.2073 26.5438C31.2594 26.751 31.264 26.9673 31.2208 27.1765C31.1777 27.3857 31.0878 27.5825 30.9579 27.7522C30.8359 27.9082 30.6797 28.0341 30.5014 28.1204C30.3232 28.2067 30.1275 28.251 29.9295 28.25ZM14.8906 20.1875C13.241 20.1875 11.7907 18.6538 11.6562 16.7689C11.5896 15.8033 11.8906 14.9103 12.4999 14.2555C13.1028 13.6072 13.9531 13.25 14.8906 13.25C15.8281 13.25 16.6718 13.6091 17.2779 14.2611C17.892 14.9211 18.192 15.8122 18.1217 16.7698C17.9871 18.6542 16.5373 20.1875 14.8906 20.1875ZM17.9684 21.6617C17.1439 21.2586 16.0737 21.057 14.891 21.057C13.5101 21.057 12.169 21.417 11.1143 22.0705C9.91854 22.8125 9.11417 23.893 8.78932 25.1975C8.74178 25.3851 8.73729 25.5811 8.77617 25.7707C8.81505 25.9603 8.89631 26.1387 9.01385 26.2925C9.12539 26.4357 9.26828 26.5514 9.43154 26.6307C9.5948 26.71 9.77407 26.7508 9.95557 26.75H15.1587C15.2465 26.75 15.3315 26.7192 15.399 26.6629C15.4664 26.6066 15.5119 26.5284 15.5276 26.442C15.5328 26.4125 15.5393 26.383 15.5468 26.3539C15.9443 24.7573 16.8757 23.4083 18.252 22.4248C18.3026 22.3884 18.3433 22.3398 18.3704 22.2836C18.3975 22.2274 18.4102 22.1653 18.4073 22.103C18.4044 22.0407 18.3859 21.9801 18.3536 21.9267C18.3214 21.8733 18.2763 21.8288 18.2224 21.7972C18.1489 21.7541 18.0645 21.7086 17.9684 21.6617Z" fill="#845186"/>
</svg>
