<svg width="40" height="40" viewBox="0 0 40 40" fill="none" xmlns="http://www.w3.org/2000/svg">
<path d="M0 7.05882C0 3.16034 3.16034 0 7.05882 0H32.9412C36.8397 0 40 3.16034 40 7.05882V32.9412C40 36.8397 36.8397 40 32.9412 40H7.05882C3.16034 40 0 36.8397 0 32.9412V7.05882Z" fill="#FFEFCC"/>
<path d="M11 26H18.5V27.5H11V26ZM11 21.5H18.5V23H11V21.5ZM27.5 18.5H12.5C12.1022 18.5 11.7206 18.342 11.4393 18.0607C11.158 17.7794 11 17.3978 11 17V12.5C11 12.1022 11.158 11.7206 11.4393 11.4393C11.7206 11.158 12.1022 11 12.5 11H27.5C27.8978 11 28.2794 11.158 28.5607 11.4393C28.842 11.7206 29 12.1022 29 12.5V17C29 17.3978 28.842 17.7794 28.5607 18.0607C28.2794 18.342 27.8978 18.5 27.5 18.5ZM12.5 12.5V17H27.5V12.5H12.5ZM27.5 29H23C22.6022 29 22.2206 28.842 21.9393 28.5607C21.658 28.2794 21.5 27.8978 21.5 27.5V23C21.5 22.6022 21.658 22.2206 21.9393 21.9393C22.2206 21.658 22.6022 21.5 23 21.5H27.5C27.8978 21.5 28.2794 21.658 28.5607 21.9393C28.842 22.2206 29 22.6022 29 23V27.5C29 27.8978 28.842 28.2794 28.5607 28.5607C28.2794 28.842 27.8978 29 27.5 29ZM23 23V27.5H27.5V23H23Z" fill="#E6C888"/>
</svg>
