<svg width="41" height="40" viewBox="0 0 41 40" fill="none" xmlns="http://www.w3.org/2000/svg">
<path d="M0.25 7.05882C0.25 3.16034 3.41034 0 7.30882 0H33.1912C37.0897 0 40.25 3.16034 40.25 7.05882V32.9412C40.25 36.8397 37.0897 40 33.1912 40H7.30882C3.41034 40 0.25 36.8397 0.25 32.9412V7.05882Z" fill="#A7B2E2"/>
<path d="M12.2507 27L11.3207 26.63C11.2543 26.7972 11.2341 26.9792 11.2625 27.1569C11.2908 27.3346 11.3666 27.5013 11.4818 27.6395C11.597 27.7777 11.7473 27.8823 11.9169 27.9422C12.0866 28.0022 12.2693 28.0152 12.4457 27.98L12.2507 27ZM16.9567 26.064L17.4307 25.183L17.1137 25.013L16.7617 25.083L16.9567 26.064ZM13.8747 22.917L14.8047 23.287L14.9677 22.873L14.7717 22.474L13.8747 22.917ZM27.2507 20C27.2507 23.246 24.3977 26 20.7207 26V28C25.3617 28 29.2507 24.486 29.2507 20H27.2507ZM14.1917 20C14.1917 16.754 17.0457 14 20.7217 14V12C16.0807 12 12.1907 15.514 12.1907 20H14.1917ZM20.7217 14C24.3977 14 27.2507 16.754 27.2507 20H29.2507C29.2507 15.514 25.3627 12 20.7217 12V14ZM20.7207 26C19.5157 26 18.3937 25.7 17.4307 25.183L16.4827 26.944C17.786 27.6427 19.2419 28.0056 20.7207 28V26ZM12.4457 27.98L17.1517 27.044L16.7617 25.083L12.0557 26.019L12.4457 27.981V27.98ZM14.7717 22.474C14.391 21.7048 14.1932 20.8583 14.1917 20H12.1907C12.1907 21.2 12.4727 22.338 12.9767 23.36L14.7717 22.474ZM12.9457 22.547L11.3207 26.631L13.1787 27.369L14.8027 23.286L12.9447 22.547H12.9457Z" fill="#6D7FCE"/>
<path d="M17.25 21C17.8023 21 18.25 20.5523 18.25 20C18.25 19.4477 17.8023 19 17.25 19C16.6977 19 16.25 19.4477 16.25 20C16.25 20.5523 16.6977 21 17.25 21Z" fill="#6D7FCE"/>
<path d="M20.75 21C21.3023 21 21.75 20.5523 21.75 20C21.75 19.4477 21.3023 19 20.75 19C20.1977 19 19.75 19.4477 19.75 20C19.75 20.5523 20.1977 21 20.75 21Z" fill="#6D7FCE"/>
<path d="M24.25 21C24.8023 21 25.25 20.5523 25.25 20C25.25 19.4477 24.8023 19 24.25 19C23.6977 19 23.25 19.4477 23.25 20C23.25 20.5523 23.6977 21 24.25 21Z" fill="#6D7FCE"/>
</svg>
