<svg width="41" height="40" viewBox="0 0 41 40" fill="none" xmlns="http://www.w3.org/2000/svg">
<path d="M0.25 7.05882C0.25 3.16034 3.41034 0 7.30882 0H33.1912C37.0897 0 40.25 3.16034 40.25 7.05882V32.9412C40.25 36.8397 37.0897 40 33.1912 40H7.30882C3.41034 40 0.25 36.8397 0.25 32.9412V7.05882Z" fill="#FFE9BB" fill-opacity="0.3"/>
<path d="M12.25 29C11.7 29 11.2293 28.8043 10.838 28.413C10.4467 28.0217 10.2507 27.5507 10.25 27V16C10.25 15.45 10.446 14.9793 10.838 14.588C11.23 14.1967 11.7007 14.0007 12.25 14H16.25V12C16.25 11.45 16.446 10.9793 16.838 10.588C17.23 10.1967 17.7007 10.0007 18.25 10H22.25C22.8 10 23.271 10.196 23.663 10.588C24.055 10.98 24.2507 11.4507 24.25 12V14H28.25C28.8 14 29.271 14.196 29.663 14.588C30.055 14.98 30.2507 15.4507 30.25 16V27C30.25 27.55 30.0543 28.021 29.663 28.413C29.2717 28.805 28.8007 29.0007 28.25 29H12.25ZM18.25 14H22.25V12H18.25V14ZM28.25 23H23.25V25H17.25V23H12.25V27H28.25V23ZM19.25 23H21.25V21H19.25V23ZM12.25 21H17.25V19H23.25V21H28.25V16H12.25V21Z" fill="#E6C888"/>
</svg>
