<svg width="41" height="40" viewBox="0 0 41 40" fill="none" xmlns="http://www.w3.org/2000/svg">
<path d="M0.25 4C0.25 1.79086 2.04086 0 4.25 0H36.25C38.4591 0 40.25 1.79086 40.25 4V36C40.25 38.2091 38.4591 40 36.25 40H4.25C2.04086 40 0.25 38.2091 0.25 36V4Z" fill="#FFE9BB" fill-opacity="0.3"/>
<path d="M30.25 18.5V20C30.25 24.714 30.25 27.071 28.785 28.535C27.322 30 24.964 30 20.25 30C15.536 30 13.179 30 11.714 28.535C10.25 27.072 10.25 24.714 10.25 20C10.25 18.872 10.25 17.878 10.27 17M21.75 10H20.25C15.536 10 13.179 10 11.714 11.464C11.274 11.905 10.965 12.427 10.75 13.07" stroke="#E6C888" stroke-width="2" stroke-linecap="round"/>
<path d="M15.25 22L17.047 19.844C17.759 18.989 18.115 18.562 18.583 18.562C19.052 18.562 19.408 18.989 20.12 19.844L20.38 20.156C21.092 21.011 21.448 21.438 21.917 21.438C22.386 21.438 22.741 21.011 23.453 20.156L25.25 18" stroke="#E6C888" stroke-width="2" stroke-linecap="round"/>
<path d="M27.25 16C28.9069 16 30.25 14.6569 30.25 13C30.25 11.3431 28.9069 10 27.25 10C25.5931 10 24.25 11.3431 24.25 13C24.25 14.6569 25.5931 16 27.25 16Z" stroke="#E6C888" stroke-width="2"/>
</svg>
