<svg width="40" height="40" viewBox="0 0 40 40" fill="none" xmlns="http://www.w3.org/2000/svg">
<path d="M0 4C0 1.79086 1.79086 0 4 0H36C38.2091 0 40 1.79086 40 4V36C40 38.2091 38.2091 40 36 40H4C1.79086 40 0 38.2091 0 36V4Z" fill="#CEB9CF"/>
<path d="M29.7958 28.2041L25.3436 23.75C26.6785 22.0104 27.3018 19.8282 27.0869 17.6461C26.872 15.4639 25.8352 13.4452 24.1866 11.9994C22.538 10.5536 20.4013 9.78898 18.2097 9.8607C16.0182 9.93243 13.936 10.8351 12.3855 12.3856C10.835 13.9361 9.93231 16.0183 9.86058 18.2098C9.78886 20.4014 10.5534 22.5382 11.9992 24.1867C13.445 25.8353 15.4638 26.8722 17.6459 27.087C19.8281 27.3019 22.0103 26.6787 23.7499 25.3437L28.2058 29.8006C28.3105 29.9053 28.4347 29.9883 28.5714 30.0449C28.7081 30.1015 28.8547 30.1307 29.0027 30.1307C29.1507 30.1307 29.2972 30.1015 29.434 30.0449C29.5707 29.9883 29.6949 29.9053 29.7996 29.8006C29.9042 29.696 29.9872 29.5717 30.0439 29.435C30.1005 29.2983 30.1296 29.1517 30.1296 29.0037C30.1296 28.8557 30.1005 28.7092 30.0439 28.5725C29.9872 28.4357 29.9042 28.3115 29.7996 28.2069L29.7958 28.2041ZM12.1249 18.5C12.1249 17.2391 12.4988 16.0066 13.1993 14.9582C13.8997 13.9099 14.8954 13.0928 16.0603 12.6103C17.2251 12.1278 18.5069 12.0015 19.7436 12.2475C20.9802 12.4935 22.1161 13.1006 23.0077 13.9922C23.8992 14.8837 24.5064 16.0197 24.7524 17.2563C24.9984 18.4929 24.8721 19.7747 24.3896 20.9396C23.9071 22.1045 23.09 23.1001 22.0416 23.8006C20.9933 24.5011 19.7607 24.875 18.4999 24.875C16.8096 24.8733 15.1892 24.201 13.994 23.0059C12.7988 21.8107 12.1266 20.1902 12.1249 18.5Z" fill="#9D749E"/>
</svg>
