<svg width="40" height="40" viewBox="0 0 40 40" fill="none" xmlns="http://www.w3.org/2000/svg">
<path d="M0 7.05882C0 3.16034 3.16034 0 7.05882 0H32.9412C36.8397 0 40 3.16034 40 7.05882V32.9412C40 36.8397 36.8397 40 32.9412 40H7.05882C3.16034 40 0 36.8397 0 32.9412V7.05882Z" fill="#D8FBDB"/>
<path d="M23.75 21C23.75 20.8011 23.671 20.6103 23.5303 20.4697C23.3897 20.329 23.1989 20.25 23 20.25H17C16.8011 20.25 16.6103 20.329 16.4697 20.4697C16.329 20.6103 16.25 20.8011 16.25 21C16.25 21.1989 16.329 21.3897 16.4697 21.5303C16.6103 21.671 16.8011 21.75 17 21.75H23C23.1989 21.75 23.3897 21.671 23.5303 21.5303C23.671 21.3897 23.75 21.1989 23.75 21ZM23.75 25C23.75 24.8011 23.671 24.6103 23.5303 24.4697C23.3897 24.329 23.1989 24.25 23 24.25H17C16.8011 24.25 16.6103 24.329 16.4697 24.4697C16.329 24.6103 16.25 24.8011 16.25 25C16.25 25.1989 16.329 25.3897 16.4697 25.5303C16.6103 25.671 16.8011 25.75 17 25.75H23C23.1989 25.75 23.3897 25.671 23.5303 25.5303C23.671 25.3897 23.75 25.1989 23.75 25Z" fill="#77CA7E"/>
<path fill-rule="evenodd" clip-rule="evenodd" d="M15 10.25C14.2707 10.25 13.5712 10.5397 13.0555 11.0555C12.5397 11.5712 12.25 12.2707 12.25 13V27C12.25 27.7293 12.5397 28.4288 13.0555 28.9445C13.5712 29.4603 14.2707 29.75 15 29.75H25C25.7293 29.75 26.4288 29.4603 26.9445 28.9445C27.4603 28.4288 27.75 27.7293 27.75 27V15.968C27.75 15.587 27.626 15.217 27.396 14.913L24.398 10.945C24.2349 10.7291 24.0239 10.554 23.7817 10.4334C23.5395 10.3128 23.2726 10.25 23.002 10.25H15ZM13.75 13C13.75 12.31 14.31 11.75 15 11.75H22.25V16.147C22.25 16.561 22.586 16.897 23 16.897H26.25V27C26.25 27.69 25.69 28.25 25 28.25H15C14.31 28.25 13.75 27.69 13.75 27V13Z" fill="#77CA7E"/>
</svg>
