<svg width="40" height="40" viewBox="0 0 40 40" fill="none" xmlns="http://www.w3.org/2000/svg">
<path d="M0 7.05882C0 3.16034 3.16034 0 7.05882 0H32.9412C36.8397 0 40 3.16034 40 7.05882V32.9412C40 36.8397 36.8397 40 32.9412 40H7.05882C3.16034 40 0 36.8397 0 32.9412V7.05882Z" fill="#6D7FCE"/>
<path d="M19.9998 25.27L24.1498 27.78C24.9098 28.24 25.8398 27.56 25.6398 26.7L24.5398 21.98L28.2098 18.8C28.8798 18.22 28.5198 17.12 27.6398 17.05L22.8098 16.64L20.9198 12.18C20.5798 11.37 19.4198 11.37 19.0798 12.18L17.1898 16.63L12.3598 17.04C11.4798 17.11 11.1198 18.21 11.7898 18.79L15.4598 21.97L14.3598 26.69C14.1598 27.55 15.0898 28.23 15.8498 27.77L19.9998 25.27Z" fill="#C5CCEB"/>
</svg>
