<svg width="40" height="40" viewBox="0 0 40 40" fill="none" xmlns="http://www.w3.org/2000/svg">
<path d="M0 7.05882C0 3.16034 3.16034 0 7.05882 0H32.9412C36.8397 0 40 3.16034 40 7.05882V32.9412C40 36.8397 36.8397 40 32.9412 40H7.05882C3.16034 40 0 36.8397 0 32.9412V7.05882Z" fill="#A7B2E2"/>
<path d="M12.0002 27L11.0702 26.63C11.0038 26.7972 10.9837 26.9792 11.012 27.1569C11.0404 27.3346 11.1161 27.5013 11.2313 27.6395C11.3465 27.7777 11.4968 27.8823 11.6665 27.9422C11.8361 28.0022 12.0188 28.0152 12.1952 27.98L12.0002 27ZM16.7062 26.064L17.1802 25.183L16.8632 25.013L16.5112 25.083L16.7062 26.064ZM13.6242 22.917L14.5542 23.287L14.7172 22.873L14.5212 22.474L13.6242 22.917ZM27.0002 20C27.0002 23.246 24.1472 26 20.4702 26V28C25.1112 28 29.0002 24.486 29.0002 20H27.0002ZM13.9412 20C13.9412 16.754 16.7952 14 20.4712 14V12C15.8302 12 11.9402 15.514 11.9402 20H13.9412ZM20.4712 14C24.1472 14 27.0002 16.754 27.0002 20H29.0002C29.0002 15.514 25.1122 12 20.4712 12V14ZM20.4702 26C19.2652 26 18.1432 25.7 17.1802 25.183L16.2322 26.944C17.5355 27.6427 18.9914 28.0056 20.4702 28V26ZM12.1952 27.98L16.9012 27.044L16.5112 25.083L11.8052 26.019L12.1952 27.981V27.98ZM14.5212 22.474C14.1405 21.7048 13.9427 20.8583 13.9412 20H11.9402C11.9402 21.2 12.2222 22.338 12.7262 23.36L14.5212 22.474ZM12.6952 22.547L11.0702 26.631L12.9282 27.369L14.5522 23.286L12.6942 22.547H12.6952Z" fill="#6D7FCE"/>
<path d="M17 21C17.5523 21 18 20.5523 18 20C18 19.4477 17.5523 19 17 19C16.4477 19 16 19.4477 16 20C16 20.5523 16.4477 21 17 21Z" fill="#6D7FCE"/>
<path d="M20.5 21C21.0523 21 21.5 20.5523 21.5 20C21.5 19.4477 21.0523 19 20.5 19C19.9477 19 19.5 19.4477 19.5 20C19.5 20.5523 19.9477 21 20.5 21Z" fill="#6D7FCE"/>
<path d="M24 21C24.5523 21 25 20.5523 25 20C25 19.4477 24.5523 19 24 19C23.4477 19 23 19.4477 23 20C23 20.5523 23.4477 21 24 21Z" fill="#6D7FCE"/>
</svg>
