<svg width="40" height="40" viewBox="0 0 40 40" fill="none" xmlns="http://www.w3.org/2000/svg">
<path d="M0 4C0 1.79086 1.79086 0 4 0H36C38.2091 0 40 1.79086 40 4V36C40 38.2091 38.2091 40 36 40H4C1.79086 40 0 38.2091 0 36V4Z" fill="#FFE4AA"/>
<path d="M21 14L23 12C24 11 26 11 27 12L28 13C29 14 29 16 28 17L23 22C22 23 20 23 19 22M19 26L17 28C16 29 14 29 13 28L12 27C11 26 11 24 12 23L17 18C18 17 20 17 21 18" stroke="#CDAC66" stroke-width="2" stroke-linecap="round" stroke-linejoin="round"/>
</svg>
