<svg width="40" height="40" viewBox="0 0 40 40" fill="none" xmlns="http://www.w3.org/2000/svg">
<path d="M0 7.05882C0 3.16034 3.16034 0 7.05882 0H32.9412C36.8397 0 40 3.16034 40 7.05882V32.9412C40 36.8397 36.8397 40 32.9412 40H7.05882C3.16034 40 0 36.8397 0 32.9412V7.05882Z" fill="#FFEFCC"/>
<path d="M26.9906 29.4662L22.8527 25.3532L21.9122 28.2104C21.8077 28.5034 21.6092 28.6449 21.3166 28.6349C21.024 28.6248 20.8255 28.4728 20.721 28.179L17.8683 18.6656C17.7847 18.4354 17.837 18.2261 18.0251 18.0377C18.2132 17.8493 18.4222 17.797 18.652 17.8807L28.1505 20.7378C28.4431 20.8425 28.5948 21.0413 28.6056 21.3344C28.6165 21.6274 28.4752 21.8263 28.1818 21.9309L25.3292 22.8728L29.4671 27.0173C29.8224 27.3731 30 27.7813 30 28.2418C30 28.7023 29.8224 29.1104 29.4671 29.4662C29.1118 29.8221 28.6993 30 28.2295 30C27.7597 30 27.3467 29.8221 26.9906 29.4662ZM10 17.5353C10 15.4422 10.7315 13.663 12.1944 12.1978C13.6573 10.7326 15.4336 10 17.5235 10C19.1327 10 20.5697 10.445 21.8345 11.335C23.0993 12.225 24.0029 13.3813 24.5455 14.8038C24.6708 15.1387 24.6658 15.4631 24.5304 15.7771C24.395 16.0911 24.1597 16.3108 23.8244 16.4364C23.4892 16.562 23.1707 16.557 22.869 16.4214C22.5672 16.2857 22.3528 16.05 22.2257 15.7143C21.8704 14.7724 21.2644 14.0029 20.4075 13.406C19.5507 12.809 18.5893 12.5109 17.5235 12.5118C16.1442 12.5118 14.9634 13.0037 13.9812 13.9874C12.999 14.9712 12.5078 16.1538 12.5078 17.5353C12.5078 18.6028 12.8059 19.5657 13.4019 20.4239C13.9979 21.2821 14.7657 21.8891 15.7053 22.2449C16.0397 22.3705 16.275 22.5903 16.4113 22.9042C16.5475 23.2182 16.5526 23.5426 16.4263 23.8776C16.3001 24.2125 16.0807 24.4427 15.768 24.5683C15.4554 24.6939 15.1315 24.6939 14.7962 24.5683C13.3542 24.0241 12.1944 23.1081 11.3166 21.8204C10.4389 20.5327 10 19.1043 10 17.5353Z" fill="#E6C888"/>
</svg>
