<svg width="32" height="32" fill="none" xmlns="http://www.w3.org/2000/svg"><path d="M0 7.059A7.059 7.059 0 017.059 0H24.94A7.059 7.059 0 0132 7.059V24.94A7.059 7.059 0 0124.941 32H7.06A7.059 7.059 0 010 24.941V7.06z" fill="#A7B2E2"/><path d="M9.6 21.6l-.744-.296a.8.8 0 00.9 1.08L9.6 21.6zm3.765-.749l.38-.705-.254-.136-.282.056.156.785zM10.9 18.334l.744.296.13-.332-.157-.319-.717.355zM21.6 16c0 2.597-2.282 4.8-5.224 4.8v1.6c3.713 0 6.824-2.811 6.824-6.4h-1.6zm-10.447 0c0-2.597 2.283-4.8 5.224-4.8V9.6c-3.713 0-6.825 2.811-6.825 6.4h1.601zm5.224-4.8c2.941 0 5.223 2.203 5.223 4.8h1.6c0-3.589-3.11-6.4-6.823-6.4v1.6zm0 9.6a5.55 5.55 0 01-2.633-.654l-.758 1.41a7.116 7.116 0 003.39.844v-1.6zm-6.62 1.584l3.764-.749-.312-1.569-3.765.75.312 1.569v-.001zm1.86-4.405A4.479 4.479 0 0111.153 16h-1.6c0 .96.225 1.87.628 2.688l1.436-.709zm-1.46.059l-1.3 3.267 1.486.59 1.299-3.266-1.486-.591zM13.6 16.8a.8.8 0 100-1.6.8.8 0 000 1.6zm2.8 0a.8.8 0 100-1.6.8.8 0 000 1.6zm2.8 0a.8.8 0 100-1.6.8.8 0 000 1.6z" fill="#6D7FCE"/></svg>