<svg width="92" height="92" fill="none" xmlns="http://www.w3.org/2000/svg"><rect width="92" height="92" rx="46" fill="#845186"/><path d="M36.196 46.504h6.39c-.11 6.363-1.362 7.412-5.273 9.728a.951.951 0 00-.327 1.307c.273.45.845.6 1.308.328 4.605-2.725 6.213-4.387 6.213-12.317v-7.343c0-2.33-1.894-4.21-4.21-4.21H36.21c-2.398 0-4.21 1.812-4.21 4.21v4.087c-.014 2.398 1.798 4.21 4.196 4.21zm15.494 0h6.389c-.11 6.363-1.362 7.412-5.273 9.728a.951.951 0 00-.326 1.307.95.95 0 001.307.328C58.392 55.142 60 53.48 60 45.55v-7.343c0-2.33-1.894-4.21-4.21-4.21h-4.087c-2.412 0-4.224 1.812-4.224 4.21v4.087c0 2.398 1.813 4.21 4.21 4.21z" fill="#fff"/></svg>