<svg width="24" height="24" fill="none" xmlns="http://www.w3.org/2000/svg"><path d="M12 12c-1.375 0-2.552-.49-3.531-1.469C7.489 9.552 7 8.375 7 7s.49-2.552 1.469-3.531C9.448 2.489 10.625 2 12 2s2.552.49 3.531 1.469C16.511 4.448 17 5.625 17 7s-.49 2.552-1.469 3.531C14.552 11.511 13.375 12 12 12zM2 19.5v-1c0-.708.183-1.36.547-1.953A3.662 3.662 0 014 15.188a18.535 18.535 0 013.938-1.452 17.262 17.262 0 018.125 0c1.333.324 2.645.808 3.937 1.453a3.648 3.648 0 011.454 1.36c.365.594.547 1.245.546 1.952v1a2.41 2.41 0 01-.734 1.766 2.4 2.4 0 01-1.766.734h-15a2.406 2.406 0 01-1.765-.734A2.412 2.412 0 012 19.5zm2.5 0h15v-1a1.209 1.209 0 00-.625-1.063 16.265 16.265 0 00-3.406-1.265A14.564 14.564 0 0012 15.75c-1.167 0-2.323.14-3.469.422a16.459 16.459 0 00-3.406 1.265c-.188.105-.339.25-.454.438a1.163 1.163 0 00-.171.625v1zm7.5-10a2.41 2.41 0 001.766-.734A2.4 2.4 0 0014.5 7a2.41 2.41 0 00-.734-1.765A2.416 2.416 0 0012 4.5a2.386 2.386 0 00-1.765.735A2.432 2.432 0 009.5 7a2.397 2.397 0 00.735 1.766c.492.493 1.08.737 1.765.734z" fill="#323137"/></svg>