<svg width="71" height="11" fill="none" xmlns="http://www.w3.org/2000/svg"><path fill-rule="evenodd" clip-rule="evenodd" d="M5.074 9.207c0-.881-.316-1.03-.947-1.323-.763-.355-1.808-.844-1.613-2.697l.56-4.844H1.306a.868.868 0 00-.86.869v8.908c0 .478.384.866.86.87h3.77V9.207zM10.318.343h-1.79l.58 4.841c.18 1.715-.66 2.255-1.613 2.7-.63.294-.947.441-.947 1.322v1.784h3.77a.868.868 0 00.86-.87V1.212a.868.868 0 00-.86-.87zm-2.28 0l.587 4.897c.147 1.394-.46 1.79-1.333 2.197-.66.308-1.229.574-1.229 1.77v1.782H5.56V9.207c0-1.195-.57-1.461-1.23-1.769-.901-.42-1.48-.8-1.333-2.195l.566-4.9H8.04zM5.813 7.165H5.81c-1.048 0-1.8-.403-2.074-.829a1.736 1.736 0 01-.17-1.163l.045-.33H8.01l.044.33c.08.395.02.806-.169 1.163-.274.426-1.026.829-2.074.829z" fill="#B11C45"/><path fill-rule="evenodd" clip-rule="evenodd" d="M56.583.343H55.04v1.43h1.544V.342zm7.61 4.013c0-.907-.08-2.016-2.02-2.016a3.427 3.427 0 00-2.133.877v-.745h-2.453v.787h.944v4.536h-1.948V2.472h-4.391v.78h.787l-1.148 3.643-1.572-4.404h-1.02l-1.561 4.404-.944-3.642h.818v-.781h-3.025v.78h.652l1.515 5.302h1.279l1.463-3.786 1.428 3.786h1.239l1.888-5.293h1.048v4.534h-1.033v.759h6.976v-.759h-.91v-3.91a4.23 4.23 0 011.578-.42c.942 0 .998.523.998 1.336v2.994h-.658v.758h3.155v-.758h-.953V4.353l.001.003zm6.361.88c0-1.423-.74-2.897-2.653-2.897-1.793 0-3.031 1.27-3.031 3.265 0 2.027 1.421 3.07 3.278 3.07.86 0 1.682-.346 2.279-.96l-.405-.758a2.882 2.882 0 01-1.59.536c-1.086 0-1.887-.415-1.952-1.802h4.074v-.454zm-2.79-2.05c-.885 0-1.282.78-1.318 1.76h2.472c0-1.032-.209-1.76-1.153-1.76z" fill="#9D2446"/><path fill-rule="evenodd" clip-rule="evenodd" d="M44.826 5.922v-.596c0-2.015-1.154-3.026-2.897-3.026h-.031c-2.67.02-2.939 2.338-2.939 3.067 0 2.428 1.268 3.279 2.939 3.319.051 0 .093.01.143.01a2.685 2.685 0 002.722-1.954h-1.67a1.105 1.105 0 01-1.052.668h-.143c-1.176-.08-1.269-1.042-1.269-1.488h4.197zm-2.928-2.317h.01c.515 0 1.165.304 1.258 1.276H40.63c.093-.79.505-1.276 1.269-1.276zM38.608.343h-1.63v8.205h1.63V.343zM34.03 2.299a3.314 3.314 0 00-.474.03 1.989 1.989 0 00-1.373 1.003h-.02v-.86h-1.567v8.518h1.629V7.744l.031.01c.258.493.744.83 1.3.9.146.026.295.04.444.041 1.834 0 2.618-1.588 2.618-3.25 0-2.105-1.216-3.147-2.589-3.147zm-.474 5.082h-.042c-1.052 0-1.351-1.124-1.351-1.843 0-.962.361-1.863 1.393-1.863 1.113 0 1.392.982 1.392 1.955 0 .89-.392 1.72-1.392 1.75zM21.295 2.47v6.074h1.63V4.799c0-.648.248-1.164 1.01-1.164.826 0 .98.73.98 1.246v3.664h1.618V4.889c0-.719.3-1.255 1.124-1.255.465 0 .877.304.877 1.204v3.707h1.619V4.324c0-1.327-.928-2.023-2.147-2.023a1.89 1.89 0 00-1.639.962 2.005 2.005 0 00-1.762-.962 2.003 2.003 0 00-1.714 1.042h-.028v-.871h-1.568zm-.608 1.842c-.124-1.72-1.568-2.014-2.775-2.014-1.927 0-2.494 1.144-2.494 2.034 0 2.278 3.835 1.509 3.835 2.52 0 .223-.195.639-1.041.639-1.02 0-1.34-.385-1.34-.901h-1.67c0 1.618 1.566 2.104 2.969 2.104.97 0 2.701-.313 2.701-2.085 0-2.246-3.867-1.538-3.867-2.5 0-.263.114-.596 1.002-.596.887 0 1.031.414 1.092.8h1.589-.001z" fill="#323137"/><path fill-rule="evenodd" clip-rule="evenodd" d="M22.855.343h-1.56v1.46h1.56V.344z" fill="#A91F48"/></svg>