<svg width="53" height="52" fill="none" xmlns="http://www.w3.org/2000/svg"><path d="M.667 8a8 8 0 018-8h36a8 8 0 018 8v36a8 8 0 01-8 8h-36a8 8 0 01-8-8V8z" fill="red"/><g clip-path="url(#clip0_1205_42932)"><path d="M40.253 19.135a3.59 3.59 0 00-2.514-2.53c-2.208-.597-11.072-.597-11.072-.597s-8.864 0-11.087.597c-1.225.322-2.176 1.289-2.514 2.53-.58 2.224-.58 6.865-.58 6.865s0 4.641.596 6.865a3.59 3.59 0 002.514 2.53c2.207.597 11.071.597 11.071.597s8.864 0 11.088-.596c1.225-.323 2.175-1.29 2.514-2.53.58-2.225.58-6.866.58-6.866s0-4.641-.596-6.865z" fill="#fff"/><path d="M23.769 30.222L31.182 26l-7.413-4.223v8.445z" fill="red"/></g><defs><clipPath id="clip0_1205_42932"><path fill="#fff" transform="translate(12.485 15.6)" d="M0 0h28.364v20.8H0z"/></clipPath></defs></svg>