<svg width="40" height="40" fill="none" xmlns="http://www.w3.org/2000/svg"><path d="M17.367 22.366H22.1l.533-4.734H17.9l-.533 4.734z" fill="#845186"/><path d="M26.983 3.333H13.017c-6.067 0-9.684 3.617-9.684 9.684v13.95c0 6.083 3.617 9.7 9.684 9.7h13.95c6.066 0 9.683-3.617 9.683-9.684V13.017c.017-6.067-3.6-9.684-9.667-9.684zm4.384 14.3h-6.284l-.533 4.75h5.617c.666 0 1.216.55 1.216 1.217s-.55 1.217-1.216 1.217h-5.884l-.683 6.1A1.225 1.225 0 0122.383 32h-.133c-.667-.067-1.15-.683-1.083-1.35l.65-5.833h-4.734l-.683 6.1A1.225 1.225 0 0115.183 32h-.133c-.667-.067-1.15-.683-1.083-1.35l.65-5.833H8.633c-.666 0-1.216-.55-1.216-1.217s.55-1.217 1.216-1.217h6.284l.533-4.75H9.833c-.666 0-1.216-.55-1.216-1.216 0-.667.55-1.217 1.216-1.217h5.884l.683-6.1c.067-.667.683-1.15 1.35-1.083.667.066 1.15.683 1.083 1.35l-.65 5.833h4.734l.683-6.1a1.241 1.241 0 011.35-1.083c.667.066 1.15.683 1.083 1.35l-.65 5.833H31.4c.667 0 1.217.55 1.217 1.217 0 .666-.584 1.216-1.25 1.216z" fill="#845186"/></svg>