<svg width="24" height="24" viewBox="0 0 24 24" fill="none" xmlns="http://www.w3.org/2000/svg">
<path d="M12 2C10.5413 2 9.14236 2.57946 8.11091 3.61091C7.07946 4.64236 6.5 6.04131 6.5 7.5C6.5 8.95869 7.07946 10.3576 8.11091 11.3891C9.14236 12.4205 10.5413 13 12 13C13.4587 13 14.8576 12.4205 15.8891 11.3891C16.9205 10.3576 17.5 8.95869 17.5 7.5C17.5 6.04131 16.9205 4.64236 15.8891 3.61091C14.8576 2.57946 13.4587 2 12 2ZM8 14C6.67392 14 5.40215 14.5268 4.46447 15.4645C3.52678 16.4021 3 17.6739 3 19V22H21V19C21 17.6739 20.4732 16.4021 19.5355 15.4645C18.5979 14.5268 17.3261 14 16 14H14.618L12 19.236L9.382 14H8Z" fill="#323137"/>
</svg>
