<svg width="24" height="25" viewBox="0 0 24 25" fill="none" xmlns="http://www.w3.org/2000/svg">
<path d="M20 8.32617H14.388L15.511 4.95917C15.713 4.35117 15.611 3.67717 15.236 3.15717C14.861 2.63717 14.253 2.32617 13.612 2.32617H12C11.703 2.32617 11.422 2.45817 11.231 2.68617L6.531 8.32617H4C2.897 8.32617 2 9.22317 2 10.3262V19.3262C2 20.4292 2.897 21.3262 4 21.3262H17.307C17.7139 21.3248 18.1108 21.2 18.4452 20.9682C18.7797 20.7365 19.0359 20.4087 19.18 20.0282L21.937 12.6772C21.9789 12.5649 22.0002 12.446 22 12.3262V10.3262C22 9.22317 21.103 8.32617 20 8.32617ZM4 10.3262H6V19.3262H4V10.3262ZM20 12.1452L17.307 19.3262H8V9.68817L12.468 4.32617H13.614L12.052 9.00917C12.0013 9.15949 11.9871 9.31973 12.0107 9.4766C12.0343 9.63347 12.095 9.78246 12.1877 9.91121C12.2803 10.04 12.4024 10.1448 12.5436 10.2169C12.6849 10.2891 12.8414 10.3265 13 10.3262H20V12.1452Z" fill="white"/>
</svg>
