<svg width="32" height="32" viewBox="0 0 32 32" fill="none" xmlns="http://www.w3.org/2000/svg">
<path d="M0 7.05882C0 3.16034 3.16034 0 7.05882 0H24.9412C28.8397 0 32 3.16034 32 7.05882V24.9412C32 28.8397 28.8397 32 24.9412 32H7.05882C3.16034 32 0 28.8397 0 24.9412V7.05882Z" fill="#A7B2E2"/>
<path d="M9.60037 21.6L8.85637 21.304C8.80321 21.4378 8.78712 21.5834 8.8098 21.7255C8.83248 21.8677 8.89308 22.001 8.98523 22.1116C9.07737 22.2222 9.19764 22.3059 9.33336 22.3538C9.46908 22.4017 9.61522 22.4122 9.75637 22.384L9.60037 21.6ZM13.3652 20.8512L13.7444 20.1464L13.4908 20.0104L13.2092 20.0664L13.3652 20.8512ZM10.8996 18.3336L11.6436 18.6296L11.774 18.2984L11.6172 17.9792L10.8996 18.3336ZM21.6004 16C21.6004 18.5968 19.318 20.8 16.3764 20.8V22.4C20.0892 22.4 23.2004 19.5888 23.2004 16H21.6004ZM11.1532 16C11.1532 13.4032 13.4364 11.2 16.3772 11.2V9.6C12.6644 9.6 9.55237 12.4112 9.55237 16H11.1532ZM16.3772 11.2C19.318 11.2 21.6004 13.4032 21.6004 16H23.2004C23.2004 12.4112 20.09 9.6 16.3772 9.6V11.2ZM16.3764 20.8C15.4124 20.8 14.5148 20.56 13.7444 20.1464L12.986 21.5552C14.0286 22.1142 15.1933 22.4045 16.3764 22.4V20.8ZM9.75637 22.384L13.5212 21.6352L13.2092 20.0664L9.44437 20.8152L9.75637 22.3848V22.384ZM11.6172 17.9792C11.3126 17.3638 11.1544 16.6866 11.1532 16H9.55237C9.55237 16.96 9.77797 17.8704 10.1812 18.688L11.6172 17.9792ZM10.1564 18.0376L8.85637 21.3048L10.3428 21.8952L11.642 18.6288L10.1556 18.0376H10.1564Z" fill="#6D7FCE"/>
<path d="M13.6008 16.8C14.0426 16.8 14.4008 16.4418 14.4008 16C14.4008 15.5582 14.0426 15.2 13.6008 15.2C13.159 15.2 12.8008 15.5582 12.8008 16C12.8008 16.4418 13.159 16.8 13.6008 16.8Z" fill="#6D7FCE"/>
<path d="M16.4006 16.8C16.8424 16.8 17.2006 16.4418 17.2006 16C17.2006 15.5582 16.8424 15.2 16.4006 15.2C15.9588 15.2 15.6006 15.5582 15.6006 16C15.6006 16.4418 15.9588 16.8 16.4006 16.8Z" fill="#6D7FCE"/>
<path d="M19.2004 16.8C19.6422 16.8 20.0004 16.4418 20.0004 16C20.0004 15.5582 19.6422 15.2 19.2004 15.2C18.7586 15.2 18.4004 15.5582 18.4004 16C18.4004 16.4418 18.7586 16.8 19.2004 16.8Z" fill="#6D7FCE"/>
</svg>
