<svg width="32" height="32" viewBox="0 0 32 32" fill="none" xmlns="http://www.w3.org/2000/svg">
<path d="M0 7.05882C0 3.16034 3.16034 0 7.05882 0H24.9412C28.8397 0 32 3.16034 32 7.05882V24.9412C32 28.8397 28.8397 32 24.9412 32H7.05882C3.16034 32 0 28.8397 0 24.9412V7.05882Z" fill="#CEB9CF"/>
<path d="M23.8376 22.5632L20.2759 19C21.3438 17.6084 21.8424 15.8626 21.6705 14.1169C21.4986 12.3711 20.6691 10.7561 19.3503 9.59949C18.0314 8.44286 16.322 7.83119 14.5688 7.88857C12.8155 7.94595 11.1497 8.66808 9.90934 9.90847C8.66895 11.1489 7.94682 12.8146 7.88944 14.5679C7.83206 16.3211 8.44373 18.0305 9.60037 19.3494C10.757 20.6682 12.372 21.4977 14.1177 21.6696C15.8635 21.8415 17.6092 21.3429 19.0009 20.275L22.5656 23.8405C22.6493 23.9242 22.7487 23.9906 22.8581 24.0359C22.9675 24.0812 23.0847 24.1046 23.2031 24.1046C23.3215 24.1046 23.4388 24.0812 23.5481 24.0359C23.6575 23.9906 23.7569 23.9242 23.8406 23.8405C23.9243 23.7568 23.9908 23.6574 24.0361 23.548C24.0814 23.4386 24.1047 23.3214 24.1047 23.203C24.1047 23.0846 24.0814 22.9674 24.0361 22.858C23.9908 22.7486 23.9243 22.6492 23.8406 22.5655L23.8376 22.5632ZM9.70087 14.8C9.70087 13.7913 9.99998 12.8053 10.5604 11.9666C11.1208 11.1279 11.9173 10.4742 12.8492 10.0882C13.7811 9.70221 14.8065 9.60121 15.7958 9.798C16.7851 9.99478 17.6939 10.4805 18.4071 11.1938C19.1204 11.907 19.6061 12.8157 19.8029 13.805C19.9997 14.7943 19.8987 15.8198 19.5127 16.7517C19.1267 17.6836 18.473 18.4801 17.6343 19.0405C16.7956 19.6009 15.8096 19.9 14.8009 19.9C13.4487 19.8986 12.1523 19.3608 11.1962 18.4047C10.24 17.4486 9.70226 16.1522 9.70087 14.8Z" fill="#9D749E"/>
</svg>
