<svg width="20" height="21" viewBox="0 0 20 21" fill="none" xmlns="http://www.w3.org/2000/svg">
<g opacity="0.6">
<path d="M5.53125 8.96233L8.65679 3.96644C8.77792 3.76898 8.94813 3.60625 9.15084 3.49412C9.35354 3.38198 9.58184 3.32426 9.81348 3.32657C9.99592 3.31999 10.1778 3.35004 10.3485 3.41496C10.5191 3.47987 10.675 3.57833 10.8069 3.70452C10.9388 3.83071 11.0441 3.98206 11.1165 4.14963C11.189 4.3172 11.2271 4.49759 11.2286 4.68014V8.26094H16.6306C16.8302 8.26741 17.0262 8.31606 17.2057 8.40369C17.3851 8.49132 17.544 8.61595 17.6719 8.76937C17.7997 8.92279 17.8936 9.10154 17.9475 9.29386C18.0013 9.48618 18.0138 9.68772 17.9842 9.88522L16.9998 16.2347C16.9578 16.574 16.7933 16.8863 16.5372 17.1129C16.2812 17.3395 15.9512 17.4648 15.6093 17.4652H7.53701C7.15274 17.4667 6.77346 17.3782 6.42953 17.2068L5.54356 16.7638" stroke="#323137" stroke-width="1.5" stroke-linecap="round" stroke-linejoin="round"/>
<path d="M5.53125 8.9624V16.727" stroke="#323137" stroke-width="1.5" stroke-linecap="round" stroke-linejoin="round"/>
<path d="M2.61526 8.9624H5.53161V16.727H2.61526C2.45209 16.727 2.29559 16.6621 2.18021 16.5467C2.06482 16.4314 2 16.2749 2 16.1117V9.57766C2 9.41448 2.06482 9.25799 2.18021 9.14261C2.29559 9.02722 2.45209 8.9624 2.61526 8.9624Z" stroke="#323137" stroke-width="1.5" stroke-linecap="round" stroke-linejoin="round"/>
</g>
</svg>
