<svg width="92" height="92" viewBox="0 0 92 92" fill="none" xmlns="http://www.w3.org/2000/svg">
<rect width="92" height="92" rx="46" fill="#845186"/>
<path d="M36.1963 46.5041H42.5859C42.4769 52.8665 41.2235 53.9155 37.3134 56.2316C36.8638 56.5041 36.714 57.0763 36.9864 57.5395C37.2589 57.9891 37.8311 58.139 38.2943 57.8665C42.8992 55.1417 44.5069 53.4796 44.5069 45.5504V38.2071C44.5069 35.8774 42.6131 33.9973 40.2971 33.9973H36.2099C33.8121 33.9973 32.0001 35.8093 32.0001 38.2071V42.2943C31.9865 44.6921 33.7984 46.5041 36.1963 46.5041Z" fill="white"/>
<path d="M51.6893 46.5041H58.0789C57.9699 52.8665 56.7165 53.9155 52.8065 56.2316C52.3569 56.5041 52.207 57.0763 52.4795 57.5395C52.752 57.9891 53.3242 58.139 53.7874 57.8665C58.3923 55.1417 59.9999 53.4796 59.9999 45.5504V38.2071C59.9999 35.8774 58.1062 33.9973 55.7901 33.9973H51.7029C49.2915 33.9973 47.4795 35.8093 47.4795 38.2071V42.2943C47.4795 44.6921 49.2915 46.5041 51.6893 46.5041Z" fill="white"/>
</svg>
