<svg width="24" height="24" viewBox="0 0 24 24" fill="none" xmlns="http://www.w3.org/2000/svg">
<path d="M12 12C10.625 12 9.44792 11.5104 8.46875 10.5312C7.48958 9.55208 7 8.375 7 7C7 5.625 7.48958 4.44792 8.46875 3.46875C9.44792 2.48958 10.625 2 12 2C13.375 2 14.5521 2.48958 15.5312 3.46875C16.5104 4.44792 17 5.625 17 7C17 8.375 16.5104 9.55208 15.5312 10.5312C14.5521 11.5104 13.375 12 12 12ZM2 19.5V18.5C2 17.7917 2.1825 17.1408 2.5475 16.5475C2.9125 15.9542 3.39667 15.5008 4 15.1875C5.29167 14.5417 6.60417 14.0575 7.9375 13.735C9.27083 13.4125 10.625 13.2508 12 13.25C13.375 13.2492 14.7292 13.4108 16.0625 13.735C17.3958 14.0592 18.7083 14.5433 20 15.1875C20.6042 15.5 21.0887 15.9533 21.4537 16.5475C21.8187 17.1417 22.0008 17.7925 22 18.5V19.5C22 20.1875 21.7554 20.7762 21.2662 21.2662C20.7771 21.7562 20.1883 22.0008 19.5 22H4.5C3.8125 22 3.22417 21.7554 2.735 21.2662C2.24583 20.7771 2.00083 20.1883 2 19.5ZM4.5 19.5H19.5V18.5C19.5 18.2708 19.4429 18.0625 19.3287 17.875C19.2146 17.6875 19.0633 17.5417 18.875 17.4375C17.75 16.875 16.6146 16.4533 15.4687 16.1725C14.3229 15.8917 13.1667 15.7508 12 15.75C10.8333 15.7492 9.67708 15.89 8.53125 16.1725C7.38542 16.455 6.25 16.8767 5.125 17.4375C4.9375 17.5417 4.78625 17.6875 4.67125 17.875C4.55625 18.0625 4.49917 18.2708 4.5 18.5V19.5ZM12 9.5C12.6875 9.5 13.2762 9.25542 13.7662 8.76625C14.2562 8.27708 14.5008 7.68833 14.5 7C14.4992 6.31167 14.2546 5.72333 13.7662 5.235C13.2779 4.74667 12.6892 4.50167 12 4.5C11.3108 4.49833 10.7225 4.74333 10.235 5.235C9.7475 5.72667 9.5025 6.315 9.5 7C9.4975 7.685 9.7425 8.27375 10.235 8.76625C10.7275 9.25875 11.3158 9.50333 12 9.5Z" fill="#323137"/>
</svg>
