<svg width="71" height="11" viewBox="0 0 71 11" fill="none" xmlns="http://www.w3.org/2000/svg">
<path fill-rule="evenodd" clip-rule="evenodd" d="M5.0743 9.20683C5.0743 8.32561 4.75788 8.17762 4.12721 7.88377C3.36417 7.52887 2.31942 7.03982 2.51407 5.18654L3.07467 0.342529H1.3051C0.829105 0.346429 0.445397 0.734692 0.445801 1.21203V10.12C0.445398 10.5975 0.829321 10.9858 1.30546 10.9895H5.0743V9.20683ZM10.3179 0.342529H8.52777L9.10746 5.18441C9.28726 6.89857 8.44742 7.43872 7.49542 7.88341C6.8644 8.17762 6.54799 8.32526 6.54799 9.20647V10.9895H10.3179C10.7941 10.9858 11.1781 10.5972 11.1775 10.1196V1.21203C11.1779 0.734555 10.794 0.346235 10.3179 0.342529ZM8.03867 0.342529L8.62543 5.24013C8.77161 6.63381 8.16464 7.03024 7.29192 7.4373L7.29152 7.43748C6.63233 7.74544 6.0631 8.0114 6.0631 9.20683V10.9895H5.55951V9.20647C5.55951 8.01082 4.99006 7.745 4.33 7.43695C3.42894 7.01675 2.84993 6.63665 2.99681 5.24226L3.56307 0.342529H8.03867ZM5.8122 7.16474H5.80902C4.76107 7.16474 4.00865 6.76158 3.73543 6.33605C3.54546 5.98005 3.48549 5.56867 3.5659 5.17305L3.60979 4.84335H8.0114L8.05495 5.1727C8.13495 5.56828 8.07529 5.97943 7.8861 6.3357C7.61218 6.76158 6.86015 7.16474 5.8122 7.16474Z" fill="#B11C45"/>
<path fill-rule="evenodd" clip-rule="evenodd" d="M56.5831 0.342529H55.0395V1.77242H56.5831V0.342529ZM64.1932 4.35572C64.1932 3.44896 64.1136 2.3399 62.173 2.3399C61.3811 2.37749 60.6272 2.68742 60.0405 3.2165V2.47192H57.5865V3.25944H58.5314V7.7954H56.5831V2.47192H52.192V3.2527H52.979L51.8307 6.89537L50.2594 2.49073H49.239L47.6776 6.89537L46.7345 3.2527H47.5524V2.47192H44.5269V3.2527H45.1789L46.6938 8.55417H47.9727L49.4362 4.76776L50.864 8.55417H52.1026L53.9914 3.26121H55.0386V7.7954H54.0061V8.55381H60.9818V7.7954H60.0727V3.88477C60.5659 3.64397 61.1016 3.50145 61.6498 3.46528C62.5915 3.46528 62.6483 3.98805 62.6483 4.80076V7.7954H61.9901V8.55275H65.1452V7.7954H64.1919V4.35288L64.1932 4.35572ZM70.554 5.23551C70.554 3.81273 69.8149 2.33919 67.9015 2.33919C66.1079 2.33919 64.8698 3.60866 64.8698 5.60425C64.8698 7.63108 66.2913 8.67484 68.1483 8.67484C69.0077 8.67484 69.8301 8.32788 70.4266 7.71377L70.0219 6.95642C69.5578 7.28838 69.0037 7.47492 68.4318 7.49196C67.3461 7.49196 66.5448 7.07744 66.4804 5.69049H70.554V5.23551ZM67.7647 3.18557C66.8788 3.18557 66.4822 3.96599 66.4464 4.94587H68.9183C68.9183 3.91418 68.709 3.18557 67.7647 3.18557Z" fill="#9D2446"/>
<path fill-rule="evenodd" clip-rule="evenodd" d="M44.8263 5.92233V5.32575C44.8263 3.31062 43.6716 2.29952 41.9287 2.29952H41.898C39.2272 2.31939 38.9593 4.63794 38.9593 5.36656C38.9593 7.79513 40.2274 8.64582 41.898 8.68592C41.9491 8.68592 41.9906 8.69657 42.0411 8.69657C43.2978 8.75788 44.429 7.94587 44.7634 6.7425H43.0931C42.9151 7.15929 42.4971 7.42462 42.0411 7.41042H41.898C40.7221 7.32986 40.6291 6.36844 40.6291 5.92233H44.8263ZM41.8978 3.60504H41.9081C42.4233 3.60504 43.0732 3.90884 43.1662 4.88088H40.6289C40.7219 4.09054 41.134 3.60504 41.8978 3.60504ZM38.6083 0.342529H36.9789V8.54849H38.6083V0.342529ZM34.0295 2.29946C33.8711 2.29818 33.7129 2.30827 33.5559 2.32963C32.97 2.44243 32.4662 2.8102 32.1833 3.33151H32.1629V2.47194H30.5961V10.9895H32.2248V7.74504L32.2563 7.75427C32.5145 8.24771 33 8.58425 33.5559 8.655C33.7024 8.68051 33.8508 8.69426 33.9995 8.69617C35.8342 8.69617 36.6184 7.10765 36.6184 5.44672C36.6184 3.34144 35.4021 2.29946 34.0295 2.29946ZM33.5559 7.38052H33.5136C32.4623 7.38052 32.1629 6.25656 32.1629 5.53824C32.1629 4.57648 32.5242 3.67539 33.5559 3.67539C34.6691 3.67539 34.9478 4.65739 34.9478 5.62981C34.9481 6.52025 34.5564 7.34929 33.5562 7.38052H33.5559ZM21.2949 2.47188V8.54454H22.9247V4.79894C22.9247 4.15126 23.1726 3.63524 23.9353 3.63524C24.7609 3.63524 24.9147 4.3642 24.9147 4.88093V8.54454H26.5334V4.88909C26.5334 4.17007 26.8328 3.63382 27.6574 3.63382C28.1224 3.63382 28.5342 3.93761 28.5342 4.83763V8.54454H30.1525V4.32374C30.1525 2.99748 29.2249 2.30082 28.0062 2.30082C27.3249 2.30455 26.6986 2.6721 26.3671 3.26259C25.9964 2.65163 25.324 2.28475 24.6055 2.3014C23.8869 2.31806 23.2326 2.71569 22.8911 3.34316H22.8628V2.47188H21.2949ZM20.6866 4.31308C20.5629 2.59324 19.1195 2.29903 17.9121 2.29903C15.9851 2.29903 15.4177 3.44251 15.4177 4.33331C15.4177 6.6107 19.2532 5.84164 19.2532 6.8531C19.2532 7.07633 19.0579 7.49191 18.2119 7.49191C17.1913 7.49191 16.8712 7.10685 16.8712 6.59083H15.2017C15.2017 8.20916 16.7681 8.69537 18.1708 8.69537C19.1402 8.69537 20.8723 8.38164 20.8723 6.61035C20.8723 4.36418 17.0049 5.07186 17.0049 4.11008C17.0049 3.8471 17.1187 3.51385 18.0066 3.51385C18.8944 3.51385 19.0383 3.92837 19.0994 4.31308H20.6877H20.6866Z" fill="#323137"/>
<path fill-rule="evenodd" clip-rule="evenodd" d="M22.8555 0.342529H21.2944V1.80365H22.8555V0.342529Z" fill="#A91F48"/>
</svg>
