<svg width="17" height="16" viewBox="0 0 17 16" fill="none" xmlns="http://www.w3.org/2000/svg">
<path d="M12.0624 7.46667C11.9091 7.26667 11.7224 7.09333 11.5491 6.92C11.1024 6.52 10.5958 6.23333 10.1691 5.81333C9.17576 4.84 8.95576 3.23333 9.5891 2C8.95576 2.15333 8.40243 2.5 7.9291 2.88C6.20243 4.26667 5.52243 6.71333 6.33576 8.81333C6.36243 8.88 6.3891 8.94667 6.3891 9.03333C6.3891 9.18 6.2891 9.31333 6.15576 9.36667C6.00243 9.43333 5.84243 9.39333 5.71576 9.28667C5.67793 9.25497 5.64628 9.21655 5.62243 9.17333C4.8691 8.22 4.7491 6.85333 5.25576 5.76C4.14243 6.66667 3.53576 8.2 3.62243 9.64667C3.66243 9.98 3.70243 10.3133 3.81576 10.6467C3.9091 11.0467 4.0891 11.4467 4.2891 11.8C5.0091 12.9533 6.25576 13.78 7.59576 13.9467C9.02243 14.1267 10.5491 13.8667 11.6424 12.88C12.8624 11.7733 13.2891 10 12.6624 8.48L12.5758 8.30667C12.4358 8 12.0624 7.46667 12.0624 7.46667ZM9.95576 11.6667C9.7691 11.8267 9.46243 12 9.22243 12.0667C8.47576 12.3333 7.7291 11.96 7.2891 11.52C8.08243 11.3333 8.55576 10.7467 8.69576 10.1533C8.80909 9.62 8.59576 9.18 8.5091 8.66667C8.4291 8.17333 8.44243 7.75333 8.62243 7.29333C8.7491 7.54667 8.88243 7.8 9.04243 8C9.55576 8.66667 10.3624 8.96 10.5358 9.86667C10.5624 9.96 10.5758 10.0533 10.5758 10.1533C10.5958 10.7 10.3558 11.3 9.95576 11.6667Z" fill="#323137"/>
</svg>
