<svg width="20" height="21" viewBox="0 0 20 21" fill="none" xmlns="http://www.w3.org/2000/svg">
<path d="M16.6666 7.16675H11.99L12.9258 4.36091C13.0941 3.85425 13.0091 3.29258 12.6966 2.85925C12.3841 2.42591 11.8775 2.16675 11.3433 2.16675H9.99996C9.75246 2.16675 9.51829 2.27675 9.35913 2.46675L5.44246 7.16675H3.33329C2.41413 7.16675 1.66663 7.91425 1.66663 8.83341V16.3334C1.66663 17.2526 2.41413 18.0001 3.33329 18.0001H14.4225C14.7615 17.999 15.0923 17.8949 15.371 17.7018C15.6497 17.5087 15.8632 17.2355 15.9833 16.9184L18.2808 10.7926C18.3157 10.699 18.3335 10.5999 18.3333 10.5001V8.83341C18.3333 7.91425 17.5858 7.16675 16.6666 7.16675ZM3.33329 8.83341H4.99996V16.3334H3.33329V8.83341ZM16.6666 10.3492L14.4225 16.3334H6.66663V8.30175L10.39 3.83341H11.345L10.0433 7.73591C10.001 7.86118 9.98925 7.99471 10.0089 8.12544C10.0286 8.25617 10.0791 8.38032 10.1563 8.48762C10.2336 8.59491 10.3353 8.68224 10.453 8.74238C10.5707 8.80252 10.7011 8.83373 10.8333 8.83341H16.6666V10.3492Z" fill="#323137"/>
</svg>
