<svg width="56" height="56" viewBox="0 0 56 56" fill="none" xmlns="http://www.w3.org/2000/svg">
<rect width="56" height="56" rx="28" fill="#323137"/>
<path d="M20.6209 17.7917C20.6205 18.5652 20.3129 19.3069 19.7656 19.8536C19.2184 20.4003 18.4764 20.7073 17.7028 20.7069C16.9293 20.7065 16.1875 20.3988 15.6408 19.8516C15.0941 19.3043 14.7872 18.5623 14.7876 17.7887C14.788 17.0152 15.0956 16.2735 15.6429 15.7268C16.1902 15.1801 16.9322 14.8731 17.7057 14.8735C18.4793 14.8739 19.221 15.1816 19.7677 15.7288C20.3144 16.2761 20.6213 17.0181 20.6209 17.7917ZM20.7084 22.8667H14.8751V41.125H20.7084V22.8667ZM29.9251 22.8667H24.1209V41.125H29.8668V31.5437C29.8668 26.2062 36.823 25.7104 36.823 31.5437V41.125H42.5834V29.5604C42.5834 20.5625 32.2876 20.8979 29.8668 25.3167L29.9251 22.8667Z" fill="white"/>
</svg>
