<svg width="53" height="52" viewBox="0 0 53 52" fill="none" xmlns="http://www.w3.org/2000/svg">
<path d="M0.666992 8C0.666992 3.58172 4.24871 0 8.66699 0H44.667C49.0853 0 52.667 3.58172 52.667 8V44C52.667 48.4183 49.0853 52 44.667 52H8.66699C4.24871 52 0.666992 48.4183 0.666992 44V8Z" fill="#FF0000"/>
<g clip-path="url(#clip0_1205_42932)">
<path d="M40.2527 19.1347C39.9304 17.91 38.9635 16.943 37.7387 16.6046C35.5308 16.0083 26.6672 16.0083 26.6672 16.0083C26.6672 16.0083 17.8035 16.0083 15.5796 16.6046C14.3548 16.9269 13.4039 17.8938 13.0655 19.1347C12.4854 21.3587 12.4854 26 12.4854 26C12.4854 26 12.4854 30.6414 13.0816 32.8653C13.4039 34.0901 14.3709 35.0571 15.5957 35.3955C17.8035 35.9918 26.6672 35.9918 26.6672 35.9918C26.6672 35.9918 35.5308 35.9918 37.7548 35.3955C38.9796 35.0732 39.9304 34.1062 40.2688 32.8653C40.849 30.6414 40.849 26 40.849 26C40.849 26 40.849 21.3587 40.2527 19.1347Z" fill="white"/>
<path d="M23.769 30.222L31.1823 25.9997L23.769 21.7773V30.222Z" fill="#FF0000"/>
</g>
<defs>
<clipPath id="clip0_1205_42932">
<rect width="28.3636" height="20.8" fill="white" transform="translate(12.4854 15.6001)"/>
</clipPath>
</defs>
</svg>
