<svg width="28" height="28" viewBox="0 0 28 28" fill="none" xmlns="http://www.w3.org/2000/svg">
<path d="M23.3333 4.66669H4.66665C3.38331 4.66669 2.34498 5.71669 2.34498 7.00002L2.33331 21C2.33331 22.2834 3.38331 23.3334 4.66665 23.3334H23.3333C24.6166 23.3334 25.6666 22.2834 25.6666 21V7.00002C25.6666 5.71669 24.6166 4.66669 23.3333 4.66669ZM22.8666 9.62502L14.6183 14.7817C14.245 15.015 13.755 15.015 13.3816 14.7817L5.13331 9.62502C5.01633 9.55935 4.91389 9.47062 4.83218 9.36422C4.75048 9.25781 4.69122 9.13593 4.65798 9.00595C4.62475 8.87598 4.61823 8.74061 4.63883 8.60804C4.65943 8.47548 4.70671 8.34847 4.77781 8.2347C4.84891 8.12094 4.94236 8.02279 5.05249 7.94618C5.16263 7.86958 5.28716 7.81612 5.41856 7.78904C5.54995 7.76195 5.68548 7.76181 5.81693 7.78863C5.94838 7.81544 6.07302 7.86864 6.18331 7.94502L14 12.8334L21.8166 7.94502C21.9269 7.86864 22.0516 7.81544 22.183 7.78863C22.3145 7.76181 22.45 7.76195 22.5814 7.78904C22.7128 7.81612 22.8373 7.86958 22.9475 7.94618C23.0576 8.02279 23.151 8.12094 23.2222 8.2347C23.2933 8.34847 23.3405 8.47548 23.3611 8.60804C23.3817 8.74061 23.3752 8.87598 23.342 9.00595C23.3087 9.13593 23.2495 9.25781 23.1678 9.36422C23.0861 9.47062 22.9836 9.55935 22.8666 9.62502Z" fill="#6D7FCE"/>
</svg>
