<svg width="28" height="28" viewBox="0 0 28 28" fill="none" xmlns="http://www.w3.org/2000/svg">
<mask id="mask0_1482_25911" style="mask-type:luminance" maskUnits="userSpaceOnUse" x="1" y="1" width="26" height="26">
<path d="M5.75048 19.1082C3.63881 19.7417 2.33331 20.6167 2.33331 21.5833C2.33331 23.5165 7.55648 25.0833 14 25.0833C20.4435 25.0833 25.6666 23.5165 25.6666 21.5833C25.6666 20.6167 24.3606 19.7417 22.2495 19.1082" stroke="white" stroke-width="2" stroke-linecap="round" stroke-linejoin="round"/>
<path d="M14 20.4166C14 20.4166 21.5833 15.4606 21.5833 9.73115C21.5833 5.64548 18.1883 2.33331 14 2.33331C9.81163 2.33331 6.41663 5.64548 6.41663 9.73115C6.41663 15.4606 14 20.4166 14 20.4166Z" fill="white" stroke="white" stroke-width="2" stroke-linejoin="round"/>
<path d="M14 12.8333C14.7735 12.8333 15.5154 12.526 16.0624 11.9791C16.6094 11.4321 16.9166 10.6902 16.9166 9.91667C16.9166 9.14312 16.6094 8.40125 16.0624 7.85427C15.5154 7.30729 14.7735 7 14 7C13.2264 7 12.4846 7.30729 11.9376 7.85427C11.3906 8.40125 11.0833 9.14312 11.0833 9.91667C11.0833 10.6902 11.3906 11.4321 11.9376 11.9791C12.4846 12.526 13.2264 12.8333 14 12.8333Z" fill="black" stroke="black" stroke-width="2" stroke-linejoin="round"/>
</mask>
<g mask="url(#mask0_1482_25911)">
<path d="M0 0H28V28H0V0Z" fill="#6D7FCE"/>
</g>
</svg>
