<svg width="21" height="16" viewBox="0 0 21 16" fill="none" xmlns="http://www.w3.org/2000/svg">
<g clip-path="url(#clip0_1573_3642)">
<path d="M0 0H21V16H0" fill="#BD3D44"/>
<path d="M0 1.84332H21H0ZM0 4.29999H21H0ZM0 6.76666H21H0ZM0 9.23332H21H0ZM0 11.7H21H0ZM0 14.1667H21H0Z" fill="#323137"/>
<path d="M0 1.22668V2.46002H21V1.22668H0ZM0 3.68335V4.91668H21V3.68335H0ZM0 6.15002V7.38335H21V6.15002H0ZM0 8.61668V9.85002H21V8.61668H0ZM0 11.0834V12.3167H21V11.0834H0ZM0 13.55V14.7834H21V13.55H0Z" fill="white"/>
<path d="M0 0H11.97V8.61667H0" fill="#192F5D"/>
<path d="M10.9594 7.26664L11.2547 8.16664L10.5 7.59997H11.4187L10.6641 8.16664L10.9594 7.26664ZM8.99062 7.26664L9.28593 8.16664L8.53124 7.59997H9.44999L8.69531 8.16664L8.99062 7.26664ZM6.98906 7.26664L7.28437 8.16664L6.52968 7.59997H7.44843L6.69374 8.16664L6.98906 7.26664ZM4.98749 7.26664L5.28281 8.16664L4.52812 7.59997H5.44687L4.69218 8.16664L4.98749 7.26664ZM2.98593 7.26664L3.28124 8.16664L2.52656 7.59997H3.44531L2.69062 8.16664L2.98593 7.26664ZM0.984369 7.26664L1.27968 8.16664L0.524994 7.59997H1.44374L0.689056 8.16664L0.984369 7.26664ZM9.97499 6.39997L10.2703 7.29997L9.51562 6.7333H10.4344L9.67968 7.29997L9.97499 6.39997ZM7.97343 6.39997L8.26874 7.29997L7.51406 6.7333H8.43281L7.67812 7.29997L7.97343 6.39997ZM6.00468 6.39997L6.29999 7.29997L5.54531 6.7333H6.46406L5.70937 7.29997L6.00468 6.39997ZM4.00312 6.39997L4.29843 7.29997L3.54374 6.7333H4.46249L3.70781 7.29997L4.00312 6.39997ZM2.00156 6.39997L2.29687 7.29997L1.54218 6.7333H2.46093L1.70624 7.29997L2.00156 6.39997ZM10.9594 5.53331L11.2547 6.43331L10.5 5.86664H11.4187L10.6641 6.43331L10.9594 5.53331ZM8.99062 5.53331L9.28593 6.43331L8.53124 5.86664H9.44999L8.69531 6.43331L8.99062 5.53331ZM6.98906 5.53331L7.28437 6.43331L6.52968 5.86664H7.44843L6.69374 6.43331L6.98906 5.53331ZM4.98749 5.53331L5.28281 6.43331L4.52812 5.86664H5.44687L4.69218 6.43331L4.98749 5.53331ZM2.98593 5.53331L3.28124 6.43331L2.52656 5.86664H3.44531L2.69062 6.43331L2.98593 5.53331ZM0.984369 5.53331L1.27968 6.43331L0.524994 5.86664H1.44374L0.689056 6.43331L0.984369 5.53331ZM9.97499 4.69997L10.2703 5.59997L9.51562 5.03331H10.4344L9.67968 5.59997L9.97499 4.69997ZM7.97343 4.69997L8.26874 5.59997L7.51406 5.03331H8.43281L7.67812 5.59997L7.97343 4.69997ZM6.00468 4.69997L6.29999 5.59997L5.54531 5.03331H6.46406L5.70937 5.59997L6.00468 4.69997ZM4.00312 4.69997L4.29843 5.59997L3.54374 5.03331H4.46249L3.70781 5.59997L4.00312 4.69997ZM2.00156 4.69997L2.29687 5.59997L1.54218 5.03331H2.46093L1.70624 5.59997L2.00156 4.69997ZM10.9594 3.83331L11.2547 4.7333L10.5 4.16664H11.4187L10.6641 4.7333L10.9594 3.83331ZM8.99062 3.83331L9.28593 4.7333L8.53124 4.16664H9.44999L8.69531 4.7333L8.99062 3.83331ZM6.98906 3.83331L7.28437 4.7333L6.52968 4.16664H7.44843L6.69374 4.7333L6.98906 3.83331ZM4.98749 3.83331L5.28281 4.7333L4.52812 4.16664H5.44687L4.69218 4.7333L4.98749 3.83331ZM2.98593 3.83331L3.28124 4.7333L2.52656 4.16664H3.44531L2.69062 4.7333L2.98593 3.83331ZM0.984369 3.83331L1.27968 4.7333L0.524994 4.16664H1.44374L0.689056 4.7333L0.984369 3.83331ZM9.97499 2.96664L10.2703 3.86664L9.51562 3.29997H10.4344L9.67968 3.86664L9.97499 2.96664ZM7.97343 2.96664L8.26874 3.86664L7.51406 3.29997H8.43281L7.67812 3.86664L7.97343 2.96664ZM6.00468 2.96664L6.29999 3.86664L5.54531 3.29997H6.46406L5.70937 3.86664L6.00468 2.96664ZM4.00312 2.96664L4.29843 3.86664L3.54374 3.29997H4.46249L3.70781 3.86664L4.00312 2.96664ZM2.00156 2.96664L2.29687 3.86664L1.54218 3.29997H2.46093L1.70624 3.86664L2.00156 2.96664ZM10.9594 2.09997L11.2547 2.99997L10.5 2.43331H11.4187L10.6641 2.99997L10.9594 2.09997ZM8.99062 2.09997L9.28593 2.99997L8.53124 2.43331H9.44999L8.69531 2.99997L8.99062 2.09997ZM6.98906 2.09997L7.28437 2.99997L6.52968 2.43331H7.44843L6.69374 2.99997L6.98906 2.09997ZM4.98749 2.09997L5.28281 2.99997L4.52812 2.43331H5.44687L4.69218 2.99997L4.98749 2.09997ZM2.98593 2.09997L3.28124 2.99997L2.52656 2.43331H3.44531L2.69062 2.99997L2.98593 2.09997ZM0.984369 2.09997L1.27968 2.99997L0.524994 2.43331H1.44374L0.689056 2.99997L0.984369 2.09997ZM9.97499 1.2333L10.2703 2.1333L9.51562 1.56664H10.4344L9.67968 2.1333L9.97499 1.2333ZM7.97343 1.2333L8.26874 2.1333L7.51406 1.56664H8.43281L7.67812 2.1333L7.97343 1.2333ZM6.00468 1.2333L6.29999 2.1333L5.54531 1.56664H6.46406L5.70937 2.1333L6.00468 1.2333ZM4.00312 1.2333L4.29843 2.1333L3.54374 1.56664H4.46249L3.70781 2.1333L4.00312 1.2333ZM2.00156 1.2333L2.29687 2.1333L1.54218 1.56664H2.46093L1.70624 2.1333L2.00156 1.2333ZM10.9594 0.366638L11.2547 1.26664L10.5 0.699972H11.4187L10.6641 1.26664L10.9594 0.366638ZM8.99062 0.366638L9.28593 1.26664L8.53124 0.699972H9.44999L8.69531 1.26664L8.99062 0.366638ZM6.98906 0.366638L7.28437 1.26664L6.52968 0.699972H7.44843L6.69374 1.26664L6.98906 0.366638ZM4.98749 0.366638L5.28281 1.26664L4.52812 0.699972H5.44687L4.69218 1.26664L4.98749 0.366638ZM2.98593 0.366638L3.28124 1.26664L2.52656 0.699972H3.44531L2.69062 1.26664L2.98593 0.366638ZM0.984369 0.366638L1.27968 1.26664L0.524994 0.699972H1.44374L0.689056 1.26664L0.984369 0.366638Z" fill="white"/>
</g>
<defs>
<clipPath id="clip0_1573_3642">
<rect width="21" height="16" fill="white"/>
</clipPath>
</defs>
</svg>
