<svg width="768" height="102" viewBox="0 0 768 102" fill="none" xmlns="http://www.w3.org/2000/svg">
<path d="M739.69 98.7542H717.584V17.8904H689.273V0.5625H768V17.8904H739.69V98.7542Z" fill="#6D376F"/>
<path d="M645.547 98.6038H623.797V0.412109H683.555V17.4714H645.547V42.7917H680.917V59.7838H645.547V98.6038Z" fill="#6D376F"/>
<path d="M594.233 98.6045L586.674 75.2319H548.666L541.107 98.6045H517.289L554.085 0.00976562H581.112L618.051 98.6045H594.233ZM581.397 57.7696L573.838 34.9343C573.363 33.412 572.721 31.4642 571.913 29.0912C571.152 26.6733 570.368 24.2331 569.56 21.7704C568.799 19.263 568.181 17.0915 567.706 15.2557C567.23 17.0915 566.565 19.375 565.709 22.1063C564.901 24.7928 564.116 27.3449 563.356 29.7628C562.595 32.1806 562.048 33.9045 561.716 34.9343L554.228 57.7696H581.397Z" fill="#6D376F"/>
<path d="M482.222 0.412109C491.683 0.412109 499.479 1.48671 505.612 3.63591C511.792 5.78512 516.38 9.03131 519.375 13.3745C522.37 17.7177 523.867 23.2026 523.867 29.8293C523.867 34.3068 522.964 38.2246 521.158 41.5828C519.351 44.9409 516.974 47.7841 514.027 50.1124C511.079 52.4407 507.894 54.3437 504.471 55.8212L535.134 98.6038H510.604L485.716 60.9256H473.95V98.6038H451.844V0.412109H482.222ZM480.653 17.4714H473.95V44.0006H481.081C488.402 44.0006 493.632 42.8589 496.769 40.5753C499.955 38.247 501.547 34.8441 501.547 30.3666C501.547 25.71 499.836 22.3967 496.413 20.4266C493.037 18.4565 487.784 17.4714 480.653 17.4714Z" fill="#6D376F"/>
<path d="M415.638 17.4363C411.407 17.4363 407.651 18.2199 404.371 19.787C401.138 21.3094 398.404 23.5258 396.17 26.4361C393.983 29.3465 392.319 32.8614 391.178 36.9807C390.037 41.1 389.467 45.7342 389.467 50.8833C389.467 57.8235 390.37 63.7562 392.177 68.6814C394.031 73.5619 396.883 77.3006 400.734 79.8976C404.585 82.4498 409.553 83.7258 415.638 83.7258C419.869 83.7258 424.1 83.2781 428.331 82.3826C432.61 81.4871 437.245 80.211 442.237 78.5543V96.0166C437.625 97.8076 433.085 99.0837 428.616 99.8449C424.148 100.651 419.132 101.054 413.57 101.054C402.826 101.054 393.983 98.9717 387.042 94.8077C380.149 90.5988 375.038 84.7333 371.71 77.2111C368.383 69.6441 366.719 60.8234 366.719 50.749C366.719 43.3163 367.788 36.5105 369.928 30.3316C372.067 24.1526 375.205 18.802 379.341 14.2797C383.477 9.75743 388.587 6.26497 394.673 3.80234C400.758 1.33971 407.746 0.108398 415.638 0.108398C420.82 0.108398 426.002 0.735249 431.184 1.98895C436.413 3.19788 441.405 4.87694 446.159 7.02615L439.028 23.9511C435.129 22.2049 431.207 20.6825 427.261 19.3841C423.316 18.0856 419.441 17.4363 415.638 17.4363Z" fill="#6D376F"/>
<path d="M317.75 48.5677C317.75 59.6271 315.492 68.8732 310.975 76.3058C306.506 83.6937 300.017 89.2682 291.507 93.0293C282.998 96.7457 272.753 98.6038 260.773 98.6038H231.25V0.412109H263.982C274.916 0.412109 284.4 2.24789 292.434 5.91944C300.469 9.54622 306.697 14.9416 311.118 22.1056C315.539 29.2249 317.75 38.0455 317.75 48.5677ZM294.788 49.105C294.788 41.8514 293.647 35.8963 291.365 31.2397C289.13 26.5384 285.803 23.0683 281.381 20.8295C277.008 18.5908 271.588 17.4714 265.123 17.4714H253.356V81.4102H262.841C273.632 81.4102 281.643 78.7013 286.872 73.2835C292.149 67.8657 294.788 59.8062 294.788 49.105Z" fill="#6D376F"/>
<path d="M201.78 98.6045L194.221 75.2319H156.213L148.654 98.6045H124.836L161.632 0.00976562H188.659L225.598 98.6045H201.78ZM188.944 57.7696L181.385 34.9343C180.91 33.412 180.268 31.4642 179.46 29.0912C178.699 26.6733 177.915 24.2331 177.107 21.7704C176.346 19.263 175.728 17.0915 175.252 15.2557C174.777 17.0915 174.111 19.375 173.256 22.1063C172.448 24.7928 171.663 27.3449 170.903 29.7628C170.142 32.1806 169.595 33.9045 169.262 34.9343L161.775 57.7696H188.944Z" fill="#6D376F"/>
<path d="M131.825 98.6038H71.7812V0.412109H131.825V17.4714H93.8875V39.0306H129.186V56.0899H93.8875V81.4102H131.825V98.6038Z" fill="#6D376F"/>
<path d="M0 98.2015V0.00976562H22.1063V81.0079H64.3934V98.2015H0Z" fill="#6D376F"/>
</svg>
