<svg width="15" height="16" viewBox="0 0 15 16" fill="none" xmlns="http://www.w3.org/2000/svg">
<path fill-rule="evenodd" clip-rule="evenodd" d="M3.32692 15.1663H0.25V5.93555H3.32692V15.1663Z" fill="white"/>
<path fill-rule="evenodd" clip-rule="evenodd" d="M1.77931 3.88454H1.76183C0.843613 3.88454 0.25 3.20046 0.25 2.34555C0.25 1.47255 0.861692 0.807617 1.79734 0.807617C2.73298 0.807617 3.30917 1.47255 3.32692 2.34555C3.32692 3.20046 2.73298 3.88454 1.77931 3.88454Z" fill="white"/>
<path fill-rule="evenodd" clip-rule="evenodd" d="M14.6135 15.1661H11.5899V10.341C11.5899 9.12909 11.1524 8.30209 10.0578 8.30209C9.22248 8.30209 8.72492 8.85961 8.50639 9.3981C8.42644 9.59108 8.40682 9.85996 8.40682 10.1295V15.1663H5.38281C5.38281 15.1663 5.42267 6.99384 5.38281 6.14756H8.40682V7.42499C8.80813 6.81091 9.52687 5.93555 11.1322 5.93555C13.1219 5.93555 14.6136 7.22483 14.6136 9.995L14.6135 15.1661Z" fill="white"/>
</svg>
