<svg width="24" height="24" fill="none" xmlns="http://www.w3.org/2000/svg"><path d="M12 13.4l-4.9 4.9a.948.948 0 01-.7.275.948.948 0 01-.7-.275.948.948 0 01-.275-.7c0-.283.091-.517.275-.7l4.9-4.9-4.9-4.9a.948.948 0 01-.275-.7c0-.283.091-.517.275-.7a.948.948 0 01.7-.275c.283 0 .516.092.7.275l4.9 4.9 4.9-4.9a.948.948 0 01.7-.275c.283 0 .516.092.7.275a.948.948 0 01.275.7.948.948 0 01-.275.7L13.4 12l4.9 4.9a.948.948 0 01.275.7.948.948 0 01-.275.7.948.948 0 01-.7.275.948.948 0 01-.7-.275L12 13.4z" fill="#595959"/></svg>