<svg width="768" height="102" fill="none" xmlns="http://www.w3.org/2000/svg"><path d="M739.69 98.754h-22.106V17.89h-28.311V.562H768V17.89h-28.31v80.864zm-94.143-.15h-21.75V.412h59.758v17.06h-38.008v25.32h35.37v16.992h-35.37v38.82zm-51.314.001l-7.559-23.373h-38.008l-7.559 23.373h-23.818L554.085.01h27.027l36.939 98.594h-23.818zM581.397 57.77l-7.559-22.836a248.758 248.758 0 00-1.925-5.843 635.044 635.044 0 00-2.353-7.32 166.536 166.536 0 01-1.854-6.515c-.476 1.835-1.141 4.119-1.997 6.85a647.223 647.223 0 01-2.353 7.657 884.605 884.605 0 01-1.64 5.171l-7.488 22.836h27.169z" fill="#6D376F"/><path d="M482.222.412c9.461 0 17.257 1.075 23.39 3.224 6.18 2.15 10.768 5.395 13.763 9.738 2.995 4.344 4.492 9.829 4.492 16.455 0 4.478-.903 8.396-2.709 11.754-1.807 3.358-4.184 6.201-7.131 8.53a42.588 42.588 0 01-9.556 5.708l30.663 42.783h-24.53l-24.888-37.678H473.95v37.678h-22.106V.412h30.378zm-1.569 17.06h-6.703V44h7.131c7.321 0 12.551-1.142 15.688-3.426 3.186-2.328 4.778-5.73 4.778-10.208 0-4.657-1.711-7.97-5.134-9.94-3.376-1.97-8.629-2.956-15.76-2.956zm-65.015-.036c-4.231 0-7.987.784-11.267 2.351-3.233 1.522-5.967 3.739-8.201 6.65-2.187 2.91-3.851 6.424-4.992 10.544-1.141 4.119-1.711 8.753-1.711 13.902 0 6.94.903 12.873 2.71 17.798 1.854 4.88 4.706 8.62 8.557 11.217 3.851 2.552 8.819 3.828 14.904 3.828a61.18 61.18 0 0012.693-1.343c4.279-.896 8.914-2.172 13.906-3.829v17.463c-4.612 1.79-9.152 3.067-13.621 3.828-4.468.806-9.484 1.209-15.046 1.209-10.744 0-19.587-2.082-26.528-6.246-6.893-4.21-12.004-10.075-15.332-17.597-3.327-7.567-4.991-16.388-4.991-26.462 0-7.433 1.069-14.239 3.209-20.417 2.139-6.18 5.277-11.53 9.413-16.052 4.136-4.523 9.246-8.015 15.332-10.478C400.758 1.34 407.746.108 415.638.108c5.182 0 10.364.627 15.546 1.881a79.996 79.996 0 0114.975 5.037l-7.131 16.925a122.31 122.31 0 00-11.767-4.567c-3.945-1.298-7.82-1.948-11.623-1.948zM317.75 48.568c0 11.06-2.258 20.305-6.775 27.738-4.469 7.388-10.958 12.962-19.468 16.723-8.509 3.717-18.754 5.575-30.734 5.575H231.25V.412h32.732c10.934 0 20.418 1.836 28.452 5.507 8.035 3.627 14.263 9.023 18.684 16.187 4.421 7.119 6.632 15.94 6.632 26.462zm-22.962.537c0-7.254-1.141-13.209-3.423-17.865-2.235-4.702-5.562-8.172-9.984-10.41-4.373-2.24-9.793-3.359-16.258-3.359h-11.767v63.94h9.485c10.791 0 18.802-2.71 24.031-8.127 5.277-5.418 7.916-13.478 7.916-24.179zm-93.008 49.5l-7.559-23.373h-38.008l-7.559 23.373h-23.818L161.632.01h27.027l36.939 98.594H201.78zM188.944 57.77l-7.559-22.836a248.758 248.758 0 00-1.925-5.843 635.044 635.044 0 00-2.353-7.32 168.516 168.516 0 01-1.855-6.515c-.475 1.835-1.141 4.119-1.996 6.85a647.223 647.223 0 01-2.353 7.657 794.522 794.522 0 01-1.641 5.171l-7.487 22.836h27.169z" fill="#6D376F"/><path d="M131.825 98.604H71.781V.412h60.044v17.06H93.888V39.03h35.298v17.06H93.887v25.32h37.938v17.194zM0 98.201V.01h22.106v80.998h42.287v17.194H0z" fill="#6D376F"/></svg>