<svg width="15" height="16" fill="none" xmlns="http://www.w3.org/2000/svg"><path fill-rule="evenodd" clip-rule="evenodd" d="M3.327 15.166H.25v-9.23h3.077v9.23zM1.78 3.885h-.018C.844 3.885.25 3.2.25 2.345.25 1.474.862.809 1.797.809c.936 0 1.512.665 1.53 1.538 0 .854-.594 1.539-1.548 1.539zm12.834 11.281H11.59v-4.825c0-1.212-.438-2.039-1.532-2.039-.836 0-1.333.558-1.552 1.096-.08.193-.1.462-.1.732v5.036H5.384s.04-8.172 0-9.018h3.024v1.277c.401-.614 1.12-1.49 2.725-1.49 1.99 0 3.482 1.29 3.482 4.06v5.171z" fill="#fff"/></svg>