<svg width="130" height="52" fill="none" xmlns="http://www.w3.org/2000/svg"><rect width="130" height="52" rx="2" fill="#845186"/><g clip-path="url(#clip0_1277_2282)" fill="#fff"><path d="M96.11 10.37c-.995-1.705-2.4-2.993-4.21-3.864-1.81-.87-3.948-1.306-6.413-1.306h-7.375v17.305h4.982V9.27h2.65c1.458 0 2.683.267 3.672.801.992.536 1.742 1.36 2.25 2.476.509 1.117.764 2.541.764 4.272 0 2.498-.566 4.394-1.702 5.685-.022.029-.049.056-.073.085-.883.964-2.114 1.57-3.69 1.813h-8.58v6.127h4.901v-1.898h1.478c.925 0 1.802-.052 2.635-.159 1.599-.198 3.03-.594 4.292-1.179.054-.024.105-.049.16-.078a9.933 9.933 0 001.903-1.19 9.05 9.05 0 001.599-1.623 9.613 9.613 0 001.141-1.898c.74-1.62 1.11-3.557 1.11-5.812 0-2.512-.497-4.62-1.493-6.324zM76.483 45.622v-.006l-.11-.295-5.501-14.985-1.518-4.138-.455-1.24-.228-.622h-6.092l-2.194 6-3.643 9.971.793 1.13 2.682 3.82 1.144-3.615h8.566l1.702 5.377h5.368l-.512-1.397h-.002zm-13.87-7.997l1.686-5.253c.076-.237.199-.635.371-1.19.17-.558.35-1.145.537-1.77.189-.622.334-1.145.442-1.57.107.425.25.922.427 1.493.177.572.352 1.134.529 1.685.176.551.32 1.001.427 1.352l1.702 5.253h-6.121zm15.773 7.683v1.711h.629l-.63-1.711z"/><path d="M91.85 24.428v2.713a2.687 2.687 0 01-.158.075c-1.263.564-2.694.945-4.292 1.137h-4.113v5.825h7.97v3.91h-7.97v8.931h-4.901V24.43H91.85zm19.487 0V28.4h-6.379v18.534h-4.984V28.4h-6.378v-.294a11.031 11.031 0 003.718-3.678h14.023zm-73.867.404l-1.37 3.242v.009h-.005l-.262.622a28.799 28.799 0 00-2.702-1.045 8.56 8.56 0 00-2.67-.445c-.97 0-1.83.176-2.578.53-.21.098-.412.21-.603.338h-5.693V5.2h4.984v18.573c1.168-.349 2.465-.523 3.89-.523 1.19 0 2.383.14 3.579.422.492.116.976.25 1.45.404l.31.224.3-.019c.465.164.922.35 1.37.55zM34.71 42.53c-.96.217-1.919.323-2.875.323-1.375 0-2.499-.31-3.37-.928-.87-.62-1.511-1.519-1.925-2.698-.412-1.18-.62-2.601-.62-4.27 0-1.24.128-2.352.386-3.343.185-.714.432-1.35.743-1.91H21.61l-.106.311c-.485 1.486-.725 3.122-.725 4.908 0 2.423.375 4.542 1.129 6.355.751 1.815 1.908 3.224 3.473 4.23 1.562 1.008 3.558 1.511 5.987 1.511 1.256 0 2.39-.095 3.4-.282a15.481 15.481 0 003.078-.928v-4.2a27.33 27.33 0 01-3.135.921z"/><path d="M36.1 24.282a12.821 12.821 0 00-.61-.206 18.36 18.36 0 00-1.45-.404 15.57 15.57 0 00-3.578-.422c-1.426 0-2.723.174-3.891.523a10.42 10.42 0 00-.923.322c-1.399.563-2.572 1.363-3.521 2.397-.189.206-.37.42-.54.641v.95h5.693c.19-.128.392-.24.603-.339.748-.353 1.607-.53 2.579-.53.873 0 1.762.15 2.669.446a28.887 28.887 0 012.702 1.044l.262-.621.005-.009 1.37-3.242a17.433 17.433 0 00-1.37-.55z"/><path fill-rule="evenodd" clip-rule="evenodd" d="M46.133 23.569l1.207-.006s7.136.009 8.285 2.82l-15.001-.099v-2.046l.01-.187V5.173h14.938v3.639h-9.439v4.598h8.783v3.64h-8.783v6.519z"/><path d="M52.367 36.648a9.414 9.414 0 002.133-1.384 6.5 6.5 0 001.589-2.069c.403-.814.605-1.762.605-2.849 0-1.606-.335-2.935-1.002-3.988-.67-1.054-1.689-1.841-3.063-2.36-1.375-.523-3.117-.784-5.227-.784h-6.777v4.138h4.932l1.494-.002c.202 0 .4.004.588.011 1.296.055 2.276.29 2.937.706.758.478 1.137 1.281 1.137 2.411 0 1.13-.352 1.908-1.057 2.466-.705.56-1.876.839-3.51.839h-1.589v-4.06h-4.932V47.02h4.932v-9.135h2.625l5.553 9.135h5.473l-6.841-10.37zM76.7 28.192l-.446-1.312-.273-.804L68.899 5.2h-6.092L56.93 23.452l-.087.272.55.626 2.334 2.642 1.278-3.772h8.79l.228.674.91 2.68h.001l1.06 3.13h5.223l-.515-1.514-.002.002zm-13.864-8.638l1.688-5.674c.077-.256.2-.687.372-1.287.17-.602.35-1.237.537-1.911a41.99 41.99 0 00.441-1.696c.108.458.251.996.428 1.612.177.619.352 1.226.528 1.821.177.595.32 1.082.428 1.46l1.7 5.675h-6.122z"/><path d="M70.435 30.53h.209l-1.516-4.276 1.307 4.276z"/></g><defs><clipPath id="clip0_1277_2282"><path fill="#fff" transform="translate(20.475 5.2)" d="M0 0h91.193v41.888H0z"/></clipPath></defs></svg>