<svg width="46" height="46" fill="none" xmlns="http://www.w3.org/2000/svg"><g filter="url(#filter0_d_1487_12834)"><path d="M2 22C2 10.402 11.402 1 23 1s21 9.402 21 21-9.402 21-21 21S2 33.598 2 22z" fill="#845186"/><path d="M29.763 17.383h-1.197v-2.395A5.99 5.99 0 0022.578 9a5.99 5.99 0 00-5.987 5.988v2.395h-1.198a2.402 2.402 0 00-2.395 2.395v11.975a2.402 2.402 0 002.395 2.395h14.37a2.402 2.402 0 002.395-2.395V19.778a2.402 2.402 0 00-2.395-2.395zm-7.185 10.778a2.402 2.402 0 01-2.395-2.395 2.402 2.402 0 012.395-2.395 2.402 2.402 0 012.395 2.395 2.402 2.402 0 01-2.395 2.395zm-3.592-10.778v-2.395a3.588 3.588 0 013.592-3.592 3.588 3.588 0 013.593 3.592v2.395h-7.185z" fill="#fff"/></g><defs><filter id="filter0_d_1487_12834" x="0" y="0" width="46" height="46" filterUnits="userSpaceOnUse" color-interpolation-filters="sRGB"><feFlood flood-opacity="0" result="BackgroundImageFix"/><feColorMatrix in="SourceAlpha" values="0 0 0 0 0 0 0 0 0 0 0 0 0 0 0 0 0 0 127 0" result="hardAlpha"/><feOffset dy="1"/><feGaussianBlur stdDeviation="1"/><feColorMatrix values="0 0 0 0 0.0901961 0 0 0 0 0.0901961 0 0 0 0 0.0901961 0 0 0 0.05 0"/><feBlend in2="BackgroundImageFix" result="effect1_dropShadow_1487_12834"/><feBlend in="SourceGraphic" in2="effect1_dropShadow_1487_12834" result="shape"/></filter></defs></svg>