<svg width="28" height="28" viewBox="0 0 28 28" fill="none" xmlns="http://www.w3.org/2000/svg">
<path d="M12.9505 3.34233C13.2731 2.31504 14.7269 2.31504 15.0495 3.34233L16.825 8.99681C16.9701 9.45915 17.4008 9.77203 17.8853 9.76723L23.8117 9.70848C24.8884 9.69781 25.3377 11.0805 24.4604 11.7047L19.6313 15.1406C19.2364 15.4216 19.0719 15.9278 19.2262 16.3872L21.1135 22.0054C21.4563 23.0261 20.2802 23.8806 19.4154 23.2391L14.6554 19.7081C14.2661 19.4194 13.7339 19.4194 13.3446 19.7081L8.58463 23.2391C7.71984 23.8806 6.54367 23.0261 6.88653 22.0054L8.77375 16.3872C8.92806 15.9278 8.76357 15.4216 8.36872 15.1406L3.53965 11.7047C2.66231 11.0805 3.11157 9.69781 4.18826 9.70848L10.1146 9.76723C10.5992 9.77203 11.0299 9.45915 11.175 8.99681L12.9505 3.34233Z" fill="#FFE4AA"/>
</svg>
