<svg width="86" height="43" viewBox="0 0 86 43" fill="none" xmlns="http://www.w3.org/2000/svg">
<g clip-path="url(#clip0_1446_57431)">
<path d="M0.300631 41.4001L3.70063 32.0001C4.50063 31.0001 5.70063 31.1001 6.00063 32.0001L3.10063 40.0001L7.90063 40.1001C8.70063 40.6001 8.10063 41.6001 7.50063 42.0001L0.900631 42.1001C0.500631 42.1001 0.200631 41.7001 0.300631 41.4001Z" fill="#F4C733"/>
<path d="M21.7009 42.1006C20.6009 42.1006 19.9009 41.9006 19.4009 41.4006C18.9009 40.9006 18.8009 40.3006 19.0009 39.4006C19.0009 39.2006 19.1009 39.0006 19.2009 38.8006C19.3009 38.6006 19.3009 38.4006 19.4009 38.2006C19.9009 36.9006 20.7009 35.9006 21.7009 35.2006C22.7009 34.5006 23.8009 34.1006 25.0009 34.1006C26.0009 34.1006 26.7009 34.3006 27.2009 34.8006C27.6009 35.3006 27.8009 36.0006 27.6009 36.9006C27.6009 37.1006 27.5009 37.4006 27.4009 37.6006C27.1009 38.5006 26.9009 38.7006 26.1009 38.7006L21.4009 38.6006V38.7006C21.4009 38.8006 21.3009 39.0006 21.3009 39.1006C21.2009 39.6006 21.3009 39.9006 21.5009 40.1006C21.7009 40.3006 22.1009 40.4006 22.6009 40.4006C23.0009 40.4006 23.3009 40.3006 23.6009 40.2006C23.9009 40.1006 24.2009 39.9006 24.4009 39.6006C25.2009 39.1006 26.9009 39.2006 26.5009 39.8006C26.0009 40.5006 25.4009 40.9006 24.5009 41.3006C23.4009 41.9006 22.6009 42.1006 21.7009 42.1006ZM25.2009 37.3006L25.3009 37.0006C25.4009 36.6006 25.3009 36.2006 25.2009 36.0006C25.0009 35.8006 24.7009 35.7006 24.3009 35.7006C23.7009 35.7006 23.2009 35.9006 22.8009 36.3006C22.5009 36.5006 22.3009 36.9006 22.1009 37.2006H25.2009V37.3006Z" fill="#F4C733"/>
<path fill-rule="evenodd" clip-rule="evenodd" d="M13.1019 31.2002C12.5019 31.2002 11.9019 31.7002 11.8019 32.4002C11.7019 33.1002 12.2019 33.6002 12.8019 33.6002C13.4019 33.6002 14.0019 33.1002 14.1019 32.4002C14.2019 31.7002 13.8019 31.2002 13.1019 31.2002Z" fill="#F4C733"/>
<path fill-rule="evenodd" clip-rule="evenodd" d="M11.2009 34.7006L9.2009 41.0006C9.0009 42.5006 11.1009 42.4006 11.4009 41.3006C12.0009 39.3006 12.6009 37.2006 13.2009 35.2006C13.5009 34.0006 11.5009 33.9006 11.2009 34.7006Z" fill="#F4C733"/>
<path fill-rule="evenodd" clip-rule="evenodd" d="M16.0012 34.3H15.0012C14.6012 34.3 14.2012 35.3 14.6012 35.6H15.4012L13.9012 40.8C13.7012 41.5 13.9012 41.9 14.5012 42.1H17.2012C18.0012 42 18.6012 40.5 17.8012 40.4L16.3012 40.3L17.6012 35.8H19.2012C19.5012 35.6 19.9012 34.6 19.4012 34.3H18.0012L18.8012 31.9C18.9012 31.3 17.2012 30.9 16.8012 31.7L16.0012 34.3Z" fill="#F4C733"/>
<path d="M37.6008 32.9002H33.3008L32.4008 35.6002H36.0008C36.3008 35.6002 36.6008 35.7002 36.7008 35.8002C36.8008 35.9002 36.8008 36.1002 36.7008 36.4002C36.6008 36.6002 36.5008 36.8002 36.3008 37.0002C36.1008 37.1002 35.8008 37.2002 35.5008 37.2002H31.9008L30.7008 40.7002C30.6008 41.1002 30.3008 41.5002 30.1008 41.7002C29.8008 41.9002 29.5008 42.0002 29.2008 42.0002C28.9008 42.0002 28.7008 41.9002 28.5008 41.7002C28.4008 41.5002 28.4008 41.1002 28.5008 40.7002L31.2008 32.5002C31.3008 32.2002 31.4008 31.9002 31.6008 31.7002C31.8008 31.5002 31.9008 31.4002 32.2008 31.3002C32.4008 31.2002 32.7008 31.2002 33.0008 31.2002H38.1008C38.4008 31.2002 38.7008 31.3002 38.8008 31.4002C38.9008 31.6002 38.9008 31.8002 38.9008 32.0002C38.8008 32.3002 38.7008 32.5002 38.4008 32.6002C38.2008 32.8002 37.9008 32.9002 37.6008 32.9002Z" fill="#02A64D"/>
<path d="M46.0003 35.7002C46.8003 34.8002 47.7003 34.5002 48.0003 34.4002C48.3003 34.3002 48.8003 34.2002 49.1003 34.3002C49.7003 34.3002 51.1003 34.7002 50.6003 36.9002C50.5003 37.2002 50.5003 37.4002 50.3003 38.1002L49.3003 41.1002C49.2003 41.5002 48.9003 41.8002 48.7003 42.0002C48.5003 42.2002 48.3003 42.3002 48.0003 42.3002C47.3003 42.3002 46.9003 42.1002 47.2003 41.1002L48.0003 38.6002C48.2003 37.9002 48.5003 37.3002 48.4003 36.8002C48.3003 36.4002 47.5003 35.9002 46.5003 36.6002C46.1003 36.8002 45.7003 37.3002 45.4003 37.7002C45.2003 38.0002 44.9003 38.6002 44.7003 39.5002L44.2003 41.2002C44.1003 41.6002 43.9003 41.8002 43.7003 42.0002C43.4003 42.2002 43.1003 42.3002 42.8003 42.3002C42.1003 42.3002 41.8003 42.0002 42.0003 41.4002L43.6003 36.1002C43.8003 35.4002 44.1003 34.9002 44.4003 34.7002C44.7003 34.5002 45.0003 34.4002 45.3003 34.4002C45.6003 34.4002 45.9003 34.5002 46.0003 34.7002C46.2003 34.7002 46.1003 35.2002 46.0003 35.7002Z" fill="#00A64F"/>
<path d="M56.0023 40.6004L57.6023 35.6004C57.8023 35.1004 58.0023 34.8004 58.2023 34.5004C58.5023 34.3004 58.8023 34.1004 59.1023 34.2004C59.4023 34.2004 59.6023 34.4004 59.7023 34.6004C59.8023 34.9004 59.8023 35.2004 59.6023 35.7004L58.0023 40.7004C57.8023 41.2004 57.6023 41.5004 57.4023 41.7004C57.1023 41.9004 56.8023 42.0004 56.5023 42.0004C56.2023 42.0004 56.0023 41.8004 55.9023 41.6004C55.9023 41.4004 55.9023 41.1004 56.0023 40.6004Z" fill="#00A64F"/>
<path d="M56.2016 40.5006L56.5016 39.2006C56.1016 39.8006 55.5016 40.5006 54.5016 40.5006C54.2016 40.5006 53.9016 40.4006 53.7016 40.2006C53.5016 40.0006 53.4016 39.7006 53.4016 39.3006C53.4016 38.9006 53.4016 38.5006 53.6016 38.0006C53.8016 37.5006 54.0016 37.0006 54.2016 36.7006C54.5016 36.3006 54.7016 36.0006 55.1016 35.8006C55.4016 35.6006 55.9016 35.5006 56.2016 35.5006C57.1016 35.5006 57.5016 36.1006 57.4016 36.5006L58.2016 34.7006C58.1016 34.6006 57.5016 34.1006 56.4016 34.1006C55.9016 34.1006 55.4016 34.2006 54.9016 34.4006C54.4016 34.6006 54.0016 34.9006 53.6016 35.2006C53.2016 35.5006 52.8016 36.0006 52.5016 36.5006C52.2016 37.0006 52.0016 37.5006 51.8016 38.1006C51.6016 38.7006 51.6016 39.2006 51.6016 39.7006C51.6016 40.2006 51.7016 40.6006 51.9016 41.0006C52.1016 41.4006 52.4016 41.6006 52.8016 41.8006C53.2016 42.0006 53.6016 42.1006 54.1016 42.1006C55.1016 42.1006 55.9016 41.3006 56.1016 41.3006L56.2016 40.5006Z" fill="#00A64F"/>
<path d="M75.501 40.5002C75.301 40.8002 75.001 41.0002 74.601 41.3002C74.201 41.6002 73.801 41.8002 73.401 41.9002C72.901 42.1002 72.401 42.1002 71.901 42.1002C70.801 42.1002 70.001 41.7002 69.601 41.0002C69.201 40.3002 69.201 39.4002 69.501 38.2002C69.701 37.4002 70.101 36.7002 70.601 36.1002C71.101 35.5002 71.601 35.0002 72.301 34.7002C73.001 34.4002 73.701 34.2002 74.401 34.2002C74.901 34.2002 75.301 34.2002 75.701 34.4002C76.201 34.6002 76.501 34.9002 76.601 35.4002C76.701 35.8002 76.701 36.3002 76.401 36.7002C76.201 37.0002 75.601 37.2002 75.301 36.9002C75.001 36.6002 75.101 36.4002 74.901 36.1002C74.701 35.9002 74.501 35.8002 74.201 35.7002C73.701 35.7002 73.101 35.8002 72.601 36.3002C72.201 36.8002 71.801 37.3002 71.501 37.9002C71.301 38.3002 71.201 38.8002 71.201 39.1002C71.201 39.4002 71.201 40.2002 72.101 40.3002C73.001 40.4002 73.701 39.9002 74.001 39.5002C74.201 39.3002 74.801 39.2002 75.201 39.2002C75.701 39.2002 75.801 39.4002 75.901 39.5002C75.901 39.8002 75.701 40.2002 75.501 40.5002Z" fill="#00A64F"/>
<path fill-rule="evenodd" clip-rule="evenodd" d="M41.4007 31.2002C40.8007 31.2002 40.2007 31.7002 40.1007 32.4002C40.0007 33.1002 40.5007 33.6002 41.1007 33.6002C41.7007 33.6002 42.3007 33.1002 42.4007 32.4002C42.5007 31.7002 42.1007 31.2002 41.4007 31.2002Z" fill="#04A64C"/>
<path fill-rule="evenodd" clip-rule="evenodd" d="M39.4997 34.7006L37.4997 41.0006C37.2997 42.5006 39.3997 42.4006 39.6997 41.3006C40.2997 39.3006 40.8997 37.2006 41.4997 35.2006C41.7997 34.0006 39.8997 33.9006 39.4997 34.7006Z" fill="#04A64C"/>
<path d="M63.7014 35.6006C64.5014 34.7006 65.4014 34.4006 65.7014 34.3006C66.0014 34.2006 66.5015 34.1006 66.8015 34.2006C67.4015 34.2006 68.8015 34.6006 68.3015 36.8006C68.2015 37.1006 68.2014 37.3006 68.0014 38.0006L67.0014 41.0006C66.9014 41.4006 66.6015 41.7006 66.4015 41.9006C66.2015 42.1006 66.0014 42.2006 65.7014 42.2006C65.0014 42.2006 64.6015 42.0006 64.9015 41.0006L65.7014 38.5006C65.9014 37.8006 66.2014 37.2006 66.1014 36.7006C66.0014 36.3006 65.2014 35.8006 64.2014 36.5006C63.8014 36.7006 63.4014 37.2006 63.1014 37.6006C62.9014 37.9006 62.6015 38.5006 62.4015 39.4006L61.9015 41.1006C61.8015 41.5006 61.6015 41.7006 61.4015 41.9006C61.1015 42.1006 60.8014 42.2006 60.5014 42.2006C59.8014 42.2006 59.5015 41.9006 59.7015 41.3006L61.3014 36.0006C61.5014 35.3006 61.8014 34.8006 62.1014 34.6006C62.4014 34.4006 62.7014 34.3006 63.0014 34.3006C63.3014 34.3006 63.6014 34.4006 63.7014 34.6006C63.9014 34.7006 63.9014 35.2006 63.7014 35.6006Z" fill="#00A64F"/>
<path d="M79.4001 42.1006C78.3001 42.1006 77.6001 41.9006 77.1001 41.4006C76.6001 40.9006 76.5001 40.3006 76.7001 39.4006C76.7001 39.2006 76.8001 39.0006 76.9001 38.8006C77.0001 38.6006 77.0001 38.4006 77.1001 38.2006C77.6001 36.9006 78.4001 35.9006 79.4001 35.2006C80.4001 34.5006 81.5001 34.1006 82.7001 34.1006C83.7001 34.1006 84.4001 34.3006 84.9001 34.8006C85.3001 35.3006 85.5001 36.0006 85.3001 36.9006C85.3001 37.1006 85.2001 37.4006 85.1001 37.6006C84.8001 38.5006 84.6001 38.7006 83.8001 38.7006L79.0001 38.6006V38.7006C79.0001 38.8006 78.9001 39.0006 78.9001 39.1006C78.8001 39.6006 78.9001 39.9006 79.1001 40.1006C79.3001 40.3006 79.7001 40.4006 80.2001 40.4006C80.6001 40.4006 80.9001 40.3006 81.2001 40.2006C81.5001 40.1006 81.8001 39.9006 82.0001 39.6006C82.8001 39.1006 84.5001 39.2006 84.1001 39.8006C83.6001 40.5006 83.0001 40.9006 82.1001 41.3006C81.2001 41.9006 80.3001 42.1006 79.4001 42.1006ZM83.0001 37.3006V37.0006C83.1001 36.6006 83.0001 36.2006 82.9001 36.0006C82.7001 35.8006 82.4001 35.7006 82.0001 35.7006C81.4001 35.7006 80.9001 35.9006 80.5001 36.3006C80.2001 36.5006 80.0001 36.9006 79.8001 37.2006H83.0001V37.3006Z" fill="#02A64D"/>
<path fill-rule="evenodd" clip-rule="evenodd" d="M48.5 6.09964L51.2 8.89964L55.5 4.29964C56.3 3.39964 56.7 2.49964 55.6 1.49964C54.4 0.499643 53.8 0.799643 52.9 1.69964L48.5 6.09964Z" fill="#00ADEE" stroke="#00ADEE" stroke-width="0.216" stroke-miterlimit="22.9256"/>
<path fill-rule="evenodd" clip-rule="evenodd" d="M33.3996 9.49993L41.3996 1.39993C42.4996 0.499931 42.8996 0.399931 43.9996 1.29993L55.0996 12.7999C55.8996 13.5999 56.5996 14.6999 55.5996 15.7999C54.5996 16.8999 53.3996 16.3999 52.5996 15.4999L48.4996 11.3999L44.3996 15.5999C43.5996 16.3999 42.4996 16.7999 41.4996 15.7999C40.4996 14.6999 40.8996 13.7999 41.6996 12.8999L45.6996 8.69993L42.3996 5.49993L35.9996 12.0999C35.0996 12.9999 33.7996 13.9999 32.5996 12.4999C31.6996 11.1999 32.4996 10.3999 33.3996 9.49993Z" fill="#00A551" stroke="#00A551" stroke-width="0.216" stroke-miterlimit="22.9256"/>
<path fill-rule="evenodd" clip-rule="evenodd" d="M29.9997 15.9999C33.8997 19.8999 37.6997 23.7999 41.5997 27.6999C42.3997 28.3999 43.0997 28.3999 43.8997 27.6999C46.7997 24.7999 49.6997 21.8999 52.5997 18.9999C53.3997 18.1999 53.3997 17.1999 52.4997 16.3999C51.3997 15.3999 50.6997 15.7999 49.8997 16.5999L42.8997 23.5999C39.5997 20.2999 36.1997 16.9999 32.8997 13.5999C31.9997 12.6999 30.9997 12.0999 29.8997 13.2999C28.8997 14.2999 29.2997 15.1999 29.9997 15.9999Z" fill="#F4C733" stroke="#F4C733" stroke-width="0.216" stroke-miterlimit="22.9256"/>
</g>
<defs>
<clipPath id="clip0_1446_57431">
<rect width="85.6" height="43" fill="white"/>
</clipPath>
</defs>
</svg>
