<svg width="173" height="28" viewBox="0 0 173 28" fill="none" xmlns="http://www.w3.org/2000/svg">
<path d="M0 23.9397H24.4188V18.9227H6.30679V1.33105H0V23.9397Z" fill="#0A1E78"/>
<path d="M118.879 24.4997C125.993 24.4997 130.794 22.2223 130.794 17.9651C130.794 14.5328 128.563 12.6179 124.026 12.1233C122.218 11.8927 117.494 11.8927 116.763 11.8267C115.187 11.7607 114.34 11.3645 114.34 10.4401C114.34 8.95502 116.917 8.78942 118.994 8.78942C122.439 8.78942 127.697 9.5549 129.557 10.2599C129.65 10.2957 129.755 10.2342 129.755 10.1458V5.71962C127.755 4.92727 122.301 4.43262 118.762 4.43262C113.724 4.43262 108.572 5.98372 108.572 10.7367C108.572 14.2351 110.841 16.1824 115.648 16.414C117.725 16.5125 118.994 16.5461 120.071 16.5461C121.84 16.6121 124.718 16.7106 124.718 18.2293C124.718 19.5823 122.032 20.0781 118.955 20.0781C115.295 20.0781 110.748 19.1939 108.829 18.2158C108.732 18.1666 108.61 18.2237 108.61 18.3199V22.9486C110.687 23.807 114.686 24.4997 118.877 24.4997H118.879Z" fill="#FF5500"/>
<path d="M105.499 14.7638C105.499 7.60132 100.346 4.46582 93.0022 4.46582C85.003 4.46582 80.1582 8.22832 80.1582 14.3679C80.1582 21.9265 85.6188 24.4349 93.5792 24.4349C98.3865 24.4349 102.192 23.7746 104.808 22.8838V18.2998C104.808 18.208 104.696 18.1487 104.599 18.1901C102.703 18.9993 98.3578 19.9785 93.6562 19.9785C89.4917 19.9785 86.8448 18.8202 86.2724 15.9843H105.345C105.461 15.5882 105.499 15.1599 105.499 14.7638ZM93.0022 8.75632C96.7821 8.75632 98.8435 10.2056 99.5697 12.3207H86.3887C87.0236 10.0332 89.0293 8.75632 93.0022 8.75632Z" fill="#FF5500"/>
<path d="M76.3055 4.43358C72.1958 4.38993 70.137 5.07148 68.571 7.77868V4.96188H62.8027V23.9399H68.7249V14.1957C69.0261 10.8204 70.3234 9.41698 74.7292 9.41698C75.9548 9.41698 77.3239 9.54008 78.9068 9.75719C78.9941 9.7695 79.075 9.71243 79.075 9.63633V4.56553C78.5756 4.46704 76.9601 4.43358 76.3055 4.43358Z" fill="#FF5500"/>
<path d="M50.8797 24.236C53.7639 24.236 56.7627 23.8073 58.609 23.4112V18.6269C58.609 18.5441 58.5151 18.4847 58.4226 18.5082C56.5776 18.9906 54.9243 19.5166 51.6868 19.5166C47.9956 19.5166 47.6487 18.2296 47.6487 14.5991V9.48359H57.8777V4.96229H47.6487V1.01959C47.6487 0.942372 47.5666 0.884174 47.4779 0.898724L41.7657 1.86006V4.96226H36.459V9.48356H41.7657V15.6231C41.7657 22.6199 44.8806 24.2382 50.8797 24.2382V24.236Z" fill="#0A1E78"/>
<path d="M30.2644 5.5442C32.1547 5.5442 33.6871 4.3031 33.6871 2.7721C33.6871 1.2411 32.1547 0 30.2644 0C28.3742 0 26.8418 1.2411 26.8418 2.7721C26.8418 4.3031 28.3742 5.5442 30.2644 5.5442Z" fill="#0A1E78"/>
<path d="M33.2249 7.36914H27.3027V23.9381H33.2249V7.36914Z" fill="#0A1E78"/>
<path d="M145.929 4.94342C145.762 4.94342 145.715 5.03183 145.833 5.13367C146.482 5.691 146.885 6.46097 146.885 7.31487C146.885 8.16877 146.483 8.93427 145.838 9.49157C145.713 9.60012 145.753 9.68518 145.988 9.68518H159.886C160.673 9.1189 161.178 8.26728 161.178 7.31378C161.178 6.36028 160.673 5.50858 159.884 4.94238H145.928L145.929 4.94342Z" fill="#0A1E78"/>
<path d="M145.929 12.0704C145.762 12.0704 145.715 12.1588 145.833 12.2606C146.482 12.818 146.885 13.5879 146.885 14.4418C146.885 15.2957 146.483 16.0612 145.838 16.6185C145.713 16.7271 145.753 16.8121 145.988 16.8121H154.469C155.257 16.2459 155.762 15.3942 155.762 14.4407C155.762 13.4872 155.257 12.6355 154.468 12.0693H145.928L145.929 12.0704Z" fill="#0A1E78"/>
<path d="M145.93 19.1964C145.753 19.1964 145.713 19.2826 145.839 19.39C146.485 19.9474 146.886 20.7151 146.886 21.5679C146.886 22.4206 146.484 23.1873 145.839 23.7446C145.713 23.8531 145.754 23.9382 145.989 23.9382H149.054C149.841 23.3719 150.346 22.5203 150.346 21.5668C150.346 20.6133 149.841 19.7616 149.053 19.1953H145.93V19.1964Z" fill="#0A1E78"/>
<path d="M171.08 4.94434H167.35C168.138 5.51062 168.642 6.36004 168.643 7.31574C168.643 8.27148 168.138 9.12094 167.35 9.68714H171.08C171.869 9.12198 172.373 8.27144 172.373 7.31574C172.373 6.36001 171.869 5.51054 171.08 4.94434Z" fill="#FF5500"/>
<path d="M167.349 4.94434H163.619C164.408 5.51062 164.911 6.36004 164.913 7.31574C164.913 8.27148 164.408 9.12094 163.619 9.68714H167.349C168.138 9.12198 168.643 8.27144 168.643 7.31574C168.643 6.36001 168.138 5.51054 167.349 4.94434Z" fill="#6262D9"/>
<path d="M171.08 12.0703H161.934C162.722 12.6366 163.226 13.486 163.227 14.4418C163.227 15.3975 162.722 16.2469 161.934 16.8132H171.08C171.869 16.248 172.374 15.3975 172.374 14.4418C172.374 13.486 171.869 12.6366 171.08 12.0703Z" fill="#FF5500"/>
<path d="M161.93 12.0703H158.199C158.988 12.6366 159.491 13.486 159.493 14.4418C159.493 15.3975 158.988 16.2469 158.199 16.8132H161.93C162.718 16.248 163.223 15.3975 163.223 14.4418C163.223 13.486 162.718 12.6366 161.93 12.0703Z" fill="#6262D9"/>
<path d="M163.621 4.94434H159.891C160.68 5.51062 161.183 6.36004 161.184 7.31574C161.184 8.27148 160.68 9.12094 159.891 9.68714H163.621C164.41 9.12198 164.914 8.27144 164.914 7.31574C164.914 6.36001 164.41 5.51054 163.621 4.94434Z" fill="#3D3DC7"/>
<path d="M158.201 12.0703H154.471C155.259 12.6366 155.763 13.486 155.764 14.4418C155.764 15.3975 155.259 16.2469 154.471 16.8132H158.201C158.99 16.248 159.494 15.3975 159.494 14.4418C159.494 13.486 158.99 12.6366 158.201 12.0703Z" fill="#3D3DC7"/>
<path d="M171.08 19.1963H156.516C157.304 19.7626 157.808 20.612 157.809 21.5677C157.809 22.5235 157.304 23.3729 156.516 23.9392H171.08C171.869 23.374 172.373 22.5235 172.373 21.5677C172.373 20.612 171.869 19.7626 171.08 19.1963Z" fill="#FF5500"/>
<path d="M156.519 19.1963H152.789C153.578 19.7626 154.081 20.612 154.083 21.5677C154.083 22.5235 153.578 23.3729 152.789 23.9392H156.519C157.308 23.374 157.813 22.5235 157.813 21.5677C157.813 20.612 157.308 19.7626 156.519 19.1963Z" fill="#6262D9"/>
<path d="M152.781 19.1963H149.051C149.84 19.7626 150.343 20.612 150.344 21.5677C150.344 22.5235 149.84 23.3729 149.051 23.9392H152.781C153.57 23.374 154.074 22.5235 154.074 21.5677C154.074 20.612 153.57 19.7626 152.781 19.1963Z" fill="#3D3DC7"/>
</svg>
