<svg width="141" height="29" viewBox="0 0 141 29" fill="none" xmlns="http://www.w3.org/2000/svg">
<g clip-path="url(#clip0_1446_59114)">
<path d="M0 19.4321L5.48253 23.9431L0 28.4541V19.4341V19.4321ZM28.8124 19.4321L23.3298 23.9431L28.8124 28.4541V19.4341V19.4321ZM0 0.454102V9.4761L14.4088 21.3211L28.8175 9.4761V0.454102L14.4088 12.2991L0 0.454102Z" fill="#3071EE"/>
<path d="M0 9.4761V0.454102L14.4088 12.2991V21.3211L0 9.4761Z" fill="#3071EE"/>
<path d="M28.817 0.454102V9.4761L14.4082 21.3211V12.2991L28.817 0.454102Z" fill="#2D54DE"/>
<path d="M0 19.4316L5.48253 23.9426L0 28.4536V19.4336V19.4316Z" fill="#3071EE"/>
<path d="M28.8126 19.4316L23.3301 23.9426L28.8126 28.4536V19.4336V19.4316Z" fill="#2D54DE"/>
<path d="M130.869 22.6478H125.468L123.99 20.8979C123.943 20.8309 123.651 20.4755 123.115 19.8319C122.579 19.1815 122.223 18.739 122.049 18.5044C121.244 19.5905 120.587 20.4487 120.078 21.0789L118.801 22.6478H113.48L119.394 15.3968L113.752 8.70898H119.122L120.078 9.87558C120.628 10.5527 121.285 11.3975 122.049 12.4099C122.78 11.3372 123.363 10.5427 123.799 10.0264L124.895 8.70898H130.165L124.744 15.3968L130.869 22.6478Z" fill="black"/>
<path d="M112.302 22.6478H101.793V8.70898H112.131V11.5048H105.997V14.0592H111.85V16.8651H105.997V19.8419H112.302V22.6478Z" fill="black"/>
<path d="M98.485 21.6619C98.1833 21.7759 97.9252 21.8697 97.7106 21.9435C97.4961 22.0172 97.2882 22.0843 97.0871 22.1446C96.8927 22.205 96.6077 22.2821 96.2323 22.3759C95.5953 22.5234 94.9584 22.6341 94.3214 22.7078C93.6912 22.7883 93.0241 22.8285 92.3201 22.8285C90.9055 22.8285 89.5981 22.5704 88.398 22.0541C87.1978 21.5379 86.2357 20.7367 85.5116 19.6505C84.7942 18.5644 84.4355 17.2302 84.4355 15.6479C84.4355 14.6288 84.6199 13.6298 84.9887 12.651C85.3641 11.6654 85.934 10.8776 86.6983 10.2876C87.3286 9.79815 87.9655 9.42605 88.6091 9.17127C89.2595 8.9098 89.8931 8.73548 90.5099 8.64832C91.1267 8.56116 91.8072 8.51758 92.5514 8.51758C93.7784 8.51758 94.7908 8.61144 95.5886 8.79917C96.3865 8.98019 97.2614 9.22156 98.2135 9.52326V12.8219C97.5832 12.4532 96.9161 12.1448 96.2121 11.8967C95.5082 11.6486 94.6299 11.5246 93.5772 11.5246C92.3637 11.5246 91.3916 11.7559 90.6608 12.2185C89.9367 12.6744 89.4305 13.2208 89.1422 13.8578C88.8606 14.4947 88.7198 15.1115 88.7198 15.7082C88.7198 16.4122 88.884 17.0626 89.2126 17.6593C89.5411 18.2493 90.0372 18.7253 90.701 19.0873C91.3647 19.4427 92.1659 19.6204 93.1046 19.6204C93.6409 19.6204 94.2108 19.55 94.8142 19.4092V17.7699H92.9235V14.964H98.485V21.6619Z" fill="black"/>
<path d="M83.4299 22.6478H78.9144L77.8182 20.1738C77.4159 19.2687 77.0539 18.6083 76.732 18.1926C76.4102 17.7702 76.0951 17.502 75.7867 17.3881C75.485 17.2674 75.0928 17.207 74.61 17.207H74.1374V22.6478H69.9336V8.70898H77.084C78.2372 8.70898 79.1826 8.94364 79.9201 9.41297C80.6576 9.88229 81.1872 10.4522 81.509 11.1226C81.8376 11.7931 82.0018 12.43 82.0018 13.0334C82.0018 13.7374 81.8644 14.3341 81.5895 14.8236C81.3213 15.3063 81.0364 15.6583 80.7347 15.8795C80.433 16.1008 80.0944 16.312 79.7189 16.5131C80.1681 16.7746 80.5369 17.0864 80.8252 17.4484C81.1202 17.8037 81.5191 18.5278 82.0219 19.6207L83.4299 22.6478ZM77.7176 13.1139C77.7176 12.4703 77.5064 12.021 77.084 11.7663C76.6616 11.5115 75.9744 11.3841 75.0224 11.3841H74.1374V14.7431H75.0425C76.0683 14.7431 76.7689 14.6325 77.1444 14.4112C77.5265 14.1833 77.7176 13.7508 77.7176 13.1139Z" fill="black"/>
<path d="M68.0828 22.6478H63.7785L62.6421 19.8218H56.5878L55.4313 22.6478H51.127L57.2918 8.70898H61.9381L68.0828 22.6478ZM61.6766 17.3981L59.6351 12.3093L57.5734 17.3981H61.6766Z" fill="black"/>
<path d="M49.2566 22.6478H45.0528V14.5721L41.2614 19.2486H40.9295L37.128 14.5721V22.6478H33.0449V8.70898H36.8565L41.1407 13.9386L45.445 8.70898H49.2566V22.6478Z" fill="black"/>
</g>
<defs>
<clipPath id="clip0_1446_59114">
<rect width="141" height="28" fill="white" transform="translate(0 0.454102)"/>
</clipPath>
</defs>
</svg>
