<svg width="100" height="28" viewBox="0 0 100 28" fill="none" xmlns="http://www.w3.org/2000/svg">
<path fill-rule="evenodd" clip-rule="evenodd" d="M72.9004 9.57665C71.7673 9.094 70.547 8.84992 69.3154 8.85965C68.0304 8.85965 66.8454 9.09965 65.7304 9.57665C64.6413 10.0361 63.6511 10.7016 62.8144 11.5367C61.98 12.3739 61.3146 13.3639 60.8544 14.4527C60.3718 15.5858 60.1278 16.8061 60.1374 18.0377C60.1374 19.3227 60.3774 20.5077 60.8544 21.6227C61.3139 22.7118 61.9794 23.7019 62.8144 24.5387C63.6516 25.3731 64.6416 26.0385 65.7304 26.4987C66.8635 26.9812 68.0839 27.2253 69.3154 27.2157C70.6004 27.2157 71.7854 26.9757 72.9004 26.4987C73.9896 26.0392 74.9797 25.3737 75.8164 24.5387C76.6508 23.7014 77.3162 22.7114 77.7764 21.6227C78.259 20.4895 78.503 19.2692 78.4934 18.0377C78.4934 16.7527 78.2534 15.5677 77.7764 14.4527C77.3169 13.3635 76.6514 12.3734 75.8164 11.5367C74.9792 10.7022 73.9892 10.0368 72.9004 9.57665ZM71.0564 22.1797C70.5018 22.4139 69.9054 22.533 69.3034 22.5297C68.6864 22.5297 68.1034 22.4127 67.5504 22.1797C67.0146 21.9576 66.5274 21.6329 66.1164 21.2237C65.7077 20.8122 65.383 20.3251 65.1604 19.7897C64.9264 19.235 64.8073 18.6386 64.8104 18.0367C64.8073 17.4347 64.9264 16.8383 65.1604 16.2837C65.383 15.7481 65.7077 15.2611 66.1164 14.8497C66.5279 14.441 67.0149 14.1163 67.5504 13.8937C68.105 13.6596 68.7014 13.5405 69.3034 13.5437C69.9054 13.5405 70.5018 13.6596 71.0564 13.8937C71.5919 14.1163 72.0789 14.441 72.4904 14.8497C72.9004 15.2617 73.2244 15.7487 73.4464 16.2837C73.6808 16.8382 73.8002 17.4346 73.7974 18.0367C73.8005 18.6386 73.6814 19.235 73.4474 19.7897C73.2245 20.3252 72.8994 20.8123 72.4904 21.2237C72.0789 21.6323 71.5919 21.957 71.0564 22.1797ZM29.7474 8.85965C31.0224 8.85965 32.2174 9.09965 33.3324 9.57665C34.4216 10.0361 35.4117 10.7016 36.2484 11.5367C37.0828 12.3739 37.7482 13.3639 38.2084 14.4527C38.691 15.5858 38.935 16.8061 38.9254 18.0377C38.9271 18.6758 38.8635 19.3125 38.7354 19.9377H33.8354L33.9004 19.7917C34.1348 19.2371 34.2542 18.6407 34.2514 18.0387C34.2545 17.4367 34.1354 16.8403 33.9014 16.2857C33.6785 15.7501 33.3535 15.263 32.9444 14.8517C32.5329 14.443 32.0459 14.1183 31.5104 13.8957C30.9558 13.6616 30.3594 13.5425 29.7574 13.5457C29.1554 13.5425 28.559 13.6616 28.0044 13.8957C27.4689 14.1183 26.9819 14.443 26.5704 14.8517C26.1617 15.2631 25.837 15.7501 25.6144 16.2857C25.3804 16.8403 25.2613 17.4367 25.2644 18.0387C25.2613 18.6406 25.3804 19.237 25.6144 19.7917C25.837 20.3271 26.1617 20.8142 26.5704 21.2257C26.9824 21.6347 27.4694 21.9597 28.0044 22.1817C28.5564 22.4157 29.1414 22.5317 29.7574 22.5317C30.3734 22.5317 30.9574 22.4147 31.5104 22.1817C32.0462 21.9596 32.5334 21.6349 32.9444 21.2257L33.0224 21.1457L36.9924 23.7097C36.0313 24.934 34.775 25.8944 33.3414 26.5007C32.2083 26.9832 30.988 27.2273 29.7564 27.2177C28.4714 27.2177 27.2864 26.9777 26.1714 26.5007C25.0822 26.0412 24.0921 25.3757 23.2554 24.5407C22.421 23.7034 21.7556 22.7134 21.2954 21.6247C20.8128 20.4915 20.5688 19.2712 20.5784 18.0397C20.5784 16.7547 20.8184 15.5697 21.2954 14.4547C21.7549 13.3655 22.4204 12.3754 23.2554 11.5387C24.0926 10.7042 25.0826 10.0388 26.1714 9.57866C27.3045 9.09608 28.5249 8.85201 29.7564 8.86166L29.7474 8.85965Z" fill="black"/>
<path d="M23.7344 16.4535H34.8004V19.9335H23.7344V16.4535ZM87.7604 22.7855H89.8604V26.8855H86.5624C82.7844 26.8855 80.3704 24.5775 80.3704 20.7895V6.64453H85.1204V11.0985H89.8574V14.7985H85.1974L85.1044 20.1755C85.1044 21.8255 86.0584 22.7755 87.7494 22.7755L87.7604 22.7855Z" fill="black"/>
<path fill-rule="evenodd" clip-rule="evenodd" d="M49.35 8.84647C50.0947 8.84981 50.8364 8.94043 51.56 9.11647C52.2543 9.2877 52.9233 9.54891 53.55 9.89347V4.11347H58.225V26.9605H54.16L53.56 26.1355C52.296 26.8555 50.896 27.2155 49.36 27.2155C48.14 27.2155 46.99 26.9825 45.917 26.5175C44.8641 26.0663 43.9093 25.4141 43.106 24.5975C42.3023 23.7776 41.6595 22.8143 41.211 21.7575C40.748 20.6775 40.516 19.4495 40.516 18.2225C40.516 16.9955 40.748 15.3525 41.211 14.2725C41.6568 13.2189 42.3 12.2603 43.106 11.4485C43.9128 10.6401 44.867 9.99375 45.917 9.54447C47.0042 9.07663 48.1765 8.83897 49.36 8.84647L49.35 8.84747V8.84647ZM51.12 22.1785C50.5654 22.4126 49.969 22.5317 49.367 22.5285C48.765 22.5316 48.1686 22.4125 47.614 22.1785C47.0782 21.9565 46.591 21.6317 46.18 21.2225C45.7713 20.811 45.4466 20.324 45.224 19.7885C44.9896 19.2339 44.8702 18.6375 44.873 18.0355C44.8702 17.4334 44.9896 16.837 45.224 16.2825C45.4466 15.747 45.7713 15.2599 46.18 14.8485C46.5915 14.4398 47.0785 14.1151 47.614 13.8925C48.1686 13.6584 48.765 13.5394 49.367 13.5425C49.969 13.5394 50.5654 13.6584 51.12 13.8925C51.6556 14.1154 52.1426 14.4404 52.554 14.8495C52.963 15.2595 53.287 15.7475 53.51 16.2825C53.7444 16.837 53.8638 17.4334 53.861 18.0355C53.8638 18.6375 53.7444 19.2339 53.51 19.7885C53.2874 20.324 52.9627 20.811 52.554 21.2225C52.1425 21.6311 51.6555 21.9558 51.12 22.1785ZM4.743 16.9985V8.33547H9C11.342 8.33547 13.247 10.2695 13.247 12.6315C13.247 14.1585 12.451 15.5015 11.255 16.2615L13.157 20.5785C15.92 19.0325 17.797 16.0355 17.797 12.5985C17.797 7.58447 13.803 3.48047 8.893 3.48047H0V16.9985H4.714C4.724 16.9985 4.734 16.9985 4.743 17.0005V16.9985Z" fill="black"/>
<path fill-rule="evenodd" clip-rule="evenodd" d="M7.98438 18.6148L11.5444 16.0508L17.7924 25.2288L14.2324 27.7928L7.98438 18.6148Z" fill="black"/>
</svg>
