<svg width="25" height="25" viewBox="0 0 25 25" fill="none" xmlns="http://www.w3.org/2000/svg">
<path fill-rule="evenodd" clip-rule="evenodd" d="M3.61824 12.967C3.46124 12.676 3.46124 12.323 3.61824 12.032C5.51024 8.533 9.00524 5.5 12.5002 5.5C15.9952 5.5 19.4902 8.533 21.3822 12.033C21.5392 12.324 21.5392 12.677 21.3822 12.968C19.4902 16.467 15.9952 19.5 12.5002 19.5C9.00524 19.5 5.51024 16.467 3.61824 12.967Z" stroke="#8E8E8E" stroke-width="1.5" stroke-linecap="round" stroke-linejoin="round"/>
<path d="M14.6213 10.3787C15.7929 11.5502 15.7929 13.4497 14.6213 14.6213C13.4497 15.7929 11.5502 15.7929 10.3787 14.6213C9.20711 13.4497 9.20711 11.5502 10.3787 10.3787C11.5502 9.20711 13.4497 9.20711 14.6213 10.3787" stroke="#8E8E8E" stroke-width="1.4286" stroke-linecap="round" stroke-linejoin="round"/>
</svg>
