<svg width="108" height="48" viewBox="0 0 108 48" fill="none" xmlns="http://www.w3.org/2000/svg">
<path d="M0.5 8C0.5 3.85787 3.85786 0.5 8 0.5H99.1818C103.324 0.5 106.682 3.85786 106.682 8V40C106.682 44.1421 103.324 47.5 99.1818 47.5H8C3.85786 47.5 0.5 44.1421 0.5 40V8Z" stroke="#E7E9F1"/>
<path d="M47.6975 24.3332C47.6975 27.9421 44.7894 30.6015 41.2204 30.6015C37.6513 30.6015 34.7432 27.9421 34.7432 24.3332C34.7432 20.6989 37.6513 18.0649 41.2204 18.0649C44.7894 18.0649 47.6975 20.6989 47.6975 24.3332ZM44.8621 24.3332C44.8621 22.078 43.1766 20.5349 41.2204 20.5349C39.2641 20.5349 37.5786 22.078 37.5786 24.3332C37.5786 26.5658 39.2641 28.1315 41.2204 28.1315C43.1766 28.1315 44.8621 26.563 44.8621 24.3332Z" fill="#EA4335"/>
<path d="M61.6736 24.3332C61.6736 27.9421 58.7654 30.6015 55.1964 30.6015C51.6274 30.6015 48.7192 27.9421 48.7192 24.3332C48.7192 20.7017 51.6274 18.0649 55.1964 18.0649C58.7654 18.0649 61.6736 20.6989 61.6736 24.3332ZM58.8382 24.3332C58.8382 22.078 57.1527 20.5349 55.1964 20.5349C53.2402 20.5349 51.5546 22.078 51.5546 24.3332C51.5546 26.5658 53.2402 28.1315 55.1964 28.1315C57.1527 28.1315 58.8382 26.563 58.8382 24.3332Z" fill="#FBBC05"/>
<path d="M75.0621 18.4436V29.6971C75.0621 34.3262 72.2499 36.2169 68.9255 36.2169C65.796 36.2169 63.9126 34.1849 63.2023 32.5232L65.6709 31.5256C66.1104 32.5458 67.1876 33.7497 68.9226 33.7497C71.0506 33.7497 72.3693 32.4752 72.3693 30.0758V29.1743H72.2703C71.6357 29.9345 70.413 30.5986 68.8702 30.5986C65.6418 30.5986 62.6841 27.8686 62.6841 24.3558C62.6841 20.8175 65.6418 18.0649 68.8702 18.0649C70.4101 18.0649 71.6328 18.7291 72.2703 19.4667H72.3693V18.4465H75.0621V18.4436ZM72.5702 24.3558C72.5702 22.1486 71.0535 20.5349 69.1234 20.5349C67.1672 20.5349 65.5282 22.1486 65.5282 24.3558C65.5282 26.5404 67.1672 28.1315 69.1234 28.1315C71.0535 28.1315 72.5702 26.5404 72.5702 24.3558Z" fill="#4285F4"/>
<path d="M79.4989 11.8477V30.2172H76.7334V11.8477H79.4989Z" fill="#34A853"/>
<path d="M90.2806 26.3961L92.4814 27.8205C91.7711 28.8407 90.0593 30.5985 87.1017 30.5985C83.4337 30.5985 80.6943 27.8459 80.6943 24.3303C80.6943 20.6027 83.457 18.062 86.7843 18.062C90.135 18.062 91.774 20.6507 92.3096 22.0496L92.6036 22.7618L83.9722 26.2322C84.6331 27.4898 85.6607 28.1314 87.1017 28.1314C88.5456 28.1314 89.547 27.4418 90.2806 26.3961ZM83.5065 24.1409L89.2763 21.8151C88.9589 21.0322 88.0041 20.4868 86.8804 20.4868C85.4394 20.4868 83.4337 21.7218 83.5065 24.1409Z" fill="#EA4335"/>
<path d="M24.2773 22.7028V20.0435H33.5084C33.5987 20.5069 33.6453 21.0552 33.6453 21.6487C33.6453 23.6439 33.0834 26.1111 31.2727 27.8689C29.5115 29.6493 27.2612 30.5989 24.2803 30.5989C18.755 30.5989 14.1089 26.2298 14.1089 20.8659C14.1089 15.5019 18.755 11.1328 24.2803 11.1328C27.3369 11.1328 29.5144 12.2972 31.1504 13.8148L29.2175 15.6913C28.0443 14.623 26.4548 13.7922 24.2773 13.7922C20.2426 13.7922 17.0869 16.9489 17.0869 20.8659C17.0869 24.7828 20.2426 27.9396 24.2773 27.9396C26.8944 27.9396 28.3849 26.9193 29.3397 25.9924C30.1141 25.2406 30.6235 24.1667 30.8244 22.7L24.2773 22.7028Z" fill="#4285F4"/>
</svg>
