<svg width="60" height="60" viewBox="0 0 60 60" fill="none" xmlns="http://www.w3.org/2000/svg">
<path d="M0 7.05882C0 3.16034 3.16034 0 7.05882 0H52.9412C56.8397 0 60 3.16034 60 7.05882V52.9412C60 56.8397 56.8397 60 52.9412 60H7.05882C3.16034 60 0 56.8397 0 52.9412V7.05882Z" fill="#CEB9CF" fill-opacity="0.5"/>
<path d="M31.5 21L34.5 18C36 16.5 39 16.5 40.5 18L42 19.5C43.5 21 43.5 24 42 25.5L34.5 33C33 34.5 30 34.5 28.5 33M28.5 39L25.5 42C24 43.5 21 43.5 19.5 42L18 40.5C16.5 39 16.5 36 18 34.5L25.5 27C27 25.5 30 25.5 31.5 27" stroke="#845186" stroke-width="2" stroke-linecap="round" stroke-linejoin="round"/>
</svg>
