<svg width="60" height="60" viewBox="0 0 60 60" fill="none" xmlns="http://www.w3.org/2000/svg">
<path d="M0 7.05882C0 3.16034 3.16034 0 7.05882 0H52.9412C56.8397 0 60 3.16034 60 7.05882V52.9412C60 56.8397 56.8397 60 52.9412 60H7.05882C3.16034 60 0 56.8397 0 52.9412V7.05882Z" fill="#E5FDE7" fill-opacity="0.5"/>
<path d="M44.694 42.3061L38.0157 35.6251C40.018 33.0157 40.9529 29.7424 40.6306 26.4692C40.3083 23.1959 38.753 20.1678 36.2801 17.9991C33.8073 15.8304 30.6021 14.6835 27.3148 14.7911C24.0275 14.8987 20.9042 16.2527 18.5784 18.5784C16.2527 20.9042 14.8987 24.0275 14.7911 27.3148C14.6835 30.6021 15.8304 33.8073 17.9991 36.2801C20.1678 38.753 23.1959 40.3083 26.4692 40.6306C29.7424 40.9529 33.0157 40.018 35.6251 38.0157L42.309 44.701C42.4659 44.858 42.6523 44.9825 42.8574 45.0674C43.0625 45.1524 43.2823 45.1961 43.5043 45.1961C43.7263 45.1961 43.9461 45.1524 44.1512 45.0674C44.3563 44.9825 44.5426 44.858 44.6996 44.701C44.8566 44.544 44.9811 44.3577 45.066 44.1526C45.151 43.9475 45.1947 43.7277 45.1947 43.5057C45.1947 43.2837 45.151 43.0639 45.066 42.8588C44.9811 42.6537 44.8566 42.4673 44.6996 42.3104L44.694 42.3061ZM18.1876 27.7501C18.1876 25.8588 18.7484 24.01 19.7991 22.4374C20.8499 20.8649 22.3433 19.6392 24.0906 18.9155C25.838 18.1917 27.7607 18.0023 29.6156 18.3713C31.4705 18.7403 33.1744 19.651 34.5118 20.9883C35.8491 22.3257 36.7598 24.0296 37.1288 25.8845C37.4978 27.7394 37.3084 29.6621 36.5846 31.4095C35.8609 33.1568 34.6352 34.6502 33.0627 35.701C31.4901 36.7517 29.6413 37.3126 27.7501 37.3126C25.2147 37.3099 22.784 36.3016 20.9912 34.5089C19.1985 32.7161 18.1902 30.2854 18.1876 27.7501Z" fill="#9AE1A0"/>
</svg>
