<svg width="60" height="60" viewBox="0 0 60 60" fill="none" xmlns="http://www.w3.org/2000/svg">
<path d="M0 7.05882C0 3.16034 3.16034 0 7.05882 0H52.9412C56.8397 0 60 3.16034 60 7.05882V52.9412C60 56.8397 56.8397 60 52.9412 60H7.05882C3.16034 60 0 56.8397 0 52.9412V7.05882Z" fill="#FFEFCC" fill-opacity="0.5"/>
<path d="M30 37.9049L36.225 41.6699C37.365 42.3599 38.76 41.3399 38.46 40.0499L36.81 32.9699L42.315 28.1999C43.32 27.3299 42.78 25.6799 41.46 25.5749L34.215 24.9599L31.38 18.2699C30.87 17.0549 29.13 17.0549 28.62 18.2699L25.785 24.9449L18.54 25.5599C17.22 25.6649 16.68 27.3149 17.685 28.1849L23.19 32.9549L21.54 40.0349C21.24 41.3249 22.635 42.3449 23.775 41.6549L30 37.9049Z" fill="#E6C888"/>
</svg>
