<svg width="60" height="60" viewBox="0 0 60 60" fill="none" xmlns="http://www.w3.org/2000/svg">
<path d="M0 7.05882C0 3.16034 3.16034 0 7.05882 0H52.9412C56.8397 0 60 3.16034 60 7.05882V52.9412C60 56.8397 56.8397 60 52.9412 60H7.05882C3.16034 60 0 56.8397 0 52.9412V7.05882Z" fill="#D8FBDB" fill-opacity="0.5"/>
<path d="M42.6832 17.3168L46.4542 18.0705C46.6567 18.111 46.8232 18.2595 46.8817 18.4598C46.9113 18.557 46.9139 18.6605 46.8894 18.7592C46.8648 18.8578 46.814 18.948 46.7422 19.02L43.653 22.1115C43.2828 22.4796 42.7823 22.6866 42.2602 22.6875H39.6975L33.2625 29.1248C33.3853 29.5883 33.4078 30.0727 33.3287 30.5457C33.2496 31.0186 33.0706 31.4693 32.8037 31.8677C32.5367 32.266 32.1879 32.6029 31.7806 32.8559C31.3732 33.1089 30.9166 33.2722 30.4412 33.3349C29.9658 33.3976 29.4825 33.3582 29.0235 33.2195C28.5644 33.0807 28.1403 32.8457 27.7792 32.5302C27.4181 32.2147 27.1284 31.8258 26.9294 31.3895C26.7303 30.9532 26.6266 30.4796 26.625 30C26.6249 29.4821 26.744 28.9712 26.973 28.5067C27.2021 28.0422 27.5349 27.6366 27.9459 27.3214C28.3568 27.0062 28.8347 26.7898 29.3427 26.6889C29.8507 26.5881 30.3751 26.6055 30.8752 26.7398L37.3125 20.3003V17.742C37.3125 17.22 37.5195 16.7183 37.8885 16.3493L40.98 13.2578C41.0521 13.1861 41.1422 13.1352 41.2409 13.1107C41.3395 13.0861 41.443 13.0887 41.5402 13.1183C41.7405 13.1768 41.889 13.3433 41.9295 13.5458L42.6832 17.3168Z" fill="#77CA7E"/>
<path d="M16.4996 30C16.5019 31.9305 16.9182 33.8379 17.7203 35.5938C18.5225 37.3496 19.6919 38.913 21.1497 40.1785C22.6075 41.444 24.3197 42.3821 26.1708 42.9296C28.022 43.477 29.969 43.6212 31.8806 43.3522C33.7922 43.0832 35.6238 42.4074 37.252 41.3703C38.8802 40.3333 40.2671 38.9591 41.319 37.3405C42.371 35.7219 43.0636 33.8965 43.3501 31.9874C43.6366 30.0784 43.5103 28.1301 42.9798 26.274C42.9053 26.0572 42.8758 25.8275 42.8929 25.5988C42.9101 25.3702 42.9735 25.1474 43.0795 24.9441C43.1855 24.7408 43.3318 24.5612 43.5094 24.4162C43.687 24.2712 43.8923 24.1638 44.1127 24.1007C44.3331 24.0376 44.5641 24.02 44.7915 24.0489C45.0189 24.0779 45.2381 24.1529 45.4357 24.2693C45.6332 24.3857 45.805 24.541 45.9406 24.7259C46.0762 24.9108 46.1727 25.1214 46.2243 25.3448C47.2515 28.9392 47.0564 32.773 45.6696 36.2445C44.2828 39.7161 41.7828 42.6291 38.5617 44.5265C35.3407 46.4239 31.581 47.1983 27.8723 46.7283C24.1636 46.2583 20.7159 44.5705 18.0701 41.9295C15.4271 39.2843 13.7374 35.8363 13.2663 32.1268C12.7952 28.4173 13.5694 24.6563 15.4673 21.4345C17.3652 18.2126 20.2794 15.7122 23.7522 14.326C27.2251 12.9397 31.06 12.746 34.6548 13.7753C35.0829 13.9004 35.444 14.1899 35.6592 14.5805C35.8745 14.971 35.9264 15.4309 35.8036 15.8596C35.6808 16.2884 35.3933 16.651 35.0039 16.8684C34.6146 17.0858 34.155 17.1402 33.7256 17.0198C31.7154 16.4425 29.5985 16.3403 27.542 16.721C25.4855 17.1017 23.5456 17.9551 21.8753 19.2137C20.2049 20.4723 18.8499 22.1018 17.917 23.9737C16.9841 25.8456 16.4989 27.9086 16.4996 30Z" fill="#77CA7E"/>
<path d="M23.2501 29.9999C23.2502 31.2297 23.5861 32.4362 24.2216 33.4891C24.857 34.5421 25.7679 35.4016 26.8559 35.9749C27.9439 36.5482 29.1678 36.8135 30.3956 36.7423C31.6233 36.6712 32.8084 36.2661 33.8228 35.5709C34.8371 34.8739 35.6416 33.9129 36.1492 32.7918C36.6568 31.6707 36.8483 30.4322 36.7028 29.2102C36.6635 28.9136 36.7039 28.6119 36.82 28.3362C36.936 28.0605 37.1234 27.8206 37.3629 27.6414C37.6024 27.4622 37.8853 27.35 38.1826 27.3165C38.4799 27.283 38.7807 27.3293 39.0541 27.4507C39.3275 27.5705 39.5641 27.7606 39.74 28.0017C39.9159 28.2428 40.0247 28.5263 40.0553 28.8232C40.2998 30.9114 39.8882 33.0239 38.8775 34.8676C37.8668 36.7112 36.3073 38.1945 34.4154 39.1116C32.5234 40.0286 30.3929 40.334 28.3196 39.9852C26.2462 39.6365 24.3328 38.6509 22.845 37.1654C21.3572 35.6798 20.3688 33.768 20.0169 31.6951C19.665 29.6223 19.9671 27.4913 20.8813 25.598C21.7955 23.7047 23.2764 22.1429 25.1185 21.1294C26.9606 20.116 29.0725 19.7011 31.1611 19.9424C31.3847 19.9632 31.602 20.0283 31.8001 20.1341C31.9982 20.2399 32.1732 20.3842 32.3149 20.5585C32.4565 20.7328 32.5619 20.9337 32.6249 21.1493C32.6879 21.3648 32.7073 21.5908 32.6818 21.814C32.6564 22.0371 32.5866 22.253 32.4767 22.4488C32.3667 22.6446 32.2188 22.8166 32.0415 22.9545C31.8642 23.0924 31.6612 23.1936 31.4444 23.252C31.2275 23.3105 31.0012 23.3251 30.7786 23.2949C29.8328 23.1851 28.8745 23.2766 27.9666 23.5634C27.0587 23.8503 26.2218 24.3259 25.5108 24.9592C24.7998 25.5924 24.2308 26.3689 23.8411 27.2377C23.4515 28.1064 23.2501 29.0478 23.2501 29.9999Z" fill="#77CA7E"/>
</svg>
