<svg width="60" height="60" viewBox="0 0 60 60" fill="none" xmlns="http://www.w3.org/2000/svg">
<path d="M0 7.05882C0 3.16034 3.16034 0 7.05882 0H52.9412C56.8397 0 60 3.16034 60 7.05882V52.9412C60 56.8397 56.8397 60 52.9412 60H7.05882C3.16034 60 0 56.8397 0 52.9412V7.05882Z" fill="#FFE9BB" fill-opacity="0.5"/>
<path d="M36.4201 30.5368L31.4714 27.6696L33.9662 21.6844C34.0533 21.5066 34.0938 21.3097 34.084 21.112C34.0742 20.9143 34.0144 20.7224 33.9101 20.5541C33.8059 20.3858 33.6607 20.2467 33.488 20.1498C33.3154 20.0529 33.121 20.0014 32.923 20C32.6598 19.999 32.4041 20.087 32.1972 20.2496L32.1155 20.3196L23.3641 28.6016C23.2325 28.7265 23.1318 28.8803 23.07 29.0508C23.0082 29.2213 22.9869 29.4039 23.0078 29.584C23.0288 29.7642 23.0914 29.937 23.1907 30.0888C23.2899 30.2406 23.4232 30.3672 23.5799 30.4586L28.5298 33.3281L26.0058 39.3821C25.9017 39.6291 25.886 39.9043 25.9611 40.1616C26.0363 40.4188 26.1979 40.6422 26.4187 40.7943C26.6394 40.9463 26.9058 41.0177 27.173 40.9963C27.4402 40.9749 27.6919 40.8621 27.8857 40.6769L36.6371 32.3926C36.7684 32.2676 36.8688 32.1139 36.9304 31.9434C36.992 31.773 37.0131 31.5905 36.9921 31.4105C36.971 31.2305 36.9084 31.0579 36.8091 30.9062C36.7099 30.7546 36.5767 30.6281 36.4201 30.5368Z" fill="#E6C888"/>
</svg>
