<svg width="24" height="25" viewBox="0 0 24 25" fill="none" xmlns="http://www.w3.org/2000/svg">
<path d="M10.5 19.75C15.3326 19.75 19.25 15.8326 19.25 11C19.25 6.16738 15.3326 2.25 10.5 2.25C5.66738 2.25 1.75 6.16781 1.75 11C1.75 15.8322 5.66738 19.75 10.5 19.75Z" stroke="#A5F2FF" stroke-width="1.75"/>
<path d="M2.625 14.0564C3.7765 14.5178 4.60542 14.5178 5.11175 14.0564C5.87125 13.3634 5.21588 11.2616 6.27988 10.682C7.343 10.1023 8.96394 12.6717 10.4786 11.8265C11.9932 10.9808 10.3359 8.7259 11.3868 7.81196C12.4377 6.89802 13.8049 7.92877 14.0437 6.40015C14.2826 4.87152 12.929 5.53477 12.6691 4.09015C12.4965 3.12765 12.4965 2.6216 12.6691 2.57202M12.6963 19.4656C11.8767 18.6265 11.5816 17.8466 11.8112 17.1259C12.1555 16.0444 12.7238 16.1083 12.9714 15.4398C13.2191 14.7713 12.5195 13.8188 14.0718 13.0051C15.1069 12.4626 16.5301 13.0913 18.3413 14.8911" stroke="#A5F2FF" stroke-width="1.75" stroke-linecap="round"/>
<path d="M11.5 9.5C11.5 8.83696 11.7634 8.20107 12.2322 7.73223C12.7011 7.26339 13.337 7 14 7C15.1 7 16.03 7.71 16.37 8.69C16.45 8.95 16.5 9.22 16.5 9.5C16.5 9.8283 16.4353 10.1534 16.3097 10.4567C16.1841 10.76 15.9999 11.0356 15.7678 11.2678C15.5356 11.4999 15.26 11.6841 14.9567 11.8097C14.6534 11.9353 14.3283 12 14 12C12.91 12 12 11.31 11.64 10.34C11.55 10.08 11.5 9.79 11.5 9.5ZM5 9.5C5 14 10.08 20.16 11 21.31L10 22.5C10 22.5 3 14.75 3 9.5C3 6.33 5.11 3.65 8 2.79C6.16 4.44 5 6.83 5 9.5ZM14 2.5C17.86 2.5 21 5.63 21 9.5C21 14.75 14 22.5 14 22.5C14 22.5 7 14.75 7 9.5C7 5.63 10.14 2.5 14 2.5ZM14 4.5C11.24 4.5 9 6.74 9 9.5C9 10.5 9 12.5 14 19.21C19 12.5 19 10.5 19 9.5C19 6.74 16.76 4.5 14 4.5Z" fill="#A5F2FF"/>
</svg>
