<svg width="24" height="25" viewBox="0 0 24 25" fill="none" xmlns="http://www.w3.org/2000/svg">
<path d="M17.9992 20.5H15.9992C15.7159 20.5 15.4786 20.404 15.2872 20.212C15.0959 20.02 14.9999 19.7827 14.9992 19.5C14.9986 19.2173 15.0946 18.98 15.2872 18.788C15.4799 18.596 15.7172 18.5 15.9992 18.5H17.9992V16.5C17.9992 16.2167 18.0952 15.9793 18.2872 15.788C18.4792 15.5967 18.7166 15.5007 18.9992 15.5C19.2819 15.4993 19.5196 15.5953 19.7122 15.788C19.9049 15.9807 20.0006 16.218 19.9992 16.5V18.5H21.9992C22.2826 18.5 22.5202 18.596 22.7122 18.788C22.9042 18.98 22.9999 19.2173 22.9992 19.5C22.9986 19.7827 22.9026 20.0203 22.7112 20.213C22.5199 20.4057 22.2826 20.5013 21.9992 20.5H19.9992V22.5C19.9992 22.7833 19.9032 23.021 19.7112 23.213C19.5192 23.405 19.2819 23.5007 18.9992 23.5C18.7166 23.4993 18.4792 23.4033 18.2872 23.212C18.0952 23.0207 17.9992 22.7833 17.9992 22.5V20.5ZM2.99922 20.5C2.71589 20.5 2.47855 20.404 2.28722 20.212C2.09589 20.02 1.99989 19.7827 1.99922 19.5V14.5H1.82422C1.50755 14.5 1.24922 14.379 1.04922 14.137C0.849219 13.895 0.782552 13.616 0.849219 13.3L1.84922 8.3C1.89922 8.06667 2.01589 7.875 2.19922 7.725C2.38255 7.575 2.59089 7.5 2.82422 7.5H16.1742C16.4076 7.5 16.6159 7.575 16.7992 7.725C16.9826 7.875 17.0992 8.06667 17.1492 8.3L18.1492 13.3C18.2159 13.6167 18.1492 13.896 17.9492 14.138C17.7492 14.38 17.4909 14.5007 17.1742 14.5H16.9992V16.5C16.9992 16.7833 16.9032 17.021 16.7112 17.213C16.5192 17.405 16.2819 17.5007 15.9992 17.5C15.7166 17.4993 15.4792 17.4033 15.2872 17.212C15.0952 17.0207 14.9992 16.7833 14.9992 16.5V14.5H10.9992V19.5C10.9992 19.7833 10.9032 20.021 10.7112 20.213C10.5192 20.405 10.2819 20.5007 9.99922 20.5H2.99922ZM3.99922 18.5H8.99922V14.5H3.99922V18.5ZM2.99922 6.5C2.71589 6.5 2.47855 6.404 2.28722 6.212C2.09589 6.02 1.99989 5.78267 1.99922 5.5C1.99855 5.21733 2.09455 4.98 2.28722 4.788C2.47989 4.596 2.71722 4.5 2.99922 4.5H15.9992C16.2826 4.5 16.5202 4.596 16.7122 4.788C16.9042 4.98 16.9999 5.21733 16.9992 5.5C16.9986 5.78267 16.9026 6.02033 16.7112 6.213C16.5199 6.40567 16.2826 6.50133 15.9992 6.5H2.99922ZM3.04922 12.5H15.9492L15.3492 9.5H3.64922L3.04922 12.5Z" fill="#FFE4AA"/>
</svg>
