<svg width="24" height="25" viewBox="0 0 24 25" fill="none" xmlns="http://www.w3.org/2000/svg">
<path d="M12 22.5C17.523 22.5 22 18.023 22 12.5C22 6.977 17.523 2.5 12 2.5C6.477 2.5 2 6.9775 2 12.5C2 18.0225 6.477 22.5 12 22.5Z" stroke="#BEF9C3" stroke-width="2"/>
<path d="M3 15.993C4.316 16.5204 5.26333 16.5204 5.842 15.993C6.71 15.201 5.961 12.799 7.177 12.1365C8.392 11.474 10.2445 14.4105 11.9755 13.4445C13.7065 12.478 11.8125 9.90104 13.0135 8.85654C14.2145 7.81204 15.777 8.99004 16.05 7.24304C16.323 5.49604 14.776 6.25404 14.479 4.60304C14.2817 3.50304 14.2817 2.92471 14.479 2.86804M14.51 22.175C13.5733 21.216 13.2362 20.3247 13.4985 19.501C13.892 18.265 14.5415 18.338 14.8245 17.574C15.1075 16.81 14.308 15.7215 16.082 14.7915C17.265 14.1715 18.8915 14.89 20.9615 16.947" stroke="#BEF9C3" stroke-width="2" stroke-linecap="round"/>
</svg>
