<svg width="24" height="25" viewBox="0 0 24 25" fill="none" xmlns="http://www.w3.org/2000/svg">
<path fill-rule="evenodd" clip-rule="evenodd" d="M12.3513 9.74835C12.1264 9.52332 12 9.21815 12 8.89995C12 8.58175 12.1264 8.27658 12.3513 8.05155L15.9513 4.45155C16.062 4.33694 16.1945 4.24552 16.3409 4.18263C16.4873 4.11974 16.6447 4.08663 16.8041 4.08525C16.9634 4.08387 17.1214 4.11423 17.2689 4.17456C17.4164 4.2349 17.5503 4.32401 17.663 4.43668C17.7757 4.54935 17.8648 4.68333 17.9251 4.83081C17.9855 4.97828 18.0158 5.1363 18.0144 5.29563C18.0131 5.45497 17.98 5.61243 17.9171 5.75884C17.8542 5.90524 17.7628 6.03765 17.6481 6.14835L14.0481 9.74835C13.8231 9.97332 13.5179 10.0997 13.1997 10.0997C12.8815 10.0997 12.5764 9.97332 12.3513 9.74835Z" fill="#A5F2FF"/>
<path fill-rule="evenodd" clip-rule="evenodd" d="M21.2489 9.7484C21.0239 9.97336 20.7187 10.0997 20.4005 10.0997C20.0823 10.0997 19.7771 9.97336 19.5521 9.7484L15.9521 6.1484C15.7335 5.92208 15.6125 5.61895 15.6153 5.30432C15.618 4.98968 15.7442 4.68871 15.9667 4.46622C16.1892 4.24373 16.4902 4.11753 16.8048 4.11479C17.1194 4.11206 17.4226 4.23301 17.6489 4.4516L21.2489 8.0516C21.4739 8.27663 21.6002 8.5818 21.6002 8.9C21.6002 9.2182 21.4739 9.52337 21.2489 9.7484Z" fill="#A5F2FF"/>
<path fill-rule="evenodd" clip-rule="evenodd" d="M16.8009 6.5C17.1191 6.5 17.4244 6.62643 17.6494 6.85147C17.8745 7.07652 18.0009 7.38174 18.0009 7.7V17.3C18.0009 17.6183 17.8745 17.9235 17.6494 18.1485C17.4244 18.3736 17.1191 18.5 16.8009 18.5C16.4826 18.5 16.1774 18.3736 15.9524 18.1485C15.7273 17.9235 15.6009 17.6183 15.6009 17.3V7.7C15.6009 7.38174 15.7273 7.07652 15.9524 6.85147C16.1774 6.62643 16.4826 6.5 16.8009 6.5ZM11.6493 15.2516C11.8742 15.4766 12.0006 15.7818 12.0006 16.1C12.0006 16.4182 11.8742 16.7234 11.6493 16.9484L8.04928 20.5484C7.82296 20.767 7.51983 20.8879 7.2052 20.8852C6.89056 20.8825 6.58959 20.7563 6.3671 20.5338C6.14461 20.3113 6.0184 20.0103 6.01567 19.6957C6.01294 19.381 6.13389 19.0779 6.35248 18.8516L9.95248 15.2516C10.1775 15.0266 10.4827 14.9003 10.8009 14.9003C11.1191 14.9003 11.4242 15.0266 11.6493 15.2516Z" fill="#A5F2FF"/>
<path fill-rule="evenodd" clip-rule="evenodd" d="M2.75173 15.2515C2.97677 15.0265 3.28194 14.9001 3.60013 14.9001C3.91833 14.9001 4.2235 15.0265 4.44853 15.2515L8.04853 18.8515C8.16315 18.9622 8.25457 19.0946 8.31746 19.241C8.38035 19.3874 8.41345 19.5449 8.41483 19.7042C8.41622 19.8635 8.38586 20.0216 8.32552 20.169C8.26518 20.3165 8.17608 20.4505 8.06341 20.5632C7.95074 20.6758 7.81675 20.7649 7.66928 20.8253C7.5218 20.8856 7.36379 20.916 7.20445 20.9146C7.04512 20.9132 6.88765 20.8801 6.74125 20.8172C6.59484 20.7543 6.46243 20.6629 6.35173 20.5483L2.75173 16.9483C2.52677 16.7233 2.40039 16.4181 2.40039 16.0999C2.40039 15.7817 2.52677 15.4765 2.75173 15.2515Z" fill="#A5F2FF"/>
<path fill-rule="evenodd" clip-rule="evenodd" d="M7.2 18.5C6.88174 18.5 6.57652 18.3736 6.35147 18.1485C6.12643 17.9235 6 17.6183 6 17.3V7.7C6 7.38174 6.12643 7.07652 6.35147 6.85147C6.57652 6.62643 6.88174 6.5 7.2 6.5C7.51826 6.5 7.82348 6.62643 8.04853 6.85147C8.27357 7.07652 8.4 7.38174 8.4 7.7V17.3C8.4 17.6183 8.27357 17.9235 8.04853 18.1485C7.82348 18.3736 7.51826 18.5 7.2 18.5Z" fill="#A5F2FF"/>
</svg>
