<svg width="24" height="25" viewBox="0 0 24 25" fill="none" xmlns="http://www.w3.org/2000/svg">
<path fill-rule="evenodd" clip-rule="evenodd" d="M14 7.5C13.7348 7.5 13.4804 7.60536 13.2929 7.79289C13.1054 7.98043 13 8.23478 13 8.5V16.5C13 16.7652 13.1054 17.0196 13.2929 17.2071C13.4804 17.3946 13.7348 17.5 14 17.5H18C18.2652 17.5 18.5196 17.3946 18.7071 17.2071C18.8946 17.0196 19 16.7652 19 16.5V8.5C19 8.23478 18.8946 7.98043 18.7071 7.79289C18.5196 7.60536 18.2652 7.5 18 7.5H14ZM17 9.5H15V15.5H17V9.5Z" fill="#845186"/>
<path d="M6 7.5C5.73478 7.5 5.48043 7.60536 5.29289 7.79289C5.10536 7.98043 5 8.23478 5 8.5C5 8.76522 5.10536 9.01957 5.29289 9.20711C5.48043 9.39464 5.73478 9.5 6 9.5H10C10.2652 9.5 10.5196 9.39464 10.7071 9.20711C10.8946 9.01957 11 8.76522 11 8.5C11 8.23478 10.8946 7.98043 10.7071 7.79289C10.5196 7.60536 10.2652 7.5 10 7.5H6ZM6 11.5C5.73478 11.5 5.48043 11.6054 5.29289 11.7929C5.10536 11.9804 5 12.2348 5 12.5C5 12.7652 5.10536 13.0196 5.29289 13.2071C5.48043 13.3946 5.73478 13.5 6 13.5H10C10.2652 13.5 10.5196 13.3946 10.7071 13.2071C10.8946 13.0196 11 12.7652 11 12.5C11 12.2348 10.8946 11.9804 10.7071 11.7929C10.5196 11.6054 10.2652 11.5 10 11.5H6ZM5 16.5C5 16.2348 5.10536 15.9804 5.29289 15.7929C5.48043 15.6054 5.73478 15.5 6 15.5H10C10.2652 15.5 10.5196 15.6054 10.7071 15.7929C10.8946 15.9804 11 16.2348 11 16.5C11 16.7652 10.8946 17.0196 10.7071 17.2071C10.5196 17.3946 10.2652 17.5 10 17.5H6C5.73478 17.5 5.48043 17.3946 5.29289 17.2071C5.10536 17.0196 5 16.7652 5 16.5Z" fill="#845186"/>
<path fill-rule="evenodd" clip-rule="evenodd" d="M4 3.5C3.20435 3.5 2.44129 3.81607 1.87868 4.37868C1.31607 4.94129 1 5.70435 1 6.5V18.5C1 19.2956 1.31607 20.0587 1.87868 20.6213C2.44129 21.1839 3.20435 21.5 4 21.5H20C20.7956 21.5 21.5587 21.1839 22.1213 20.6213C22.6839 20.0587 23 19.2956 23 18.5V6.5C23 5.70435 22.6839 4.94129 22.1213 4.37868C21.5587 3.81607 20.7956 3.5 20 3.5H4ZM20 5.5H4C3.73478 5.5 3.48043 5.60536 3.29289 5.79289C3.10536 5.98043 3 6.23478 3 6.5V18.5C3 18.7652 3.10536 19.0196 3.29289 19.2071C3.48043 19.3946 3.73478 19.5 4 19.5H20C20.2652 19.5 20.5196 19.3946 20.7071 19.2071C20.8946 19.0196 21 18.7652 21 18.5V6.5C21 6.23478 20.8946 5.98043 20.7071 5.79289C20.5196 5.60536 20.2652 5.5 20 5.5Z" fill="#845186"/>
</svg>
