<svg width="24" height="25" viewBox="0 0 24 25" fill="none" xmlns="http://www.w3.org/2000/svg">
<path d="M4.929 16.8785C3.119 17.4215 2 18.1715 2 19C2 20.657 6.477 22 12 22C17.523 22 22 20.657 22 19C22 18.1715 20.8805 17.4215 19.071 16.8785" stroke="#9AE1A0" stroke-width="2" stroke-linecap="round" stroke-linejoin="round"/>
<path d="M12 18C12 18 18.5 13.752 18.5 8.841C18.5 5.339 15.59 2.5 12 2.5C8.41 2.5 5.5 5.339 5.5 8.841C5.5 13.752 12 18 12 18Z" stroke="#9AE1A0" stroke-width="2" stroke-linejoin="round"/>
<path d="M12 11.5C12.663 11.5 13.2989 11.2366 13.7678 10.7678C14.2366 10.2989 14.5 9.66304 14.5 9C14.5 8.33696 14.2366 7.70107 13.7678 7.23223C13.2989 6.76339 12.663 6.5 12 6.5C11.337 6.5 10.7011 6.76339 10.2322 7.23223C9.76339 7.70107 9.5 8.33696 9.5 9C9.5 9.66304 9.76339 10.2989 10.2322 10.7678C10.7011 11.2366 11.337 11.5 12 11.5Z" stroke="#9AE1A0" stroke-width="2" stroke-linejoin="round"/>
</svg>
