<svg width="24" height="25" viewBox="0 0 24 25" fill="none" xmlns="http://www.w3.org/2000/svg">
<path d="M21.4 14.75L14.25 21.9C14.05 22.1 13.825 22.25 13.575 22.35C13.325 22.45 13.075 22.5 12.825 22.5C12.575 22.5 12.325 22.45 12.075 22.35C11.825 22.25 11.6 22.1 11.4 21.9L2.575 13.075C2.39167 12.8917 2.25 12.6793 2.15 12.438C2.05 12.1967 2 11.9423 2 11.675V4.5C2 3.95 2.196 3.47933 2.588 3.088C2.98 2.69667 3.45067 2.50067 4 2.5H11.175C11.4417 2.5 11.7 2.55433 11.95 2.663C12.2 2.77167 12.4167 2.91733 12.6 3.1L21.4 11.925C21.6 12.125 21.746 12.35 21.838 12.6C21.93 12.85 21.9757 13.1 21.975 13.35C21.9743 13.6 21.9287 13.846 21.838 14.088C21.7473 14.33 21.6013 14.5507 21.4 14.75ZM12.825 20.5L19.975 13.35L11.15 4.5H4V11.65L12.825 20.5ZM6.5 8.5C6.91667 8.5 7.271 8.35433 7.563 8.063C7.855 7.77167 8.00067 7.41733 8 7C7.99933 6.58267 7.85367 6.22867 7.563 5.938C7.27233 5.64733 6.918 5.50133 6.5 5.5C6.082 5.49867 5.728 5.64467 5.438 5.938C5.148 6.23133 5.002 6.58533 5 7C4.998 7.41467 5.144 7.769 5.438 8.063C5.732 8.357 6.086 8.50267 6.5 8.5Z" fill="#845186"/>
</svg>
