<svg width="32" height="32" viewBox="0 0 32 32" fill="none" xmlns="http://www.w3.org/2000/svg">
<path d="M21.9993 16C21.9993 15.0933 21.9193 14.2133 21.8127 13.3333H26.3193C26.5327 14.1866 26.666 15.08 26.666 16C26.666 16.4933 26.626 16.9733 26.5593 17.44C27.4793 17.5733 28.3327 17.8666 29.1194 18.2933C29.2527 17.5466 29.3327 16.7866 29.3327 16C29.3327 8.66663 23.3327 2.66663 15.9993 2.66663C8.62602 2.66663 2.66602 8.66663 2.66602 16C2.66602 23.3333 8.66602 29.3333 15.9993 29.3333C16.786 29.3333 17.546 29.2533 18.2927 29.12C17.6594 27.9585 17.3292 26.6562 17.3327 25.3333C17.3327 24.9466 17.3727 24.5733 17.426 24.2C16.9993 25.04 16.5327 25.8533 15.9993 26.6133C14.8927 25.0133 13.9993 23.24 13.4527 21.3333H18.4127C19.2135 19.9418 20.4176 18.826 21.866 18.1333C21.946 17.4266 21.9993 16.72 21.9993 16ZM15.9993 5.37329C17.106 6.97329 17.9993 8.75996 18.546 10.6666H13.4527C13.9993 8.75996 14.8927 6.97329 15.9993 5.37329ZM5.67935 18.6666C5.46602 17.8133 5.33268 16.92 5.33268 16C5.33268 15.08 5.46602 14.1866 5.67935 13.3333H10.186C10.0793 14.2133 9.99935 15.0933 9.99935 16C9.99935 16.9066 10.0793 17.7866 10.186 18.6666H5.67935ZM6.77268 21.3333H10.666C11.1327 23 11.7327 24.6 12.5327 26.08C10.1037 25.243 8.0584 23.5575 6.77268 21.3333ZM10.666 10.6666H6.77268C8.05087 8.436 10.0989 6.74828 12.5327 5.91996C11.7327 7.39996 11.1327 8.99996 10.666 10.6666ZM19.1194 18.6666H12.8793C12.746 17.7866 12.666 16.9066 12.666 16C12.666 15.0933 12.746 14.2 12.8793 13.3333H19.1194C19.2393 14.2 19.3327 15.0933 19.3327 16C19.3327 16.9066 19.2393 17.7866 19.1194 18.6666ZM19.4527 5.91996C21.906 6.75996 23.946 8.45329 25.226 10.6666H21.2927C20.8747 9.01544 20.2568 7.42143 19.4527 5.91996ZM29.9993 23L23.666 29.3333L19.9993 25.3333L21.546 23.7866L23.666 25.9066L28.4527 21.12L29.9993 23Z" fill="#FFE4AA"/>
</svg>
