<svg width="60" height="61" fill="none" xmlns="http://www.w3.org/2000/svg"><path d="M0 7.559A7.059 7.059 0 017.059.5H52.94A7.059 7.059 0 0160 7.559V53.44a7.059 7.059 0 01-7.059 7.059H7.06A7.059 7.059 0 010 53.441V7.56z" fill="#FFE9BB" fill-opacity=".3"/><g clip-path="url(#clip0_1417_13671)"><path d="M32.117 15.617v2.695h2.124c.655 0 1.3.173 1.87.499l2.78 1.587a.533.533 0 00.268.07h4.817a1.617 1.617 0 110 3.235h-.92l4.552 10.117a1.617 1.617 0 01-.333 1.807l-1.142-1.143 1.14 1.145-.002.005-.004.004-.013.013-.013.01-.022.022-.097.087a7.63 7.63 0 01-1.479.97c-1.007.504-2.465.979-4.362.979a9.704 9.704 0 01-4.362-.98 7.545 7.545 0 01-1.48-.97l-.096-.086-.035-.032-.013-.013-.008-.009v-.002a1.617 1.617 0 01-.332-1.807l4.554-10.117h-.35c-.657 0-1.302-.17-1.871-.498l-2.782-1.587a.54.54 0 00-.267-.071h-2.122V42.03h5.39a1.617 1.617 0 110 3.235H23.493a1.617 1.617 0 110-3.235h5.39V21.547h-2.121a.54.54 0 00-.267.071l-2.78 1.59a3.804 3.804 0 01-1.874.495h-.349l4.554 10.117a1.617 1.617 0 01-.332 1.807l-1.143-1.143 1.14 1.145-.001.005-.005.004-.013.013-.034.032-.097.087a7.63 7.63 0 01-1.48.97c-1.006.504-2.464.979-4.361.979a9.704 9.704 0 01-4.363-.98 7.545 7.545 0 01-1.479-.97l-.097-.086-.034-.032-.013-.013-.009-.009v-.002a1.617 1.617 0 01-.332-1.807l4.554-10.117h-.923a1.617 1.617 0 010-3.234h4.817a.54.54 0 00.27-.071l2.777-1.59a3.804 3.804 0 011.874-.495h2.122v-2.696a1.617 1.617 0 113.234 0zm6.35 18.279c.615.29 1.548.588 2.814.588s2.2-.297 2.814-.588l-2.814-6.253-2.814 6.253zm-21.562 0c.614.29 1.548.588 2.813.588 1.266 0 2.2-.297 2.814-.588l-2.814-6.253-2.813 6.253z" fill="#E6C888"/></g><defs><clipPath id="clip0_1417_13671"><path fill="#fff" transform="translate(13.25 14)" d="M0 0h34.5v34.5H0z"/></clipPath></defs></svg>