<svg width="60" height="61" fill="none" xmlns="http://www.w3.org/2000/svg"><path d="M0 7.559A7.059 7.059 0 017.059.5H52.94A7.059 7.059 0 0160 7.559V53.44a7.059 7.059 0 01-7.059 7.059H7.06A7.059 7.059 0 010 53.441V7.56z" fill="#FFE9BB" fill-opacity=".3"/><path d="M25.5 20h-3a3 3 0 00-3 3v18a3 3 0 003 3h15a3 3 0 003-3V23a3 3 0 00-3-3h-3" stroke="#E6C888" stroke-width="3" stroke-linecap="round" stroke-linejoin="round"/><path d="M27 33.5h6m-3-3v6M25.5 20a3 3 0 013-3h3a3 3 0 010 6h-3a3 3 0 01-3-3z" stroke="#E6C888" stroke-width="3" stroke-linecap="round" stroke-linejoin="round"/></svg>