<svg width="60" height="61" fill="none" xmlns="http://www.w3.org/2000/svg"><path d="M0 7.559A7.059 7.059 0 017.059.5H52.94A7.059 7.059 0 0160 7.559V53.44a7.059 7.059 0 01-7.059 7.059H7.06A7.059 7.059 0 010 53.441V7.56z" fill="#FFE9BB" fill-opacity=".3"/><path d="M18 44a2.888 2.888 0 01-2.118-.88A2.895 2.895 0 0115 41V24.5c0-.825.294-1.531.882-2.118A2.896 2.896 0 0118 21.5h6v-3c0-.825.294-1.531.882-2.118A2.896 2.896 0 0127 15.5h6a2.89 2.89 0 012.12.882c.588.588.881 1.294.88 2.118v3h6a2.89 2.89 0 012.12.882c.588.588.881 1.294.88 2.118V41c0 .825-.294 1.532-.88 2.12A2.882 2.882 0 0142 44H18zm9-22.5h6v-3h-6v3zM42 35h-7.5v3h-9v-3H18v6h24v-6zm-13.5 0h3v-3h-3v3zM18 32h7.5v-3h9v3H42v-7.5H18V32z" fill="#E6C888"/></svg>