<svg width="60" height="61" fill="none" xmlns="http://www.w3.org/2000/svg"><path d="M0 7.559A7.059 7.059 0 017.059.5H52.94A7.059 7.059 0 0160 7.559V53.44a7.059 7.059 0 01-7.059 7.059H7.06A7.059 7.059 0 010 53.441V7.56z" fill="#FFE9BB" fill-opacity=".3"/><path d="M45 28.25v2.25c0 7.071 0 10.606-2.197 12.803C40.608 45.5 37.07 45.5 30 45.5c-7.071 0-10.607 0-12.804-2.197C15 41.108 15 37.57 15 30.5c0-1.692 0-3.183.03-4.5m17.22-10.5H30c-7.071 0-10.607 0-12.804 2.196-.66.662-1.123 1.444-1.446 2.409" stroke="#E6C888" stroke-width="2" stroke-linecap="round"/><path d="M22.5 33.5l2.695-3.234c1.069-1.282 1.602-1.923 2.305-1.923.703 0 1.237.64 2.305 1.923l.39.468c1.068 1.282 1.602 1.923 2.306 1.923.703 0 1.236-.64 2.303-1.923L37.5 27.5" stroke="#E6C888" stroke-width="2" stroke-linecap="round"/><path d="M40.5 24.5a4.5 4.5 0 100-9 4.5 4.5 0 000 9z" stroke="#E6C888" stroke-width="2"/></svg>