<svg width="60" height="61" fill="none" xmlns="http://www.w3.org/2000/svg"><path d="M0 7.559A7.059 7.059 0 017.059.5H52.94A7.059 7.059 0 0160 7.559V53.44a7.059 7.059 0 01-7.059 7.059H7.06A7.059 7.059 0 010 53.441V7.56z" fill="#FFE9BB" fill-opacity=".3"/><path d="M30 19.044c-4.5-2.446-13.5-4.7-13.5 5.871 0 8.238 1.782 14.634 4.508 18.212.967 1.27 3.323.876 4.332-.398a1.8 1.8 0 00.26-.492l1.595-4.2c.981-2.58 4.629-2.58 5.61 0l1.595 4.2c.067.174.145.345.26.492 1.009 1.275 3.365 1.668 4.333.398 2.725-3.578 4.507-9.972 4.507-18.212 0-10.569-9-8.317-13.5-5.87zm0 0l4.5 2.456" stroke="#E6C888" stroke-width="2" stroke-linecap="round" stroke-linejoin="round"/></svg>