<svg width="60" height="61" fill="none" xmlns="http://www.w3.org/2000/svg"><path d="M0 7.559A7.059 7.059 0 017.059.5H52.94A7.059 7.059 0 0160 7.559V53.44a7.059 7.059 0 01-7.059 7.059H7.06A7.059 7.059 0 010 53.441V7.56z" fill="#FFE9BB" fill-opacity=".3"/><path d="M30 39.5c2.5 0 4.625-.875 6.375-2.625S39 33 39 30.5s-.875-4.625-2.625-6.375S32.5 21.5 30 21.5s-4.625.875-6.375 2.625S21 28 21 30.5s.875 4.625 2.625 6.375S27.5 39.5 30 39.5zm0-3a5.754 5.754 0 01-2.1-.393A6.236 6.236 0 0126.063 35h7.875a6.28 6.28 0 01-1.838 1.107 5.713 5.713 0 01-2.1.393zm-5.175-3a6.033 6.033 0 01-.75-2.25h11.85a6.033 6.033 0 01-.75 2.25h-10.35zm-.75-3.75a6.033 6.033 0 01.75-2.25h10.35a6.033 6.033 0 01.75 2.25h-11.85zM26.063 26a6.253 6.253 0 011.837-1.105A5.777 5.777 0 0130 24.5a5.713 5.713 0 012.1.393A6.28 6.28 0 0133.937 26h-7.874zM19.5 44a2.888 2.888 0 01-2.118-.88A2.895 2.895 0 0116.5 41V20c0-.825.294-1.531.882-2.118A2.896 2.896 0 0119.5 17h21a2.89 2.89 0 012.12.882c.588.588.881 1.294.88 2.118v21c0 .825-.294 1.532-.88 2.12a2.882 2.882 0 01-2.12.88h-21zm0-3h21V20h-21v21z" fill="#E6C888"/></svg>