<svg width="60" height="61" fill="none" xmlns="http://www.w3.org/2000/svg"><path d="M0 7.559A7.059 7.059 0 017.059.5H52.94A7.059 7.059 0 0160 7.559V53.44a7.059 7.059 0 01-7.059 7.059H7.06A7.059 7.059 0 010 53.441V7.56z" fill="#FFE9BB" fill-opacity=".3"/><path d="M39 42.5h-3c-.424 0-.78-.144-1.067-.432A1.459 1.459 0 0134.5 41c-.001-.424.143-.78.432-1.068A1.454 1.454 0 0136 39.5h3v-3c0-.425.144-.781.432-1.068A1.459 1.459 0 0140.5 35a1.45 1.45 0 011.07.432c.288.289.432.645.43 1.068v3h3c.425 0 .781.144 1.07.432.287.288.43.644.43 1.068-.001.424-.145.78-.432 1.07A1.435 1.435 0 0145 42.5h-3v3c0 .425-.144.782-.432 1.07A1.446 1.446 0 0140.5 47a1.459 1.459 0 01-1.068-.432A1.448 1.448 0 0139 45.5v-3zm-22.5 0c-.424 0-.78-.144-1.067-.432A1.459 1.459 0 0115 41v-7.5h-.263c-.475 0-.862-.181-1.162-.544-.3-.364-.4-.782-.3-1.256l1.5-7.5c.075-.35.25-.637.525-.863a1.44 1.44 0 01.937-.337h20.025c.35 0 .663.113.938.337.275.226.45.513.525.863l1.5 7.5c.1.475 0 .894-.3 1.257-.3.363-.688.544-1.163.543H37.5v3c0 .425-.144.782-.432 1.07A1.446 1.446 0 0136 38a1.459 1.459 0 01-1.068-.432A1.448 1.448 0 0134.5 36.5v-3h-6V41c0 .425-.144.782-.432 1.07A1.446 1.446 0 0127 42.5H16.5zm1.5-3h7.5v-6H18v6zm-1.5-18c-.424 0-.78-.144-1.067-.432A1.459 1.459 0 0115 20c-.001-.424.143-.78.432-1.068A1.454 1.454 0 0116.5 18.5H36c.425 0 .781.144 1.07.432.287.288.43.644.43 1.068-.001.424-.145.78-.432 1.07A1.435 1.435 0 0136 21.5H16.5zm.076 9h19.35l-.9-4.5h-17.55l-.9 4.5z" fill="#E6C888"/></svg>