<svg width="60" height="61" fill="none" xmlns="http://www.w3.org/2000/svg"><path d="M0 7.559A7.059 7.059 0 017.059.5H52.94A7.059 7.059 0 0160 7.559V53.44a7.059 7.059 0 01-7.059 7.059H7.06A7.059 7.059 0 010 53.441V7.56z" fill="#FFE9BB" fill-opacity=".3"/><path d="M41.281 46.344h-2.156v-3.235a5.397 5.397 0 00-5.39-5.39h-6.47a5.397 5.397 0 00-5.39 5.39v3.235h-2.156v-3.235a7.557 7.557 0 017.547-7.547h6.468a7.558 7.558 0 017.547 7.547v3.235zm-22.64-25.875a1.078 1.078 0 00-1.078 1.078v9.703h2.156v-9.703a1.078 1.078 0 00-1.078-1.078z" fill="#E6C888"/><path d="M17.563 16.156v2.157h5.39v7.546a7.547 7.547 0 1015.094 0v-7.547h5.39v-2.156H17.564zm7.546 2.157h10.782v3.234H25.109v-3.235zM30.5 31.25a5.39 5.39 0 01-5.39-5.39v-2.157h10.78v2.156a5.39 5.39 0 01-5.39 5.391z" fill="#E6C888"/></svg>