<svg width="10" height="13" fill="none" xmlns="http://www.w3.org/2000/svg"><path d="M8.772 5.967c-.153-.2-.34-.374-.513-.547-.447-.4-.953-.687-1.38-1.107C5.886 3.34 5.666 1.733 6.3.5c-.633.153-1.187.5-1.66.88-1.727 1.387-2.407 3.833-1.593 5.933.026.067.053.134.053.22 0 .147-.1.28-.233.334a.415.415 0 01-.44-.08.4.4 0 01-.094-.114c-.753-.953-.873-2.32-.366-3.413C.852 5.167.246 6.7.332 8.147c.04.333.08.666.194 1 .093.4.273.8.473 1.153.72 1.153 1.967 1.98 3.307 2.147 1.426.18 2.953-.08 4.046-1.067 1.22-1.107 1.647-2.88 1.02-4.4l-.086-.173c-.14-.307-.514-.84-.514-.84zm-2.106 4.2c-.187.16-.494.333-.734.4-.746.266-1.493-.107-1.933-.547a1.85 1.85 0 001.407-1.367c.113-.533-.1-.973-.187-1.486-.08-.494-.067-.914.113-1.374.127.254.26.507.42.707.514.667 1.32.96 1.494 1.867.026.093.04.186.04.286.02.547-.22 1.147-.62 1.514z" fill="#323137"/></svg>