<svg width="60" height="60" fill="none" xmlns="http://www.w3.org/2000/svg"><path d="M0 7.059A7.059 7.059 0 017.059 0H52.94A7.059 7.059 0 0160 7.059V52.94A7.059 7.059 0 0152.941 60H7.06A7.059 7.059 0 010 52.941V7.06z" fill="#FFEFCC"/><path d="M40.486 44.2l-6.207-6.17-1.41 4.285c-.157.44-.455.652-.894.637-.439-.015-.737-.243-.894-.684l-4.279-14.27c-.125-.345-.046-.659.236-.942.282-.282.595-.36.94-.235l14.248 4.286c.439.157.666.455.682.895.017.44-.195.737-.635.894l-4.28 1.413 6.208 6.217c.532.534.799 1.146.799 1.837 0 .69-.267 1.303-.8 1.836-.532.534-1.151.801-1.856.801-.705 0-1.324-.267-1.858-.8zM15 26.302c0-3.14 1.097-5.809 3.291-8.006C20.486 16.099 23.151 15 26.285 15c2.414 0 4.57.668 6.467 2.003 1.897 1.334 3.252 3.069 4.066 5.203.188.502.18.989-.022 1.46-.203.47-.556.8-1.06.989-.502.188-.98.18-1.433-.023-.452-.203-.774-.557-.964-1.06-.533-1.413-1.442-2.568-2.728-3.463-1.285-.896-2.727-1.343-4.326-1.341-2.069 0-3.84.738-5.313 2.213-1.474 1.476-2.21 3.25-2.21 5.322 0 1.601.447 3.046 1.34 4.333.895 1.287 2.047 2.198 3.456 2.731.502.189.855.518 1.059.99.204.47.212.957.023 1.46-.19.502-.519.847-.988 1.035-.469.189-.955.189-1.458 0-2.163-.816-3.902-2.19-5.22-4.121C15.659 30.799 15 28.656 15 26.303z" fill="#E6C888"/></svg>