<svg width="60" height="60" fill="none" xmlns="http://www.w3.org/2000/svg"><path d="M0 7.059A7.059 7.059 0 017.059 0H52.94A7.059 7.059 0 0160 7.059V52.94A7.059 7.059 0 0152.941 60H7.06A7.059 7.059 0 010 52.941V7.06z" fill="#FFE9BB"/><path d="M19.6 41a2.553 2.553 0 01-1.836-.734c-.508-.489-.763-1.078-.764-1.766v-15c0-.688.255-1.276.764-1.765A2.56 2.56 0 0119.6 21h20.8c.715 0 1.327.245 1.837.735S43 22.813 43 23.5v15c0 .688-.254 1.276-.763 1.766A2.548 2.548 0 0140.4 41H19.6zM30 32.25L40.4 26v-2.5L30 29.75 19.6 23.5V26L30 32.25z" fill="#E6C888"/></svg>