<svg width="60" height="60" fill="none" xmlns="http://www.w3.org/2000/svg"><path d="M0 7.059A7.059 7.059 0 017.059 0H52.94A7.059 7.059 0 0160 7.059V52.94A7.059 7.059 0 0152.941 60H7.06A7.059 7.059 0 010 52.941V7.06z" fill="#A7B2E2"/><path fill-rule="evenodd" clip-rule="evenodd" d="M33.312 19.245c.68.21 1.33.48 1.95.81l2.75-1.65a1.5 1.5 0 011.831.225l1.527 1.527a1.5 1.5 0 01.225 1.831l-1.65 2.75c.33.62.6 1.27.81 1.95l3.11.779A1.5 1.5 0 0145 28.922v2.156a1.5 1.5 0 01-1.136 1.455l-3.109.779c-.21.68-.48 1.33-.81 1.95l1.65 2.75a1.5 1.5 0 01-.225 1.831l-1.527 1.527a1.5 1.5 0 01-1.832.225l-2.749-1.65c-.62.33-1.27.6-1.95.81l-.779 3.11A1.5 1.5 0 0131.078 45h-2.156a1.5 1.5 0 01-1.456-1.136l-.778-3.109a11.255 11.255 0 01-1.95-.81l-2.75 1.65a1.5 1.5 0 01-1.831-.225l-1.527-1.527a1.5 1.5 0 01-.225-1.832l1.65-2.749a11.255 11.255 0 01-.81-1.95l-3.11-.779A1.5 1.5 0 0115 31.08v-2.157a1.5 1.5 0 011.136-1.455l3.109-.779c.21-.68.48-1.33.81-1.95l-1.65-2.749a1.5 1.5 0 01.225-1.831l1.527-1.529a1.5 1.5 0 011.831-.225l2.75 1.65c.62-.33 1.27-.6 1.95-.81l.779-3.11A1.5 1.5 0 0128.92 15h2.157a1.5 1.5 0 011.455 1.136l.78 3.109zM30 36a6 6 0 100-12 6 6 0 000 12z" fill="#6D7FCE"/></svg>