<svg width="60" height="60" fill="none" xmlns="http://www.w3.org/2000/svg"><path d="M0 7.059A7.059 7.059 0 017.059 0H52.94A7.059 7.059 0 0160 7.059V52.94A7.059 7.059 0 0152.941 60H7.06A7.059 7.059 0 010 52.941V7.06z" fill="#D8FBDB"/><path d="M21 16.5V21h-4.5v-4.5H21zm-6.75-2.25v9h9v-9h-9zm18 5.625v4.5h-4.5v-4.5h4.5zm-6.75-2.25v9h9v-9h-9zM21 30v4.5h-4.5V30H21zm-6.75-2.25v9h9v-9h-9z" fill="#77CA7E"/><path d="M36.75 23.25V30H30v6.75h-6.75v9h22.5v-22.5h-9zm-4.5 9h4.5v4.5h-4.5v-4.5zM30 43.5h-4.5V39H30v4.5zm6.75 0h-4.5V39h4.5v4.5zm6.75 0H39V39h4.5v4.5zm0-6.75H39v-4.5h4.5v4.5zM39 30v-4.5h4.5V30H39z" fill="#77CA7E"/></svg>