<svg width="60" height="60" fill="none" xmlns="http://www.w3.org/2000/svg"><path d="M0 7.059A7.059 7.059 0 017.059 0H52.94A7.059 7.059 0 0160 7.059V52.94A7.059 7.059 0 0152.941 60H7.06A7.059 7.059 0 010 52.941V7.06z" fill="#A7B2E2"/><path d="M18 40.5l-1.396-.555a1.5 1.5 0 001.688 2.025l-.293-1.47zm7.058-1.404l.711-1.321-.475-.255-.528.104.292 1.472zm-4.623-4.72l1.395.555.245-.621-.294-.599-1.346.665zM40.5 30c0 4.869-4.28 9-9.795 9v3C37.666 42 43.5 36.729 43.5 30h-3zm-19.588 0c0-4.869 4.28-9 9.795-9v-3c-6.962 0-12.797 5.271-12.797 12h3.002zm9.795-9c5.514 0 9.793 4.131 9.793 9h3c0-6.729-5.832-12-12.793-12v3zm-.002 18c-1.807 0-3.49-.45-4.935-1.225l-1.422 2.641A13.343 13.343 0 0030.704 42v-3zm-12.412 2.97l7.059-1.404-.585-2.942-7.06 1.404.586 2.944v-.002zm3.489-8.259A8.4 8.4 0 0120.91 30h-3.002c0 1.8.423 3.507 1.18 5.04l2.692-1.329zm-2.74.11l-2.437 6.126 2.787 1.106 2.436-6.124-2.787-1.108h.002zM25.5 31.5a1.5 1.5 0 100-3 1.5 1.5 0 000 3zm5.25 0a1.5 1.5 0 100-3 1.5 1.5 0 000 3zm5.25 0a1.5 1.5 0 100-3 1.5 1.5 0 000 3z" fill="#6D7FCE"/></svg>