<svg width="60" height="60" fill="none" xmlns="http://www.w3.org/2000/svg"><path d="M0 7.059A7.059 7.059 0 017.059 0H52.94A7.059 7.059 0 0160 7.059V52.94A7.059 7.059 0 0152.941 60H7.06A7.059 7.059 0 010 52.941V7.06z" fill="#FFE4AA"/><path d="M31.5 21l3-3c1.5-1.5 4.5-1.5 6 0l1.5 1.5c1.5 1.5 1.5 4.5 0 6L34.5 33c-1.5 1.5-4.5 1.5-6 0m0 6l-3 3c-1.5 1.5-4.5 1.5-6 0L18 40.5c-1.5-1.5-1.5-4.5 0-6l7.5-7.5c1.5-1.5 4.5-1.5 6 0" stroke="#CDAC66" stroke-width="3" stroke-linecap="round" stroke-linejoin="round"/></svg>