<svg width="60" height="60" fill="none" xmlns="http://www.w3.org/2000/svg"><path d="M0 7.059A7.059 7.059 0 017.059 0H52.94A7.059 7.059 0 0160 7.059V52.94A7.059 7.059 0 0152.941 60H7.06A7.059 7.059 0 010 52.941V7.06z" fill="#6D7FCE"/><path d="M30 37.905l6.224 3.765c1.14.69 2.536-.33 2.236-1.62l-1.65-7.08 5.505-4.77c1.005-.87.465-2.52-.855-2.625l-7.245-.615-2.836-6.69c-.51-1.215-2.25-1.215-2.76 0l-2.834 6.675-7.245.615c-1.32.105-1.86 1.755-.855 2.625l5.505 4.77-1.65 7.08c-.3 1.29 1.095 2.31 2.235 1.62L30 37.905z" fill="#C5CCEB"/></svg>