<svg width="32" height="33" fill="none" xmlns="http://www.w3.org/2000/svg"><path d="M31.395 13.3c.171 0 .319.12.347.286.167.935.258 1.941.258 2.914a15.946 15.946 0 01-4.076 10.668.35.35 0 01-.488.032l-4.346-3.68a.365.365 0 01-.029-.528 9.6 9.6 0 001.98-3.292h-8.685a.356.356 0 01-.356-.356v-5.689c0-.195.16-.355.356-.355h15.04zM20.396 25.033a.373.373 0 01.402.043l4.566 3.863a.348.348 0 01-.018.55A15.928 15.928 0 0116 32.5a16 16 0 01-13.419-7.284.35.35 0 01.082-.467l4.525-3.488a.369.369 0 01.538.11 9.6 9.6 0 0012.67 3.662zM6.542 18.146a.355.355 0 01-.135.35l-4.862 3.746a.348.348 0 01-.54-.15A16 16 0 010 16.5c0-2.048.386-4.007 1.088-5.808a.349.349 0 01.532-.151l4.856 3.563a.363.363 0 01.14.37 9.6 9.6 0 00-.074 3.672zm.83-6.693a.368.368 0 00.525-.103A9.6 9.6 0 0116 6.9c2.235 0 4.399.783 6.116 2.213a.365.365 0 00.49-.017l4.029-4.03a.35.35 0 00-.013-.51A15.911 15.911 0 0016 .5 15.982 15.982 0 002.695 7.611a.35.35 0 00.087.475l4.59 3.367z" fill="#BEF9C3"/></svg>