<svg width="32" height="33" fill="none" xmlns="http://www.w3.org/2000/svg"><path d="M22 16.5c0-.907-.08-1.787-.187-2.667h4.506c.214.854.347 1.747.347 2.667 0 .493-.04.973-.107 1.44.92.133 1.774.427 2.56.853.134-.746.214-1.506.214-2.293 0-7.333-6-13.333-13.334-13.333-7.373 0-13.333 6-13.333 13.333s6 13.333 13.333 13.333c.787 0 1.547-.08 2.294-.213a7.867 7.867 0 01-.96-3.787c0-.386.04-.76.093-1.133-.427.84-.893 1.653-1.427 2.413-1.106-1.6-2-3.373-2.546-5.28h4.96a7.934 7.934 0 013.453-3.2c.08-.706.133-1.413.133-2.133zM16 5.873c1.106 1.6 2 3.387 2.546 5.294h-5.093c.546-1.907 1.44-3.694 2.546-5.294zM5.68 19.167a10.989 10.989 0 01-.347-2.667c0-.92.133-1.813.346-2.667h4.507c-.107.88-.187 1.76-.187 2.667 0 .907.08 1.787.187 2.667H5.679zm1.093 2.666h3.893c.467 1.667 1.067 3.267 1.867 4.747a10.667 10.667 0 01-5.76-4.747zm3.893-10.666H6.773a10.56 10.56 0 015.76-4.747c-.8 1.48-1.4 3.08-1.867 4.747zm8.453 8h-6.24c-.133-.88-.213-1.76-.213-2.667 0-.907.08-1.8.213-2.667h6.24c.12.867.214 1.76.214 2.667 0 .907-.094 1.787-.214 2.667zm.334-12.747a10.65 10.65 0 015.773 4.747h-3.933a20.939 20.939 0 00-1.84-4.747zM29.999 23.5l-6.333 6.333-3.667-4 1.547-1.546 2.12 2.12 4.787-4.787 1.546 1.88z" fill="#8A99D8"/></svg>