<svg width="32" height="33" fill="none" xmlns="http://www.w3.org/2000/svg"><path d="M8.103 27.167L4.929 30.34a.518.518 0 01-.593.13.485.485 0 01-.336-.494v-19.32c0-.614.206-1.127.617-1.537.412-.411.924-.617 1.536-.619h19.694c.613 0 1.125.206 1.536.617.41.412.616.924.617 1.538v14.358c0 .614-.206 1.126-.617 1.538-.412.411-.924.617-1.536.616H8.103zM16 20.723l2.227 1.354c.192.121.385.111.578-.029a.522.522 0 00.216-.568l-.59-2.516 1.96-1.684c.186-.166.244-.358.173-.576-.071-.218-.228-.338-.472-.36l-2.581-.233-1.014-2.375a.502.502 0 00-.497-.324.502.502 0 00-.497.324l-1.014 2.373-2.581.235c-.243.022-.4.142-.472.36-.072.218-.014.41.173.576l1.96 1.684-.589 2.515a.521.521 0 00.215.569c.193.141.386.151.58.03L16 20.722z" fill="#A5F2FF"/></svg>