<svg width="270" height="121" fill="none" xmlns="http://www.w3.org/2000/svg"><rect y=".688" width="270" height="120" rx="24" fill="#fff"/><path d="M45.256 71.395c3.484-1.435 16.025-6.742 16.025-18.402 0-7.541-5.615-12.808-14.754-12.808-7.89 0-14.53 5.267-14.53 12.808 0 7.357 6.353 12.562 13.997 12.787l-.02.02c-3.587 2.48-8.464 4.447-13.607 6.824v7.746H61.28v-8.955H45.256v-.02zm-8.074-16.68c-.39-3.361 1.64-7.07 6.701-7.5 3.484-.288 7.357 1.741 7.52 6.372.124 3.32-.758 6.189-2.95 8.545-3.996 0-10.513-.983-11.27-7.418zM98.35 41.15h8.627l5.308 39.222h-8.402l-3.053-22.664-8.033 22.664h-7.541l-8.033-22.664-3.053 22.664h-8.853l5.308-39.222h8.627l9.713 26.005L98.35 41.15zm56.783 19.61c0 12.009-9.385 20.43-20.533 20.43-11.147 0-20.533-8.4-20.533-20.43 0-12.008 9.386-20.43 20.533-20.43 11.148 0 20.533 8.402 20.533 20.43zm-8.525 0c0-6.782-5.245-11.475-12.008-11.475-6.762 0-12.008 4.693-12.008 11.476 0 6.782 5.246 11.475 12.008 11.475 6.763 0 12.008-4.713 12.008-11.476zm53.464 0c0 12.009-9.386 20.43-20.533 20.43-11.147 0-20.533-8.4-20.533-20.43 0-12.008 9.386-20.43 20.533-20.43 11.147 0 20.533 8.402 20.533 20.43zm-8.525 0c0-6.782-5.246-11.475-12.008-11.475-6.783 0-12.008 4.693-12.008 11.476 0 6.782 5.246 11.475 12.008 11.475 6.783-.02 12.008-4.713 12.008-11.476zm24.98-19.61c12.459 0 21.475 7.111 21.475 19.611 0 12.336-9.221 19.61-21.475 19.61h-12.398v-39.22h12.398zm2.192 8.955h-6.291v21.312h6.291c6.127 0 10.759-4.262 10.759-10.656 0-5.963-4.468-10.656-10.759-10.656z" fill="#323137"/></svg>