<svg width="149" height="91" fill="none" xmlns="http://www.w3.org/2000/svg"><g opacity=".1" clip-path="url(#clip0_1490_47624)" fill="#323137"><path d="M146.36 90.91a2.64 2.64 0 100-5.28 2.64 2.64 0 000 5.28zm-23.94 0a2.64 2.64 0 100-5.28 2.64 2.64 0 000 5.28zm-23.93 0a2.65 2.65 0 10.02-5.3 2.65 2.65 0 00-.02 5.3zm-23.93 0a2.65 2.65 0 100-5.301 2.65 2.65 0 000 5.301zm-23.94 0a2.64 2.64 0 100-5.28 2.64 2.64 0 000 5.28zm-22.92-.315a2.64 2.64 0 10-2.007-4.883 2.64 2.64 0 002.008 4.883zM2.76 85.66a2.65 2.65 0 10-.02 5.3 2.65 2.65 0 00.02-5.3zm143.6-16.16a2.64 2.64 0 100-5.28 2.64 2.64 0 000 5.28zm-23.94 0a2.64 2.64 0 100-5.28 2.64 2.64 0 000 5.28zm-23.93 0a2.65 2.65 0 10.02-5.3 2.65 2.65 0 00-.02 5.3zm-23.93 0a2.65 2.65 0 10-2.65-2.64 2.64 2.64 0 002.65 2.64zm-23.94 0a2.64 2.64 0 100-5.28 2.64 2.64 0 000 5.28zm-22.917-.307a2.64 2.64 0 10-2.008-4.883 2.64 2.64 0 002.008 4.883zM2.76 69.5a2.65 2.65 0 10-2.65-2.64 2.64 2.64 0 002.65 2.64zm143.6-21.41a2.64 2.64 0 100-5.28 2.64 2.64 0 000 5.28zm-23.94 0a2.64 2.64 0 100-5.28 2.64 2.64 0 000 5.28zm-23.93.01a2.65 2.65 0 10.02-5.3 2.65 2.65 0 00-.02 5.3zm-23.93 0a2.65 2.65 0 100-5.3 2.65 2.65 0 000 5.3zm-23.94-.01a2.64 2.64 0 100-5.28 2.64 2.64 0 000 5.28zm-22.918-.299a2.64 2.64 0 10-2.008-4.883 2.64 2.64 0 002.008 4.883zM2.76 48.1a2.65 2.65 0 100-5.3 2.65 2.65 0 000 5.3zm143.6-21.41a2.64 2.64 0 100-5.28 2.64 2.64 0 000 5.28zm-23.94 0a2.64 2.64 0 100-5.28 2.64 2.64 0 000 5.28zm-23.93-.03a2.65 2.65 0 10.02-5.301 2.65 2.65 0 00-.02 5.301zm-23.93 0a2.65 2.65 0 10-2.65-2.64 2.64 2.64 0 002.65 2.64zm-23.94.03a2.64 2.64 0 100-5.28 2.64 2.64 0 000 5.28zm-22.916-.3a2.64 2.64 0 10-2.008-4.884 2.64 2.64 0 002.008 4.883zm-24.944.27a2.65 2.65 0 10-2.65-2.64 2.64 2.64 0 002.65 2.64zm143.6-21.38a2.64 2.64 0 100-5.28 2.64 2.64 0 000 5.28zm-23.94 0a2.64 2.64 0 100-5.28 2.64 2.64 0 000 5.28zm-23.93.01a2.65 2.65 0 10.02-5.3 2.65 2.65 0 00-.02 5.3zm-23.93 0a2.65 2.65 0 100-5.3 2.65 2.65 0 000 5.3zm-23.94-.01a2.64 2.64 0 100-5.28 2.64 2.64 0 000 5.28zm-22.917-.303A2.64 2.64 0 1025.695.094a2.64 2.64 0 002.008 4.883zM2.76 5.29a2.65 2.65 0 100-5.3 2.65 2.65 0 000 5.3z"/></g><defs><clipPath id="clip0_1490_47624"><path fill="#fff" transform="translate(.11)" d="M0 0h148.89v90.91H0z"/></clipPath></defs></svg>