<svg width="82" height="65" fill="none" xmlns="http://www.w3.org/2000/svg"><g opacity=".1" clip-path="url(#clip0_1490_47695)"><path d="M65.998 33.215c9.112 0 15.252 6.453 15.252 16.014C81.25 57.832 74.193 65 64.634 65c-10.47 0-18.205-8.604-18.205-21.745C46.429 13.384 67.82 1.434 81.25 0v13.142c-9.106 1.672-19.343 10.99-19.802 21.272.459-.236 2.275-1.199 4.55-1.199zm-46.423 0c9.1 0 15.246 6.453 15.246 16.014C34.821 57.832 27.764 65 18.206 65 7.736 65 0 56.396 0 43.255 0 13.384 21.392 1.434 34.821 0v13.142c-9.105 1.672-19.343 10.99-19.801 21.272.458-.236 2.275-1.199 4.555-1.199z" fill="#323137"/></g><defs><clipPath id="clip0_1490_47695"><path fill="#fff" d="M0 0h81.25v65H0z"/></clipPath></defs></svg>