<svg width="64" height="64" fill="none" xmlns="http://www.w3.org/2000/svg"><path d="M48 19.093a1.613 1.613 0 00-.507 0 6.862 6.862 0 01-6.613-6.88 6.863 6.863 0 016.88-6.88 6.88 6.88 0 016.88 6.88c-.027 3.734-2.96 6.747-6.64 6.88zm-2.747 19.414c3.654.613 7.68-.027 10.507-1.92 3.76-2.507 3.76-6.614 0-9.12-2.853-1.894-6.933-2.534-10.587-1.894m-29.253-6.48c.16-.026.347-.026.507 0a6.862 6.862 0 006.613-6.88 6.863 6.863 0 00-6.88-6.88 6.88 6.88 0 00-6.88 6.88c.027 3.734 2.96 6.747 6.64 6.88zm2.747 19.414c-3.654.613-7.68-.027-10.507-1.92-3.76-2.507-3.76-6.614 0-9.12 2.853-1.894 6.933-2.534 10.587-1.894" stroke="#323137" stroke-width="4" stroke-linecap="round" stroke-linejoin="round"/><path d="M32 39.013a1.619 1.619 0 00-.507 0 6.862 6.862 0 01-6.613-6.88 6.863 6.863 0 016.88-6.88 6.88 6.88 0 016.88 6.88c-.027 3.734-2.96 6.774-6.64 6.88zm-7.76 8.4c-3.76 2.507-3.76 6.614 0 9.12 4.267 2.854 11.253 2.854 15.52 0 3.76-2.506 3.76-6.613 0-9.12-4.24-2.826-11.253-2.826-15.52 0z" stroke="#845186" stroke-width="4" stroke-linecap="round" stroke-linejoin="round"/></svg>