<svg width="40" height="40" fill="none" xmlns="http://www.w3.org/2000/svg"><path d="M23.917 3.333h-7.834c-1.733 0-3.15 1.4-3.15 3.134v1.566a3.13 3.13 0 003.134 3.134h7.85a3.13 3.13 0 003.133-3.134V6.467c.017-1.734-1.4-3.134-3.133-3.134z" fill="#845186"/><path d="M28.733 8.033a4.83 4.83 0 01-4.816 4.816h-7.834a4.83 4.83 0 01-4.816-4.816c0-.934-1-1.517-1.834-1.084a7.453 7.453 0 00-3.95 6.584v15.683c0 4.1 3.35 7.45 7.45 7.45h14.134c4.1 0 7.45-3.35 7.45-7.45V13.533c0-2.85-1.6-5.334-3.95-6.584-.834-.433-1.834.15-1.834 1.084zm-8.1 20.216h-7.3a1.26 1.26 0 01-1.25-1.25c0-.683.567-1.25 1.25-1.25h7.3c.684 0 1.25.567 1.25 1.25 0 .684-.566 1.25-1.25 1.25zM25 21.583H13.333a1.26 1.26 0 01-1.25-1.25c0-.684.567-1.25 1.25-1.25H25c.683 0 1.25.566 1.25 1.25a1.26 1.26 0 01-1.25 1.25z" fill="#845186"/></svg>