<svg width="40" height="40" fill="none" xmlns="http://www.w3.org/2000/svg"><path d="M36.667 18.75h-3.4C32.667 12.4 27.6 7.318 21.25 6.735v-3.4A1.26 1.26 0 0020 2.084a1.26 1.26 0 00-1.25 1.25v3.4c-6.35.6-11.433 5.667-12.017 12.017h-3.4A1.26 1.26 0 002.083 20c0 .683.567 1.25 1.25 1.25h3.4c.6 6.35 5.667 11.433 12.017 12.016v3.4c0 .684.567 1.25 1.25 1.25s1.25-.566 1.25-1.25v-3.4c6.35-.6 11.433-5.666 12.017-12.016h3.4a1.26 1.26 0 001.25-1.25 1.26 1.26 0 00-1.25-1.25zM20 25.2a5.207 5.207 0 01-5.2-5.2c0-2.866 2.333-5.2 5.2-5.2s5.2 2.334 5.2 5.2c0 2.867-2.333 5.2-5.2 5.2z" fill="#845186"/></svg>