<svg width="28" height="28" fill="none" xmlns="http://www.w3.org/2000/svg"><path d="M12.95 3.342c.323-1.027 1.777-1.027 2.1 0l1.775 5.655a1.1 1.1 0 001.06.77l5.927-.059c1.076-.01 1.526 1.373.648 1.997l-4.829 3.436a1.1 1.1 0 00-.405 1.246l1.887 5.618c.343 1.021-.833 1.876-1.698 1.234l-4.76-3.53a1.1 1.1 0 00-1.31 0l-4.76 3.53c-.865.642-2.041-.213-1.698-1.234l1.887-5.618a1.1 1.1 0 00-.405-1.246l-4.83-3.436c-.877-.624-.427-2.007.65-1.997l5.926.06a1.1 1.1 0 001.06-.771l1.775-5.655z" fill="#FFE4AA"/></svg>