<svg width="141" height="29" fill="none" xmlns="http://www.w3.org/2000/svg"><g clip-path="url(#clip0_1446_59114)"><path d="M0 19.432l5.483 4.511L0 28.454v-9.022zm28.812 0l-5.482 4.511 5.482 4.511v-9.022zM0 .454v9.022l14.409 11.845L28.817 9.476V.454L14.41 12.3 0 .454z" fill="#3071EE"/><path d="M0 9.476V.454L14.409 12.3v9.022L0 9.476z" fill="#3071EE"/><path d="M28.817.454v9.022L14.408 21.321V12.3L28.817.454z" fill="#2D54DE"/><path d="M0 19.432l5.483 4.51L0 28.455v-9.022z" fill="#3071EE"/><path d="M28.813 19.432l-5.483 4.51 5.483 4.512v-9.022z" fill="#2D54DE"/><path d="M130.869 22.648h-5.401l-1.478-1.75a43.384 43.384 0 00-.875-1.066 41.496 41.496 0 01-1.066-1.328 81.923 81.923 0 01-1.971 2.575l-1.277 1.569h-5.321l5.914-7.251-5.642-6.688h5.37l.956 1.167c.55.677 1.207 1.522 1.971 2.534.731-1.073 1.314-1.867 1.75-2.384l1.096-1.317h5.27l-5.421 6.688 6.125 7.25zm-18.567 0h-10.509V8.709h10.338v2.796h-6.134v2.554h5.853v2.806h-5.853v2.977h6.305v2.806zm-13.817-.986c-.302.114-.56.208-.774.282a16.554 16.554 0 01-1.479.432c-.637.147-1.274.258-1.91.332-.63.08-1.298.12-2.002.12-1.414 0-2.722-.258-3.922-.774a6.472 6.472 0 01-2.886-2.403c-.718-1.087-1.076-2.42-1.076-4.003 0-1.02.184-2.018.553-2.997.375-.986.945-1.773 1.71-2.363a7.827 7.827 0 011.91-1.117 8.163 8.163 0 011.9-.523c.618-.087 1.298-.13 2.042-.13 1.227 0 2.24.093 3.038.281.797.181 1.672.423 2.624.724v3.299a11.569 11.569 0 00-2-.925c-.705-.248-1.583-.372-2.636-.372-1.213 0-2.185.23-2.916.694-.724.455-1.23 1.002-1.519 1.639-.281.637-.422 1.253-.422 1.85 0 .704.164 1.355.493 1.951.328.59.824 1.066 1.488 1.428.664.356 1.465.533 2.404.533.536 0 1.106-.07 1.71-.21v-1.64h-1.891v-2.806h5.561v6.698zm-15.055.986h-4.516l-1.096-2.474c-.402-.905-.764-1.566-1.086-1.981-.322-.423-.637-.691-.945-.805-.302-.12-.694-.181-1.177-.181h-.473v5.44h-4.203V8.71h7.15c1.153 0 2.099.235 2.836.704.738.47 1.267 1.04 1.589 1.71.329.67.493 1.307.493 1.91 0 .704-.138 1.301-.412 1.79-.269.483-.554.835-.855 1.056a8.39 8.39 0 01-1.016.634c.45.262.818.573 1.106.935.295.356.694 1.08 1.197 2.173l1.408 3.027zm-5.712-9.534c0-.644-.212-1.093-.634-1.348-.422-.255-1.11-.382-2.062-.382h-.885v3.36h.906c1.025 0 1.726-.111 2.101-.333.382-.228.574-.66.574-1.297zm-9.635 9.534h-4.304l-1.137-2.826h-6.054l-1.157 2.826h-4.304l6.165-13.939h4.646l6.145 13.939zm-6.406-5.25l-2.042-5.089-2.062 5.09h4.104zm-12.42 5.25h-4.204v-8.076L41.26 19.25h-.332l-3.801-4.677v8.076h-4.083V8.709h3.811l4.285 5.23 4.304-5.23h3.812v13.939z" fill="#000"/></g><defs><clipPath id="clip0_1446_59114"><path fill="#fff" transform="translate(0 .454)" d="M0 0h141v28H0z"/></clipPath></defs></svg>