<svg width="147" height="40" fill="none" xmlns="http://www.w3.org/2000/svg"><g clip-path="url(#clip0_1446_60970)"><path d="M125.52 14.229l-3.849 11.546-3.785-11.546h-4.855l5.812 15.952h5.47l5.88-15.953h-4.673zm-27.007 3.523V14.23H94.25v15.95h4.559v-6.723c0-3.668 2.277-4.9 5.058-4.9h1.391v-4.33h-.958c-2.644 0-4.959 1.01-5.787 3.524zm-16.95-7.719h-7.907V30.18h7.907c6.29 0 10.667-4.033 10.644-10.095-.023-5.971-4.308-10.052-10.644-10.052zm0 15.75h-3.259v-11.35h3.26c3.486 0 5.856 2.302 5.856 5.652s-2.37 5.698-5.857 5.698zM64.858 13.908c-1.98.021-4.013.773-5.31 2.671v-2.352h-4.353V30.18h4.557v-8c0-2.918 1.483-4.375 3.396-4.375 1.913 0 3.167 1.207 3.167 4.147v8.228h4.56v-9.8c0-3.782-2.235-6.494-6.017-6.472zm-12.44.321H47.86V30.18h4.56V14.228zm0-6.405H47.86v4.512h4.56V7.824zm58.969 6.405h-4.559V30.18h4.559V14.228zm0-6.405h-4.559v4.512h4.559V7.824z" fill="#141414"/><path d="M0 20c0-5.549 0-8.344.766-10.559A14.075 14.075 0 019.4.766C11.636 0 14.39 0 19.917 0c5.528 0 8.302 0 10.518.766a14.025 14.025 0 018.633 8.675c.766 2.236.766 5.01.766 10.559 0 5.549 0 8.344-.766 10.559a14.075 14.075 0 01-8.633 8.675C28.199 40 25.445 40 19.917 40c-5.528 0-8.302 0-10.517-.766a14.026 14.026 0 01-8.634-8.675C0 28.344 0 25.569 0 20z" fill="#C1F11D"/><path d="M15.886 15.914h-4.855v14.267h4.855V15.914zM21.945 9.1h-3.828v4.764h3.714c3.396 0 5.744 2.416 5.744 5.743 0 3.327-2.348 5.812-5.744 5.812h-3.714v4.763h3.828c6.017 0 10.551-4.604 10.551-10.596S27.962 9.104 21.946 9.104V9.1zm-6.059 0h-4.855v4.764h4.855V9.1zm122.716 4.763c-5.081 0-8.454 3.715-8.454 8.387 0 4.673 3.533 8.342 8.684 8.297 3.053-.023 5.354-1.367 7.155-3.67l-3.282-2.074c-.888 1.139-2.256 1.802-3.782 1.802-1.791 0-3.565-1.038-4.151-2.963h11.898c.82-5.174-2.758-9.777-8.068-9.777v-.002zm.139 3.692c1.973 0 3.542 1.312 3.739 3.008h-7.694c.582-2.046 2.244-3.008 3.955-3.008z" fill="#141414"/></g><defs><clipPath id="clip0_1446_60970"><path fill="#fff" d="M0 0h147v40H0z"/></clipPath></defs></svg>