<svg width="173" height="28" fill="none" xmlns="http://www.w3.org/2000/svg"><path d="M0 23.94h24.419v-5.017H6.307V1.33H0v22.61z" fill="#0A1E78"/><path d="M118.879 24.5c7.114 0 11.915-2.278 11.915-6.535 0-3.432-2.231-5.347-6.768-5.842-1.808-.23-6.532-.23-7.263-.296-1.576-.066-2.423-.463-2.423-1.387 0-1.485 2.577-1.65 4.654-1.65 3.445 0 8.703.765 10.563 1.47.093.036.198-.026.198-.114V5.72c-2-.793-7.454-1.287-10.993-1.287-5.038 0-10.19 1.55-10.19 6.304 0 3.498 2.269 5.445 7.076 5.677 2.077.098 3.346.132 4.423.132 1.769.066 4.647.165 4.647 1.683 0 1.353-2.686 1.85-5.763 1.85-3.66 0-8.207-.885-10.126-1.863-.097-.05-.219.008-.219.104v4.629c2.077.858 6.076 1.55 10.267 1.55h.002zm-13.38-9.736c0-7.163-5.153-10.298-12.497-10.298-7.999 0-12.844 3.762-12.844 9.902 0 7.559 5.46 10.067 13.421 10.067 4.808 0 8.613-.66 11.229-1.551V18.3c0-.092-.112-.151-.209-.11-1.896.81-6.241 1.788-10.943 1.788-4.164 0-6.811-1.158-7.384-3.994h19.073a4.4 4.4 0 00.154-1.22zM93.002 8.756c3.78 0 5.842 1.45 6.568 3.565H86.389c.635-2.288 2.64-3.565 6.613-3.565zM76.305 4.434c-4.11-.044-6.168.637-7.734 3.345V4.962h-5.768V23.94h5.922v-9.744c.301-3.376 1.598-4.779 6.004-4.779 1.226 0 2.595.123 4.178.34.087.013.168-.045.168-.12V4.565c-.5-.099-2.115-.132-2.77-.132z" fill="#F50"/><path d="M50.88 24.236c2.884 0 5.883-.429 7.729-.825v-4.784c0-.083-.094-.142-.186-.119-1.845.483-3.499 1.009-6.736 1.009-3.691 0-4.038-1.287-4.038-4.918V9.484h10.229V4.962h-10.23V1.02c0-.078-.081-.136-.17-.121l-5.712.961v3.102h-5.307v4.522h5.307v6.14c0 6.996 3.115 8.614 9.114 8.614v-.002zM30.264 5.544c1.89 0 3.423-1.24 3.423-2.772 0-1.53-1.532-2.772-3.423-2.772-1.89 0-3.422 1.241-3.422 2.772 0 1.531 1.532 2.772 3.422 2.772zm2.961 1.826h-5.922v16.568h5.922V7.37zm112.704-2.427c-.167 0-.214.089-.096.19.649.558 1.052 1.328 1.052 2.182 0 .854-.402 1.62-1.047 2.177-.125.108-.085.193.15.193h13.898c.787-.566 1.292-1.418 1.292-2.371 0-.954-.505-1.805-1.294-2.372h-13.956l.001.001zm0 7.127c-.167 0-.214.089-.096.19.649.558 1.052 1.328 1.052 2.182 0 .854-.402 1.62-1.047 2.177-.125.108-.085.193.15.193h8.481c.788-.566 1.293-1.418 1.293-2.371 0-.954-.505-1.806-1.294-2.372h-8.54l.001.001zm.001 7.126c-.177 0-.217.087-.091.194.646.557 1.047 1.325 1.047 2.178s-.402 1.62-1.047 2.177c-.126.108-.085.193.15.193h3.065c.787-.566 1.292-1.418 1.292-2.371 0-.954-.505-1.805-1.293-2.372h-3.123v.001z" fill="#0A1E78"/><path d="M171.08 4.944h-3.73c.788.567 1.292 1.416 1.293 2.372 0 .955-.505 1.805-1.293 2.371h3.73c.789-.565 1.293-1.416 1.293-2.371 0-.956-.504-1.805-1.293-2.372z" fill="#F50"/><path d="M167.349 4.944h-3.73c.789.567 1.292 1.416 1.294 2.372 0 .955-.505 1.805-1.294 2.371h3.73c.789-.565 1.294-1.416 1.294-2.371 0-.956-.505-1.805-1.294-2.372z" fill="#6262D9"/><path d="M171.08 12.07h-9.146c.788.567 1.292 1.416 1.293 2.372 0 .956-.505 1.805-1.293 2.371h9.146c.789-.565 1.294-1.415 1.294-2.371s-.505-1.805-1.294-2.372z" fill="#F50"/><path d="M161.93 12.07h-3.731c.789.567 1.292 1.416 1.294 2.372 0 .956-.505 1.805-1.294 2.371h3.731c.788-.565 1.293-1.415 1.293-2.371s-.505-1.805-1.293-2.372z" fill="#6262D9"/><path d="M163.621 4.944h-3.73c.789.567 1.292 1.416 1.293 2.372 0 .955-.504 1.805-1.293 2.371h3.73c.789-.565 1.293-1.416 1.293-2.371 0-.956-.504-1.805-1.293-2.372zm-5.42 7.126h-3.73c.788.567 1.292 1.416 1.293 2.372 0 .956-.505 1.805-1.293 2.371h3.73c.789-.565 1.293-1.415 1.293-2.371s-.504-1.805-1.293-2.372z" fill="#3D3DC7"/><path d="M171.08 19.196h-14.564c.788.567 1.292 1.416 1.293 2.372 0 .955-.505 1.805-1.293 2.371h14.564c.789-.565 1.293-1.416 1.293-2.371 0-.956-.504-1.805-1.293-2.372z" fill="#F50"/><path d="M156.519 19.196h-3.73c.789.567 1.292 1.416 1.294 2.372 0 .955-.505 1.805-1.294 2.371h3.73c.789-.565 1.294-1.416 1.294-2.371 0-.956-.505-1.805-1.294-2.372z" fill="#6262D9"/><path d="M152.781 19.196h-3.73c.789.567 1.292 1.416 1.293 2.372 0 .955-.504 1.805-1.293 2.371h3.73c.789-.565 1.293-1.416 1.293-2.371 0-.956-.504-1.805-1.293-2.372z" fill="#3D3DC7"/></svg>