<svg width="86" height="43" fill="none" xmlns="http://www.w3.org/2000/svg"><g clip-path="url(#clip0_1446_57431)"><path d="M.3 41.4L3.7 32c.8-1 2-.9 2.3 0l-2.9 8 4.8.1c.8.5.2 1.5-.4 1.9l-6.6.1c-.4 0-.7-.4-.6-.7zm21.4.7c-1.1 0-1.8-.2-2.3-.7-.5-.5-.6-1.1-.4-2 0-.2.1-.4.2-.6.1-.2.1-.4.2-.6.5-1.3 1.3-2.3 2.3-3 1-.7 2.1-1.1 3.3-1.1 1 0 1.7.2 2.2.7.4.5.6 1.2.4 2.1 0 .2-.1.5-.2.7-.3.9-.5 1.1-1.3 1.1l-4.7-.1v.1c0 .1-.1.3-.1.4-.1.5 0 .8.2 1 .2.2.6.3 1.1.3.4 0 .7-.1 1-.2.3-.1.6-.3.8-.6.8-.5 2.5-.4 2.1.2-.5.7-1.1 1.1-2 1.5-1.1.6-1.9.8-2.8.8zm3.5-4.8l.1-.3c.1-.4 0-.8-.1-1-.2-.2-.5-.3-.9-.3-.6 0-1.1.2-1.5.6-.3.2-.5.6-.7.9h3.1v.1z" fill="#F4C733"/><path fill-rule="evenodd" clip-rule="evenodd" d="M13.102 31.2c-.6 0-1.2.5-1.3 1.2-.1.7.4 1.2 1 1.2s1.2-.5 1.3-1.2c.1-.7-.3-1.2-1-1.2zM11.2 34.7l-2 6.3c-.2 1.5 1.9 1.4 2.2.3.6-2 1.2-4.1 1.8-6.1.3-1.2-1.7-1.3-2-.5zm4.801-.4h-1c-.4 0-.8 1-.4 1.3h.8l-1.5 5.2c-.2.7 0 1.1.6 1.3h2.7c.8-.1 1.4-1.6.6-1.7l-1.5-.1 1.3-4.5h1.6c.3-.2.7-1.2.2-1.5h-1.4l.8-2.4c.1-.6-1.6-1-2-.2l-.8 2.6z" fill="#F4C733"/><path d="M37.6 32.9h-4.3l-.9 2.7H36c.3 0 .6.1.7.2.1.1.1.3 0 .6-.1.2-.2.4-.4.6-.2.1-.5.2-.8.2h-3.6l-1.2 3.5c-.1.4-.4.8-.6 1-.3.2-.6.3-.9.3-.3 0-.5-.1-.7-.3-.1-.2-.1-.6 0-1l2.7-8.2c.1-.3.2-.6.4-.8.2-.2.3-.3.6-.4.2-.1.5-.1.8-.1h5.1c.3 0 .6.1.7.2.1.2.1.4.1.6-.1.3-.2.5-.5.6-.2.2-.5.3-.8.3z" fill="#02A64D"/><path d="M46 35.7c.8-.9 1.7-1.2 2-1.3.3-.1.8-.2 1.1-.1.6 0 2 .4 1.5 2.6-.1.3-.1.5-.3 1.2l-1 3c-.1.4-.4.7-.6.9-.2.2-.4.3-.7.3-.7 0-1.1-.2-.8-1.2l.8-2.5c.2-.7.5-1.3.4-1.8-.1-.4-.9-.9-1.9-.2-.4.2-.8.7-1.1 1.1-.2.3-.5.9-.7 1.8l-.5 1.7c-.1.4-.3.6-.5.8-.3.2-.6.3-.9.3-.7 0-1-.3-.8-.9l1.6-5.3c.2-.7.5-1.2.8-1.4.3-.2.6-.3.9-.3.3 0 .6.1.7.3.2 0 .1.5 0 1zm10.002 4.9l1.6-5c.2-.5.4-.8.6-1.1.3-.2.6-.4.9-.3.3 0 .5.2.6.4.1.3.1.6-.1 1.1l-1.6 5c-.2.5-.4.8-.6 1-.3.2-.6.3-.9.3-.3 0-.5-.2-.6-.4 0-.2 0-.5.1-1z" fill="#00A64F"/><path d="M56.202 40.5l.3-1.3c-.4.6-1 1.3-2 1.3-.3 0-.6-.1-.8-.3-.2-.2-.3-.5-.3-.9s0-.8.2-1.3.4-1 .6-1.3c.3-.4.5-.7.9-.9.3-.2.8-.3 1.1-.3.9 0 1.3.6 1.2 1l.8-1.8c-.1-.1-.7-.6-1.8-.6-.5 0-1 .1-1.5.3-.5.2-.9.5-1.3.8-.4.3-.8.8-1.1 1.3-.3.5-.5 1-.7 1.6-.2.6-.2 1.1-.2 1.6s.1.9.3 1.3c.2.4.5.6.9.8.4.2.8.3 1.3.3 1 0 1.8-.8 2-.8l.1-.8zm19.299 0c-.2.3-.5.5-.9.8-.4.3-.8.5-1.2.6-.5.2-1 .2-1.5.2-1.1 0-1.9-.4-2.3-1.1-.4-.7-.4-1.6-.1-2.8.2-.8.6-1.5 1.1-2.1.5-.6 1-1.1 1.7-1.4.7-.3 1.4-.5 2.1-.5.5 0 .9 0 1.3.2.5.2.8.5.9 1 .1.4.1.9-.2 1.3-.2.3-.8.5-1.1.2-.3-.3-.2-.5-.4-.8-.2-.2-.4-.3-.7-.4-.5 0-1.1.1-1.6.6-.4.5-.8 1-1.1 1.6-.2.4-.3.9-.3 1.2 0 .3 0 1.1.9 1.2.9.1 1.6-.4 1.9-.8.2-.2.8-.3 1.2-.3.5 0 .6.2.7.3 0 .3-.2.7-.4 1z" fill="#00A64F"/><path fill-rule="evenodd" clip-rule="evenodd" d="M41.4 31.2c-.6 0-1.2.5-1.3 1.2-.1.7.4 1.2 1 1.2s1.2-.5 1.3-1.2c.1-.7-.3-1.2-1-1.2zm-1.9 3.5l-2 6.3c-.2 1.5 1.9 1.4 2.2.3.6-2 1.2-4.1 1.8-6.1.3-1.2-1.6-1.3-2-.5z" fill="#04A64C"/><path d="M63.701 35.6c.8-.9 1.7-1.2 2-1.3.3-.1.8-.2 1.1-.1.6 0 2 .4 1.5 2.6-.1.3-.1.5-.3 1.2l-1 3c-.1.4-.4.7-.6.9-.2.2-.4.3-.7.3-.7 0-1.1-.2-.8-1.2l.8-2.5c.2-.7.5-1.3.4-1.8-.1-.4-.9-.9-1.9-.2-.4.2-.8.7-1.1 1.1-.2.3-.5.9-.7 1.8l-.5 1.7c-.1.4-.3.6-.5.8-.3.2-.6.3-.9.3-.7 0-1-.3-.8-.9l1.6-5.3c.2-.7.5-1.2.8-1.4.3-.2.6-.3.9-.3.3 0 .6.1.7.3.2.1.2.6 0 1z" fill="#00A64F"/><path d="M79.4 42.1c-1.1 0-1.8-.2-2.3-.7-.5-.5-.6-1.1-.4-2 0-.2.1-.4.2-.6.1-.2.1-.4.2-.6.5-1.3 1.3-2.3 2.3-3 1-.7 2.1-1.1 3.3-1.1 1 0 1.7.2 2.2.7.4.5.6 1.2.4 2.1 0 .2-.1.5-.2.7-.3.9-.5 1.1-1.3 1.1l-4.8-.1v.1c0 .1-.1.3-.1.4-.1.5 0 .8.2 1 .2.2.6.3 1.1.3.4 0 .7-.1 1-.2.3-.1.6-.3.8-.6.8-.5 2.5-.4 2.1.2-.5.7-1.1 1.1-2 1.5-.9.6-1.8.8-2.7.8zm3.6-4.8V37c.1-.4 0-.8-.1-1-.2-.2-.5-.3-.9-.3-.6 0-1.1.2-1.5.6-.3.2-.5.6-.7.9H83v.1z" fill="#02A64D"/><path fill-rule="evenodd" clip-rule="evenodd" d="M48.5 6.1l2.7 2.8 4.3-4.6c.8-.9 1.2-1.8.1-2.8-1.2-1-1.8-.7-2.7.2l-4.4 4.4z" fill="#00ADEE" stroke="#00ADEE" stroke-width=".216" stroke-miterlimit="22.926"/><path fill-rule="evenodd" clip-rule="evenodd" d="M33.4 9.5l8-8.1c1.1-.9 1.5-1 2.6-.1l11.1 11.5c.8.8 1.5 1.9.5 3s-2.2.6-3-.3l-4.1-4.1-4.1 4.2c-.8.8-1.9 1.2-2.9.2-1-1.1-.6-2 .2-2.9l4-4.2-3.3-3.2-6.4 6.6c-.9.9-2.2 1.9-3.4.4-.9-1.3-.1-2.1.8-3z" fill="#00A551" stroke="#00A551" stroke-width=".216" stroke-miterlimit="22.926"/><path fill-rule="evenodd" clip-rule="evenodd" d="M30 16c3.9 3.9 7.7 7.8 11.6 11.7.8.7 1.5.7 2.3 0l8.7-8.7c.8-.8.8-1.8-.1-2.6-1.1-1-1.8-.6-2.6.2l-7 7c-3.3-3.3-6.7-6.6-10-10-.9-.9-1.9-1.5-3-.3-1 1-.6 1.9.1 2.7z" fill="#F4C733" stroke="#F4C733" stroke-width=".216" stroke-miterlimit="22.926"/></g><defs><clipPath id="clip0_1446_57431"><path fill="#fff" d="M0 0h85.6v43H0z"/></clipPath></defs></svg>