<svg width="100" height="28" fill="none" xmlns="http://www.w3.org/2000/svg"><path fill-rule="evenodd" clip-rule="evenodd" d="M72.9 9.577a8.967 8.967 0 00-3.585-.717c-1.285 0-2.47.24-3.585.717a9.177 9.177 0 00-2.916 1.96 9.21 9.21 0 00-1.96 2.916 8.97 8.97 0 00-.717 3.585c0 1.285.24 2.47.717 3.585a9.18 9.18 0 001.96 2.916 9.21 9.21 0 002.916 1.96 8.972 8.972 0 003.585.717c1.285 0 2.47-.24 3.585-.717a9.179 9.179 0 002.916-1.96 9.212 9.212 0 001.96-2.916 8.97 8.97 0 00.717-3.585c0-1.285-.24-2.47-.717-3.585a9.179 9.179 0 00-1.96-2.916 9.208 9.208 0 00-2.916-1.96zM71.056 22.18a4.444 4.444 0 01-1.753.35c-.617 0-1.2-.117-1.753-.35a4.444 4.444 0 01-1.434-.956 4.47 4.47 0 01-.956-1.434 4.451 4.451 0 01-.35-1.753 4.45 4.45 0 01.35-1.753 4.467 4.467 0 01.956-1.434 4.47 4.47 0 011.434-.956 4.447 4.447 0 011.753-.35 4.447 4.447 0 011.753.35 4.47 4.47 0 011.434.956c.41.412.734.899.956 1.434a4.45 4.45 0 01.351 1.753 4.451 4.451 0 01-.35 1.753 4.471 4.471 0 01-.957 1.434 4.473 4.473 0 01-1.434.956zM29.747 8.86c1.275 0 2.47.24 3.585.717a9.176 9.176 0 012.916 1.96 9.21 9.21 0 011.96 2.916 8.97 8.97 0 01.717 3.585 9.342 9.342 0 01-.19 1.9h-4.9l.065-.146a4.45 4.45 0 00.351-1.753 4.45 4.45 0 00-.35-1.753 4.467 4.467 0 00-.957-1.434 4.47 4.47 0 00-1.434-.956 4.447 4.447 0 00-1.753-.35 4.447 4.447 0 00-1.753.35 4.47 4.47 0 00-1.434.956 4.467 4.467 0 00-.956 1.434 4.45 4.45 0 00-.35 1.753 4.451 4.451 0 00.35 1.753 4.47 4.47 0 00.956 1.434c.412.409.9.734 1.434.956.552.234 1.137.35 1.753.35.616 0 1.2-.117 1.753-.35a4.444 4.444 0 001.434-.956l.078-.08 3.97 2.564a9.195 9.195 0 01-3.65 2.79 8.972 8.972 0 01-3.586.718c-1.285 0-2.47-.24-3.585-.717a9.179 9.179 0 01-2.916-1.96 9.212 9.212 0 01-1.96-2.916 8.97 8.97 0 01-.717-3.585c0-1.285.24-2.47.717-3.585a9.179 9.179 0 011.96-2.916 9.208 9.208 0 012.916-1.96 8.97 8.97 0 013.585-.717l-.009-.002z" fill="#000"/><path d="M23.734 16.453H34.8v3.48H23.734v-3.48zm64.026 6.332h2.1v4.1h-3.298c-3.778 0-6.192-2.308-6.192-6.096V6.646h4.75V11.1h4.737v3.7h-4.66l-.093 5.377c0 1.65.954 2.6 2.645 2.6l.011.01z" fill="#000"/><path fill-rule="evenodd" clip-rule="evenodd" d="M49.35 8.846a9.53 9.53 0 012.21.27 8.212 8.212 0 011.99.777v-5.78h4.675v22.848H54.16l-.6-.825c-1.264.72-2.664 1.08-4.2 1.08-1.22 0-2.37-.233-3.443-.699a8.812 8.812 0 01-2.811-1.92 9.18 9.18 0 01-1.895-2.84c-.463-1.08-.695-2.308-.695-3.535 0-1.227.232-2.87.695-3.95a8.968 8.968 0 011.895-2.824 8.94 8.94 0 012.811-1.904 8.573 8.573 0 013.443-.698l-.01.001zm1.77 13.332a4.447 4.447 0 01-1.753.35 4.45 4.45 0 01-1.753-.35 4.443 4.443 0 01-1.434-.956 4.47 4.47 0 01-.956-1.434 4.45 4.45 0 01-.351-1.753 4.45 4.45 0 01.351-1.753 4.468 4.468 0 01.956-1.434 4.47 4.47 0 011.434-.956 4.449 4.449 0 011.753-.35 4.449 4.449 0 011.753.35 4.468 4.468 0 011.434.958c.409.41.733.898.956 1.432a4.45 4.45 0 01.351 1.753 4.45 4.45 0 01-.351 1.753 4.47 4.47 0 01-.956 1.434 4.473 4.473 0 01-1.434.956zm-46.377-5.18V8.335H9c2.342 0 4.247 1.934 4.247 4.296 0 1.527-.796 2.87-1.992 3.63l1.902 4.317c2.763-1.546 4.64-4.543 4.64-7.98 0-5.014-3.994-9.118-8.904-9.118H0v13.518h4.714c.01 0 .02 0 .029.002v-.002z" fill="#000"/><path fill-rule="evenodd" clip-rule="evenodd" d="M7.984 18.615l3.56-2.564 6.248 9.178-3.56 2.564-6.248-9.178z" fill="#000"/></svg>