<svg width="108" height="48" fill="none" xmlns="http://www.w3.org/2000/svg"><path d="M.5 8A7.5 7.5 0 018 .5h91.182a7.5 7.5 0 017.5 7.5v32a7.5 7.5 0 01-7.5 7.5H8A7.5 7.5 0 01.5 40V8z" stroke="#E7E9F1"/><path d="M47.697 24.333c0 3.61-2.908 6.269-6.477 6.269-3.569 0-6.477-2.66-6.477-6.269 0-3.634 2.908-6.268 6.477-6.268 3.57 0 6.477 2.634 6.477 6.268zm-2.835 0c0-2.255-1.685-3.798-3.642-3.798-1.956 0-3.641 1.543-3.641 3.798 0 2.233 1.685 3.799 3.641 3.799 1.957 0 3.642-1.569 3.642-3.799z" fill="#EA4335"/><path d="M61.674 24.333c0 3.61-2.909 6.269-6.478 6.269s-6.477-2.66-6.477-6.269c0-3.631 2.908-6.268 6.477-6.268 3.57 0 6.478 2.634 6.478 6.268zm-2.836 0c0-2.255-1.685-3.798-3.642-3.798-1.956 0-3.641 1.543-3.641 3.798 0 2.233 1.685 3.799 3.641 3.799 1.957 0 3.642-1.569 3.642-3.799z" fill="#FBBC05"/><path d="M75.062 18.444v11.253c0 4.63-2.812 6.52-6.136 6.52a6.145 6.145 0 01-5.724-3.694l2.469-.997c.44 1.02 1.517 2.224 3.252 2.224 2.128 0 3.446-1.275 3.446-3.674v-.902h-.099c-.634.76-1.857 1.425-3.4 1.425-3.228 0-6.186-2.73-6.186-6.243 0-3.539 2.958-6.291 6.186-6.291 1.54 0 2.763.664 3.4 1.402h.1v-1.02h2.692v-.003zm-2.492 5.912c0-2.207-1.516-3.821-3.447-3.821-1.956 0-3.595 1.614-3.595 3.82 0 2.185 1.64 3.776 3.595 3.776 1.93 0 3.447-1.59 3.447-3.775z" fill="#4285F4"/><path d="M79.499 11.848v18.37h-2.766v-18.37H79.5z" fill="#34A853"/><path d="M90.28 26.396l2.201 1.424c-.71 1.02-2.422 2.779-5.38 2.779-3.667 0-6.407-2.753-6.407-6.269 0-3.727 2.763-6.268 6.09-6.268 3.351 0 4.99 2.589 5.526 3.988l.294.712-8.632 3.47c.661 1.258 1.689 1.9 3.13 1.9 1.444 0 2.445-.69 3.179-1.736zm-6.773-2.255l5.77-2.326c-.318-.783-1.273-1.328-2.397-1.328-1.44 0-3.446 1.235-3.373 3.654z" fill="#EA4335"/><path d="M24.277 22.703v-2.66h9.231a8.59 8.59 0 01.137 1.606c0 1.995-.562 4.462-2.372 6.22-1.761 1.78-4.012 2.73-6.993 2.73-5.525 0-10.171-4.37-10.171-9.733 0-5.364 4.646-9.733 10.171-9.733 3.057 0 5.234 1.164 6.87 2.682l-1.932 1.876c-1.174-1.068-2.763-1.899-4.94-1.899-4.035 0-7.191 3.157-7.191 7.074s3.156 7.074 7.19 7.074c2.617 0 4.108-1.02 5.063-1.948.774-.751 1.284-1.825 1.484-3.292l-6.547.003z" fill="#4285F4"/></svg>