<svg width="60" height="60" fill="none" xmlns="http://www.w3.org/2000/svg"><path d="M0 7.059A7.059 7.059 0 017.059 0H52.94A7.059 7.059 0 0160 7.059V52.94A7.059 7.059 0 0152.941 60H7.06A7.059 7.059 0 010 52.941V7.06z" fill="#D8FBDB" fill-opacity=".5"/><path d="M42.683 17.317l3.771.753a.563.563 0 01.288.95l-3.089 3.091a1.98 1.98 0 01-1.393.576h-2.563l-6.434 6.438a3.375 3.375 0 11-6.638.875 3.376 3.376 0 014.25-3.26l6.438-6.44v-2.558c0-.522.206-1.024.575-1.393l3.092-3.091a.562.562 0 01.95.288l.753 3.77z" fill="#77CA7E"/><path d="M16.5 30a13.501 13.501 0 1026.48-3.726 1.69 1.69 0 113.244-.93A16.88 16.88 0 0118.07 41.93a16.877 16.877 0 0116.585-28.154 1.687 1.687 0 01-.93 3.245A13.5 13.5 0 0016.5 30z" fill="#77CA7E"/><path d="M23.25 30a6.753 6.753 0 0010.573 5.57 6.75 6.75 0 002.88-6.36 1.682 1.682 0 012.351-1.76 1.687 1.687 0 011.001 1.373 10.125 10.125 0 11-8.894-8.88 1.688 1.688 0 11-.382 3.352A6.75 6.75 0 0023.25 30z" fill="#77CA7E"/></svg>