<svg width="149" height="91" viewBox="0 0 149 91" fill="none" xmlns="http://www.w3.org/2000/svg">
<g opacity="0.1" clip-path="url(#clip0_1490_47624)">
<path d="M146.36 90.9099C147.818 90.9099 149 89.7279 149 88.2699C149 86.8119 147.818 85.6299 146.36 85.6299C144.902 85.6299 143.72 86.8119 143.72 88.2699C143.72 89.7279 144.902 90.9099 146.36 90.9099Z" fill="#323137"/>
<path d="M122.42 90.9099C123.878 90.9099 125.06 89.7279 125.06 88.2699C125.06 86.8119 123.878 85.6299 122.42 85.6299C120.962 85.6299 119.78 86.8119 119.78 88.2699C119.78 89.7279 120.962 90.9099 122.42 90.9099Z" fill="#323137"/>
<path d="M98.4904 90.9104C99.0149 90.9123 99.5282 90.7586 99.9653 90.4686C100.402 90.1787 100.744 89.7654 100.946 89.2814C101.148 88.7973 101.202 88.2642 101.101 87.7495C101 87.2348 100.748 86.7617 100.378 86.3901C100.008 86.0185 99.5354 85.7651 99.0211 85.662C98.5068 85.5589 97.9735 85.6108 97.4886 85.8111C97.0038 86.0114 96.5894 86.3511 96.2977 86.7871C96.0061 87.2231 95.8503 87.7358 95.8503 88.2603C95.8503 88.9614 96.1282 89.6339 96.623 90.1306C97.1179 90.6273 97.7893 90.9077 98.4904 90.9104Z" fill="#323137"/>
<path d="M74.5604 90.9104C75.0845 90.9104 75.5969 90.7549 76.0327 90.4638C76.4685 90.1726 76.8081 89.7587 77.0087 89.2745C77.2092 88.7903 77.2617 88.2574 77.1594 87.7434C77.0572 87.2293 76.8048 86.7572 76.4342 86.3865C76.0636 86.0159 75.5914 85.7635 75.0774 85.6613C74.5633 85.559 74.0305 85.6115 73.5463 85.8121C73.062 86.0127 72.6482 86.3523 72.3571 86.7881C72.0659 87.2239 71.9104 87.7362 71.9104 88.2603C71.9104 88.6083 71.9789 88.953 72.1121 89.2745C72.2452 89.596 72.4404 89.8881 72.6865 90.1342C72.9326 90.3802 73.2248 90.5755 73.5463 90.7087C73.8678 90.8419 74.2124 90.9104 74.5604 90.9104Z" fill="#323137"/>
<path d="M50.6203 90.9099C52.0784 90.9099 53.2603 89.7279 53.2603 88.2699C53.2603 86.8119 52.0784 85.6299 50.6203 85.6299C49.1623 85.6299 47.9803 86.8119 47.9803 88.2699C47.9803 89.7279 49.1623 90.9099 50.6203 90.9099Z" fill="#323137"/>
<path d="M27.7007 90.5952C29.0492 90.0408 29.6929 88.4982 29.1385 87.1497C28.584 85.8012 27.0414 85.1575 25.6929 85.7119C24.3444 86.2664 23.7007 87.809 24.2551 89.1575C24.8095 90.506 26.3522 91.1497 27.7007 90.5952Z" fill="#323137"/>
<path d="M2.76035 85.6602C2.23538 85.6582 1.72172 85.8122 1.2844 86.1026C0.847079 86.393 0.505862 86.8068 0.304051 87.2915C0.102241 87.7761 0.0489213 88.3097 0.150853 88.8247C0.252785 89.3397 0.505351 89.8128 0.876561 90.184C1.24777 90.5552 1.72083 90.8078 2.23581 90.9097C2.75079 91.0116 3.28451 90.9583 3.76914 90.7565C4.25377 90.5547 4.66756 90.2135 4.95798 89.7762C5.24841 89.3389 5.40234 88.8252 5.40036 88.3002C5.39773 87.6008 5.11877 86.9308 4.62424 86.4363C4.12972 85.9418 3.45971 85.6628 2.76035 85.6602Z" fill="#323137"/>
<path d="M146.36 69.4997C147.818 69.4997 149 68.3178 149 66.8597C149 65.4017 147.818 64.2197 146.36 64.2197C144.902 64.2197 143.72 65.4017 143.72 66.8597C143.72 68.3178 144.902 69.4997 146.36 69.4997Z" fill="#323137"/>
<path d="M122.42 69.4997C123.878 69.4997 125.06 68.3178 125.06 66.8597C125.06 65.4017 123.878 64.2197 122.42 64.2197C120.962 64.2197 119.78 65.4017 119.78 66.8597C119.78 68.3178 120.962 69.4997 122.42 69.4997Z" fill="#323137"/>
<path d="M98.4903 69.5002C99.0153 69.5022 99.5291 69.3482 99.9664 69.0578C100.404 68.7673 100.745 68.3535 100.947 67.8689C101.149 67.3843 101.202 66.8506 101.1 66.3357C100.998 65.8207 100.745 65.3475 100.374 64.9763C100.003 64.6051 99.5298 64.3526 99.0149 64.2506C98.4999 64.1487 97.9663 64.202 97.4817 64.4038C96.997 64.6056 96.5832 64.9469 96.2928 65.3842C96.0024 65.8215 95.8483 66.3352 95.8503 66.8602C95.8529 67.5595 96.132 68.2295 96.6266 68.724C97.1211 69.2185 97.791 69.4976 98.4903 69.5002Z" fill="#323137"/>
<path d="M74.5604 69.5002C75.0849 69.5002 75.5977 69.3445 76.0337 69.0529C76.4697 68.7612 76.8093 68.3468 77.0096 67.862C77.2099 67.3772 77.2617 66.8438 77.1587 66.3295C77.0556 65.8152 76.8022 65.343 76.4306 64.9728C76.059 64.6026 75.5858 64.351 75.0711 64.2499C74.5564 64.1488 74.0233 64.2027 73.5393 64.4048C73.0552 64.6069 72.6421 64.9481 72.3521 65.3852C72.0622 65.8223 71.9084 66.3356 71.9104 66.8602C71.9104 67.2077 71.979 67.5518 72.1123 67.8728C72.2456 68.1937 72.4409 68.4852 72.6871 68.7305C72.9333 68.9758 73.2255 69.17 73.547 69.3021C73.8684 69.4342 74.2129 69.5015 74.5604 69.5002Z" fill="#323137"/>
<path d="M50.6205 69.4997C52.0785 69.4997 53.2605 68.3178 53.2605 66.8597C53.2605 65.4017 52.0785 64.2197 50.6205 64.2197C49.1624 64.2197 47.9805 65.4017 47.9805 66.8597C47.9805 68.3178 49.1624 69.4997 50.6205 69.4997Z" fill="#323137"/>
<path d="M27.7031 69.193C29.0516 68.6385 29.6953 67.0959 29.1409 65.7474C28.5864 64.3989 27.0438 63.7551 25.6953 64.3096C24.3468 64.864 23.703 66.4067 24.2575 67.7552C24.8119 69.1037 26.3546 69.7474 27.7031 69.193Z" fill="#323137"/>
<path d="M2.76035 69.5002C3.28489 69.5002 3.79761 69.3445 4.23362 69.0529C4.66962 68.7612 5.00929 68.3468 5.20957 67.862C5.40984 67.3772 5.4618 66.8438 5.35874 66.3295C5.25567 65.8152 5.0022 65.343 4.63059 64.9728C4.25898 64.6026 3.78592 64.351 3.27121 64.2499C2.75651 64.1488 2.2234 64.2027 1.73935 64.4048C1.25531 64.6069 0.842077 64.9481 0.552097 65.3852C0.262117 65.8223 0.108345 66.3356 0.110325 66.8602C0.110322 67.2077 0.178932 67.5518 0.312229 67.8728C0.445526 68.1937 0.640973 68.4852 0.88718 68.7305C1.13339 68.9758 1.42559 69.17 1.74704 69.3021C2.0685 69.4342 2.41282 69.5015 2.76035 69.5002Z" fill="#323137"/>
<path d="M146.36 48.0896C147.818 48.0896 149 46.9076 149 45.4496C149 43.9915 147.818 42.8096 146.36 42.8096C144.902 42.8096 143.72 43.9915 143.72 45.4496C143.72 46.9076 144.902 48.0896 146.36 48.0896Z" fill="#323137"/>
<path d="M122.42 48.0896C123.878 48.0896 125.06 46.9076 125.06 45.4496C125.06 43.9915 123.878 42.8096 122.42 42.8096C120.962 42.8096 119.78 43.9915 119.78 45.4496C119.78 46.9076 120.962 48.0896 122.42 48.0896Z" fill="#323137"/>
<path d="M98.4903 48.0998C99.0149 48.1018 99.5282 47.9481 99.9653 47.6581C100.402 47.3681 100.744 46.9549 100.946 46.4708C101.148 45.9868 101.202 45.4537 101.101 44.939C101 44.4243 100.748 43.9512 100.378 43.5795C100.008 43.2079 99.5354 42.9545 99.0211 42.8515C98.5068 42.7484 97.9734 42.8003 97.4886 43.0006C97.0038 43.2008 96.5893 43.5405 96.2977 43.9765C96.0061 44.4125 95.8503 44.9252 95.8503 45.4498C95.8503 46.1509 96.1282 46.8234 96.623 47.3201C97.1178 47.8168 97.7892 48.0972 98.4903 48.0998Z" fill="#323137"/>
<path d="M74.5604 48.0998C75.0845 48.0998 75.5969 47.9444 76.0327 47.6532C76.4685 47.362 76.808 46.9482 77.0086 46.4639C77.2092 45.9797 77.2616 45.4469 77.1594 44.9328C77.0571 44.4188 76.8048 43.9465 76.4342 43.5759C76.0635 43.2053 75.5914 42.953 75.0773 42.8507C74.5633 42.7485 74.0304 42.801 73.5462 43.0015C73.062 43.2021 72.6482 43.5418 72.357 43.9776C72.0658 44.4133 71.9104 44.9257 71.9104 45.4498C71.9104 45.7978 71.9788 46.1424 72.112 46.4639C72.2452 46.7855 72.4404 47.0775 72.6865 47.3236C72.9326 47.5697 73.2247 47.7649 73.5462 47.8981C73.8677 48.0313 74.2124 48.0998 74.5604 48.0998Z" fill="#323137"/>
<path d="M50.6205 48.0896C52.0785 48.0896 53.2605 46.9076 53.2605 45.4496C53.2605 43.9915 52.0785 42.8096 50.6205 42.8096C49.1624 42.8096 47.9805 43.9915 47.9805 45.4496C47.9805 46.9076 49.1624 48.0896 50.6205 48.0896Z" fill="#323137"/>
<path d="M27.7016 47.7915C29.0501 47.2371 29.6938 45.6944 29.1394 44.3459C28.585 42.9974 27.0423 42.3538 25.6938 42.9082C24.3453 43.4626 23.7016 45.0052 24.256 46.3537C24.8105 47.7022 26.3531 48.346 27.7016 47.7915Z" fill="#323137"/>
<path d="M2.76033 48.0998C3.28445 48.0998 3.79683 47.9444 4.23262 47.6532C4.66841 47.362 5.008 46.9482 5.20857 46.4639C5.40914 45.9797 5.4617 45.4469 5.35945 44.9328C5.2572 44.4188 5.00484 43.9465 4.63423 43.5759C4.26362 43.2053 3.79135 42.953 3.2773 42.8507C2.76325 42.7485 2.23052 42.801 1.74629 43.0015C1.26207 43.2021 0.848147 43.5418 0.556961 43.9776C0.265775 44.4133 0.110306 44.9257 0.110306 45.4498C0.110306 46.1526 0.38958 46.8266 0.886551 47.3236C1.38352 47.8206 2.05751 48.0998 2.76033 48.0998Z" fill="#323137"/>
<path d="M146.36 26.6902C147.818 26.6902 149 25.5082 149 24.0502C149 22.5921 147.818 21.4102 146.36 21.4102C144.902 21.4102 143.72 22.5921 143.72 24.0502C143.72 25.5082 144.902 26.6902 146.36 26.6902Z" fill="#323137"/>
<path d="M122.42 26.6902C123.878 26.6902 125.06 25.5082 125.06 24.0502C125.06 22.5921 123.878 21.4102 122.42 21.4102C120.962 21.4102 119.78 22.5921 119.78 24.0502C119.78 25.5082 120.962 26.6902 122.42 26.6902Z" fill="#323137"/>
<path d="M98.4904 26.6604C99.0153 26.6623 99.5291 26.5083 99.9664 26.2179C100.404 25.9275 100.745 25.5137 100.947 25.0291C101.149 24.5444 101.202 24.0108 101.1 23.4958C100.998 22.9808 100.745 22.5078 100.374 22.1366C100.003 21.7653 99.5299 21.5127 99.0149 21.4108C98.4999 21.3089 97.9663 21.3622 97.4817 21.564C96.9971 21.7658 96.5833 22.107 96.2929 22.5443C96.0024 22.9817 95.8484 23.4954 95.8504 24.0203C95.853 24.7197 96.1321 25.3897 96.6266 25.8842C97.1211 26.3788 97.791 26.6577 98.4904 26.6604Z" fill="#323137"/>
<path d="M74.5604 26.6604C75.085 26.6604 75.5977 26.5047 76.0337 26.213C76.4697 25.9214 76.8094 25.507 77.0097 25.0222C77.2099 24.5374 77.2618 24.004 77.1587 23.4897C77.0556 22.9754 76.8023 22.5032 76.4307 22.133C76.0591 21.7628 75.5859 21.5112 75.0712 21.4101C74.5565 21.3089 74.0234 21.3629 73.5393 21.565C73.0553 21.7671 72.6422 22.1083 72.3522 22.5454C72.0622 22.9825 71.9084 23.4958 71.9104 24.0203C71.9104 24.3679 71.979 24.712 72.1123 25.033C72.2456 25.3539 72.4409 25.6454 72.6872 25.8906C72.9334 26.1359 73.2256 26.3302 73.547 26.4623C73.8685 26.5944 74.2129 26.6617 74.5604 26.6604Z" fill="#323137"/>
<path d="M50.6203 26.6902C52.0784 26.6902 53.2603 25.5082 53.2603 24.0502C53.2603 22.5921 52.0784 21.4102 50.6203 21.4102C49.1623 21.4102 47.9803 22.5921 47.9803 24.0502C47.9803 25.5082 49.1623 26.6902 50.6203 26.6902Z" fill="#323137"/>
<path d="M27.704 26.3892C29.0525 25.8348 29.6962 24.2922 29.1418 22.9437C28.5873 21.5952 27.0447 20.9514 25.6962 21.5059C24.3477 22.0603 23.704 23.603 24.2584 24.9515C24.8128 26.3 26.3555 26.9437 27.704 26.3892Z" fill="#323137"/>
<path d="M2.76039 26.6604C3.28494 26.6604 3.79766 26.5047 4.23366 26.213C4.66967 25.9214 5.00934 25.507 5.20961 25.0222C5.40989 24.5374 5.46185 24.004 5.35878 23.4897C5.25572 22.9754 5.00224 22.5032 4.63063 22.133C4.25902 21.7628 3.78597 21.5112 3.27126 21.4101C2.75655 21.3089 2.22345 21.3629 1.7394 21.565C1.25535 21.7671 0.842123 22.1083 0.552143 22.5454C0.262163 22.9825 0.108391 23.4958 0.11037 24.0203C0.110368 24.3679 0.178977 24.712 0.312275 25.033C0.445572 25.3539 0.641019 25.6454 0.887226 25.8906C1.13343 26.1359 1.42563 26.3302 1.74709 26.4623C2.06854 26.5944 2.41286 26.6617 2.76039 26.6604Z" fill="#323137"/>
<path d="M146.36 5.28C147.818 5.28 149 4.09803 149 2.64C149 1.18197 147.818 0 146.36 0C144.902 0 143.72 1.18197 143.72 2.64C143.72 4.09803 144.902 5.28 146.36 5.28Z" fill="#323137"/>
<path d="M122.42 5.28C123.878 5.28 125.06 4.09803 125.06 2.64C125.06 1.18197 123.878 0 122.42 0C120.962 0 119.78 1.18197 119.78 2.64C119.78 4.09803 120.962 5.28 122.42 5.28Z" fill="#323137"/>
<path d="M98.4903 5.29024C99.0149 5.29222 99.5282 5.13851 99.9653 4.84853C100.402 4.55855 100.744 4.14532 100.946 3.66127C101.148 3.17723 101.202 2.64412 101.101 2.12941C101 1.61471 100.748 1.14159 100.378 0.769978C100.008 0.398368 99.5354 0.144953 99.0211 0.0418894C98.5068 -0.0611745 97.9734 -0.00927669 97.4886 0.190998C97.0038 0.391273 96.5893 0.730946 96.2977 1.16695C96.0061 1.60295 95.8503 2.11567 95.8503 2.64022C95.8503 3.34131 96.1282 4.01383 96.623 4.51052C97.1178 5.0072 97.7892 5.2876 98.4903 5.29024Z" fill="#323137"/>
<path d="M74.5604 5.29023C75.0845 5.29023 75.5969 5.13483 76.0327 4.84364C76.4685 4.55245 76.808 4.13859 77.0086 3.65437C77.2092 3.17015 77.2616 2.63729 77.1594 2.12324C77.0571 1.60919 76.8048 1.13698 76.4342 0.76637C76.0635 0.395761 75.5914 0.143401 75.0773 0.04115C74.5633 -0.0611008 74.0304 -0.00860433 73.5462 0.191968C73.062 0.39254 72.6482 0.732191 72.357 1.16798C72.0658 1.60377 71.9104 2.11609 71.9104 2.64021C71.9104 2.98821 71.9788 3.33286 72.112 3.65437C72.2452 3.97588 72.4404 4.26798 72.6865 4.51405C72.9326 4.76013 73.2247 4.95534 73.5462 5.08851C73.8677 5.22169 74.2124 5.29023 74.5604 5.29023Z" fill="#323137"/>
<path d="M50.6203 5.28C52.0784 5.28 53.2603 4.09803 53.2603 2.64C53.2603 1.18197 52.0784 0 50.6203 0C49.1623 0 47.9803 1.18197 47.9803 2.64C47.9803 4.09803 49.1623 5.28 50.6203 5.28Z" fill="#323137"/>
<path d="M27.7026 4.97708C29.0511 4.42265 29.6949 2.87999 29.1404 1.53149C28.586 0.182988 27.0434 -0.460681 25.6949 0.0937553C24.3464 0.648191 23.7026 2.19079 24.2571 3.53929C24.8115 4.88779 26.3541 5.53152 27.7026 4.97708Z" fill="#323137"/>
<path d="M2.76033 5.29023C3.28445 5.29023 3.79683 5.13483 4.23262 4.84364C4.66841 4.55245 5.008 4.13859 5.20857 3.65437C5.40914 3.17015 5.4617 2.63729 5.35945 2.12324C5.2572 1.60919 5.00484 1.13698 4.63423 0.76637C4.26362 0.395761 3.79135 0.143401 3.2773 0.04115C2.76325 -0.0611008 2.23052 -0.00860433 1.74629 0.191968C1.26207 0.39254 0.848147 0.732191 0.556961 1.16798C0.265775 1.60377 0.110306 2.11609 0.110306 2.64021C0.110306 3.34303 0.38958 4.01708 0.886551 4.51405C1.38352 5.01102 2.05751 5.29023 2.76033 5.29023Z" fill="#323137"/>
</g>
<defs>
<clipPath id="clip0_1490_47624">
<rect width="148.89" height="90.91" fill="white" transform="translate(0.110352)"/>
</clipPath>
</defs>
</svg>
