<svg width="82" height="65" viewBox="0 0 82 65" fill="none" xmlns="http://www.w3.org/2000/svg">
<g opacity="0.1" clip-path="url(#clip0_1490_47695)">
<path d="M65.9982 33.215C75.1098 33.215 81.25 39.6677 81.25 49.2286C81.25 57.8323 74.1928 65 64.6344 65C54.1647 65 46.4286 56.3964 46.4286 43.2545C46.4286 13.3841 67.8205 1.43591 81.25 0V13.1418C72.1442 14.8141 61.9067 24.1327 61.4482 34.4145C61.9067 34.1782 63.7232 33.215 65.9982 33.215ZM19.5754 33.215C28.6754 33.215 34.8214 39.6677 34.8214 49.2286C34.8214 57.8323 27.7643 65 18.2058 65C7.73616 65 0 56.3964 0 43.2545C0 13.3841 21.392 1.43591 34.8214 0V13.1418C25.7156 14.8141 15.4781 24.1327 15.0196 34.4145C15.4781 34.1782 17.2946 33.215 19.5754 33.215Z" fill="#323137"/>
</g>
<defs>
<clipPath id="clip0_1490_47695">
<rect width="81.25" height="65" fill="white"/>
</clipPath>
</defs>
</svg>
