<svg width="64" height="64" viewBox="0 0 64 64" fill="none" xmlns="http://www.w3.org/2000/svg">
<path d="M48 19.0935C47.84 19.0668 47.6533 19.0668 47.4933 19.0935C43.8133 18.9602 40.88 15.9468 40.88 12.2135C40.88 8.40017 43.9467 5.3335 47.76 5.3335C51.5733 5.3335 54.64 8.42683 54.64 12.2135C54.6133 15.9468 51.68 18.9602 48 19.0935Z" stroke="#323137" stroke-width="4" stroke-linecap="round" stroke-linejoin="round"/>
<path d="M45.2533 38.5068C48.9067 39.1201 52.9334 38.4801 55.76 36.5868C59.52 34.0801 59.52 29.9734 55.76 27.4668C52.9067 25.5734 48.8267 24.9334 45.1733 25.5734" stroke="#323137" stroke-width="4" stroke-linecap="round" stroke-linejoin="round"/>
<path d="M15.92 19.0935C16.08 19.0668 16.2667 19.0668 16.4267 19.0935C20.1067 18.9602 23.04 15.9468 23.04 12.2135C23.04 8.40017 19.9734 5.3335 16.16 5.3335C12.3467 5.3335 9.28003 8.42683 9.28003 12.2135C9.3067 15.9468 12.24 18.9602 15.92 19.0935Z" stroke="#323137" stroke-width="4" stroke-linecap="round" stroke-linejoin="round"/>
<path d="M18.6667 38.5068C15.0134 39.1201 10.9867 38.4801 8.16003 36.5868C4.40003 34.0801 4.40003 29.9734 8.16003 27.4668C11.0134 25.5734 15.0934 24.9334 18.7467 25.5734" stroke="#323137" stroke-width="4" stroke-linecap="round" stroke-linejoin="round"/>
<path d="M32 39.0134C31.84 38.9868 31.6533 38.9868 31.4933 39.0134C27.8133 38.8801 24.88 35.8668 24.88 32.1334C24.88 28.3201 27.9467 25.2534 31.76 25.2534C35.5733 25.2534 38.64 28.3468 38.64 32.1334C38.6133 35.8668 35.68 38.9068 32 39.0134Z" stroke="#845186" stroke-width="4" stroke-linecap="round" stroke-linejoin="round"/>
<path d="M24.24 47.4135C20.48 49.9201 20.48 54.0268 24.24 56.5335C28.5066 59.3868 35.4933 59.3868 39.76 56.5335C43.52 54.0268 43.52 49.9201 39.76 47.4135C35.52 44.5868 28.5066 44.5868 24.24 47.4135Z" stroke="#845186" stroke-width="4" stroke-linecap="round" stroke-linejoin="round"/>
</svg>
