<svg width="40" height="40" viewBox="0 0 40 40" fill="none" xmlns="http://www.w3.org/2000/svg">
<path d="M36.6667 18.7507H33.2667C32.6667 12.4007 27.6 7.31732 21.25 6.73398V3.33398C21.25 2.65065 20.6834 2.08398 20 2.08398C19.3167 2.08398 18.75 2.65065 18.75 3.33398V6.73398C12.4 7.33398 7.31671 12.4007 6.73337 18.7507H3.33337C2.65004 18.7507 2.08337 19.3173 2.08337 20.0007C2.08337 20.684 2.65004 21.2507 3.33337 21.2507H6.73337C7.33337 27.6007 12.4 32.684 18.75 33.2673V36.6673C18.75 37.3507 19.3167 37.9173 20 37.9173C20.6834 37.9173 21.25 37.3507 21.25 36.6673V33.2673C27.6 32.6673 32.6834 27.6007 33.2667 21.2507H36.6667C37.35 21.2507 37.9167 20.684 37.9167 20.0007C37.9167 19.3173 37.35 18.7507 36.6667 18.7507ZM20 25.2007C17.1334 25.2007 14.8 22.8673 14.8 20.0007C14.8 17.134 17.1334 14.8007 20 14.8007C22.8667 14.8007 25.2 17.134 25.2 20.0007C25.2 22.8673 22.8667 25.2007 20 25.2007Z" fill="#845186"/>
</svg>
