<svg width="40" height="40" viewBox="0 0 40 40" fill="none" xmlns="http://www.w3.org/2000/svg">
<path d="M23.9167 3.33325H16.0833C14.35 3.33325 12.9333 4.73325 12.9333 6.46659V8.03325C12.9333 9.76659 14.3333 11.1666 16.0667 11.1666H23.9167C25.65 11.1666 27.05 9.76659 27.05 8.03325V6.46659C27.0667 4.73325 25.65 3.33325 23.9167 3.33325Z" fill="#845186"/>
<path d="M28.7333 8.03257C28.7333 10.6826 26.5667 12.8492 23.9167 12.8492H16.0833C13.4333 12.8492 11.2667 10.6826 11.2667 8.03257C11.2667 7.09923 10.2667 6.5159 9.43334 6.94923C7.08334 8.19923 5.48334 10.6826 5.48334 13.5326V29.2159C5.48334 33.3159 8.83334 36.6659 12.9333 36.6659H27.0667C31.1667 36.6659 34.5167 33.3159 34.5167 29.2159V13.5326C34.5167 10.6826 32.9167 8.19923 30.5667 6.94923C29.7333 6.5159 28.7333 7.09923 28.7333 8.03257ZM20.6333 28.2492H13.3333C12.65 28.2492 12.0833 27.6826 12.0833 26.9992C12.0833 26.3159 12.65 25.7492 13.3333 25.7492H20.6333C21.3167 25.7492 21.8833 26.3159 21.8833 26.9992C21.8833 27.6826 21.3167 28.2492 20.6333 28.2492ZM25 21.5826H13.3333C12.65 21.5826 12.0833 21.0159 12.0833 20.3326C12.0833 19.6492 12.65 19.0826 13.3333 19.0826H25C25.6833 19.0826 26.25 19.6492 26.25 20.3326C26.25 21.0159 25.6833 21.5826 25 21.5826Z" fill="#845186"/>
</svg>
