<svg width="40" height="40" viewBox="0 0 40 40" fill="none" xmlns="http://www.w3.org/2000/svg">
<path d="M17.3667 22.3657H22.1L22.6334 17.6323H17.9L17.3667 22.3657Z" fill="#845186"/>
<path d="M26.9833 3.33325H13.0166C6.94998 3.33325 3.33331 6.94992 3.33331 13.0166V26.9666C3.33331 33.0499 6.94998 36.6666 13.0166 36.6666H26.9666C33.0333 36.6666 36.65 33.0499 36.65 26.9833V13.0166C36.6666 6.94992 33.05 3.33325 26.9833 3.33325ZM31.3666 17.6333H25.0833L24.55 22.3833H30.1666C30.8333 22.3833 31.3833 22.9333 31.3833 23.5999C31.3833 24.2666 30.8333 24.8166 30.1666 24.8166H24.2833L23.6 30.9166C23.5333 31.5333 23 31.9999 22.3833 31.9999C22.3333 31.9999 22.3 31.9999 22.25 31.9999C21.5833 31.9333 21.1 31.3166 21.1666 30.6499L21.8166 24.8166H17.0833L16.4 30.9166C16.3333 31.5333 15.8 31.9999 15.1833 31.9999C15.1333 31.9999 15.1 31.9999 15.05 31.9999C14.3833 31.9333 13.9 31.3166 13.9666 30.6499L14.6166 24.8166H8.63331C7.96665 24.8166 7.41665 24.2666 7.41665 23.5999C7.41665 22.9333 7.96665 22.3833 8.63331 22.3833H14.9166L15.45 17.6333H9.83331C9.16665 17.6333 8.61665 17.0833 8.61665 16.4166C8.61665 15.7499 9.16665 15.1999 9.83331 15.1999H15.7166L16.4 9.09992C16.4666 8.43325 17.0833 7.94992 17.75 8.01659C18.4166 8.08325 18.9 8.69992 18.8333 9.36659L18.1833 15.1999H22.9166L23.6 9.09992C23.6833 8.43325 24.2833 7.94992 24.95 8.01659C25.6166 8.08325 26.1 8.69992 26.0333 9.36659L25.3833 15.1999H31.4C32.0666 15.1999 32.6166 15.7499 32.6166 16.4166C32.6166 17.0833 32.0333 17.6333 31.3666 17.6333Z" fill="#845186"/>
</svg>
