<svg width="270" height="121" viewBox="0 0 270 121" fill="none" xmlns="http://www.w3.org/2000/svg">
<rect y="0.6875" width="270" height="120" rx="24" fill="white"/>
<path d="M45.2561 71.3947C48.7397 69.9602 61.2807 64.6528 61.2807 52.993C61.2807 45.452 55.666 40.1855 46.5266 40.1855C38.6372 40.1855 31.9978 45.452 31.9978 52.993C31.9978 60.3496 38.3503 65.5545 45.9938 65.7799L45.9733 65.8004C42.3872 68.2799 37.5101 70.2471 32.3667 72.6242V80.3701H61.2807V71.4152H45.2561V71.3947ZM37.1823 54.7143C36.7929 51.3536 38.8216 47.6446 43.8831 47.2143C47.3667 46.9274 51.2397 48.9561 51.4036 53.5872C51.5266 56.9069 50.6454 59.7758 48.4528 62.1323C44.4569 62.1323 37.9405 61.1487 37.1823 54.7143Z" fill="#323137"/>
<path d="M98.35 41.1504H106.977L112.285 80.3718H103.883L100.83 57.7078L92.7967 80.3718H85.2557L77.2229 57.7078L74.1696 80.3718H65.3171L70.6245 41.1504H79.2516L88.9648 67.1546L98.35 41.1504Z" fill="#323137"/>
<path d="M155.133 60.7605C155.133 72.7687 145.748 81.1909 134.6 81.1909C123.453 81.1909 114.067 72.7892 114.067 60.7605C114.067 48.7522 123.453 40.3301 134.6 40.3301C145.748 40.3301 155.133 48.7317 155.133 60.7605ZM146.608 60.7605C146.608 53.9777 141.363 49.285 134.6 49.285C127.838 49.285 122.592 53.9777 122.592 60.7605C122.592 67.5433 127.838 72.2359 134.6 72.2359C141.363 72.2359 146.608 67.5228 146.608 60.7605Z" fill="#323137"/>
<path d="M200.072 60.7605C200.072 72.7687 190.686 81.1909 179.539 81.1909C168.392 81.1909 159.006 72.7892 159.006 60.7605C159.006 48.7522 168.392 40.3301 179.539 40.3301C190.686 40.3301 200.072 48.7317 200.072 60.7605ZM191.547 60.7605C191.547 53.9777 186.301 49.285 179.539 49.285C172.756 49.285 167.531 53.9777 167.531 60.7605C167.531 67.5433 172.777 72.2359 179.539 72.2359C186.322 72.2154 191.547 67.5228 191.547 60.7605Z" fill="#323137"/>
<path d="M216.527 41.1504C228.986 41.1504 238.002 48.2611 238.002 60.7611C238.002 73.0972 228.781 80.3718 216.527 80.3718H204.129V41.1504H216.527ZM218.719 50.1053H212.428V71.4169H218.719C224.846 71.4169 229.478 67.1546 229.478 60.7611C229.478 54.798 225.01 50.1053 218.719 50.1053Z" fill="#323137"/>
</svg>
