<svg width="40" height="40" fill="none" xmlns="http://www.w3.org/2000/svg"><path d="M0 7.059A7.059 7.059 0 017.059 0H32.94A7.059 7.059 0 0140 7.059V32.94A7.059 7.059 0 0132.941 40H7.06A7.059 7.059 0 010 32.941V7.06z" fill="#FFEFCC"/><path d="M11 26h7.5v1.5H11V26zm0-4.5h7.5V23H11v-1.5zm16.5-3h-15A1.5 1.5 0 0111 17v-4.5a1.5 1.5 0 011.5-1.5h15a1.5 1.5 0 011.5 1.5V17a1.5 1.5 0 01-1.5 1.5zm-15-6V17h15v-4.5h-15zm15 16.5H23a1.5 1.5 0 01-1.5-1.5V23a1.5 1.5 0 011.5-1.5h4.5A1.5 1.5 0 0129 23v4.5a1.5 1.5 0 01-1.5 1.5zM23 23v4.5h4.5V23H23z" fill="#E6C888"/></svg>