<svg width="41" height="40" fill="none" xmlns="http://www.w3.org/2000/svg"><path d="M.25 7.059A7.059 7.059 0 017.309 0H33.19a7.059 7.059 0 017.059 7.059V32.94A7.059 7.059 0 0133.191 40H7.31a7.059 7.059 0 01-7.06-7.059V7.06z" fill="#FFE9BB" fill-opacity=".3"/><path d="M12.25 29c-.55 0-1.02-.196-1.412-.587A1.93 1.93 0 0110.25 27V16c0-.55.196-1.02.588-1.412A1.931 1.931 0 0112.25 14h4v-2c0-.55.196-1.02.588-1.412A1.931 1.931 0 0118.25 10h4c.55 0 1.021.196 1.413.588.392.392.588.863.587 1.412v2h4c.55 0 1.021.196 1.413.588.392.392.588.863.587 1.412v11a1.93 1.93 0 01-.587 1.413A1.92 1.92 0 0128.25 29h-16zm6-15h4v-2h-4v2zm10 9h-5v2h-6v-2h-5v4h16v-4zm-9 0h2v-2h-2v2zm-7-2h5v-2h6v2h5v-5h-16v5z" fill="#E6C888"/></svg>