<svg width="41" height="40" fill="none" xmlns="http://www.w3.org/2000/svg"><path d="M.25 4a4 4 0 014-4h32a4 4 0 014 4v32a4 4 0 01-4 4h-32a4 4 0 01-4-4V4z" fill="#FFE9BB" fill-opacity=".3"/><path d="M30.25 18.5V20c0 4.714 0 7.071-1.465 8.535C27.322 30 24.964 30 20.25 30s-7.071 0-8.536-1.465C10.25 27.072 10.25 24.714 10.25 20c0-1.128 0-2.122.02-3m11.48-7h-1.5c-4.714 0-7.071 0-8.536 1.464-.44.441-.749.963-.964 1.606" stroke="#E6C888" stroke-width="2" stroke-linecap="round"/><path d="M15.25 22l1.797-2.156c.712-.855 1.068-1.282 1.536-1.282.469 0 .825.427 1.537 1.282l.26.312c.712.855 1.068 1.282 1.537 1.282.469 0 .824-.427 1.536-1.282L25.25 18" stroke="#E6C888" stroke-width="2" stroke-linecap="round"/><path d="M27.25 16a3 3 0 100-6 3 3 0 000 6z" stroke="#E6C888" stroke-width="2"/></svg>