<svg width="40" height="40" fill="none" xmlns="http://www.w3.org/2000/svg"><path d="M0 7.059A7.059 7.059 0 017.059 0H32.94A7.059 7.059 0 0140 7.059V32.94A7.059 7.059 0 0132.941 40H7.06A7.059 7.059 0 010 32.941V7.06z" fill="#FFEFCC"/><path d="M26.99 29.466l-4.137-4.113-.94 2.857c-.105.293-.304.435-.596.425-.293-.01-.491-.162-.596-.456l-2.853-9.513c-.083-.23-.031-.44.157-.628.188-.189.397-.241.627-.157l9.498 2.857c.293.105.445.303.456.596.01.293-.13.492-.424.597l-2.853.942 4.138 4.144c.355.356.533.764.533 1.225 0 .46-.178.868-.533 1.224-.355.356-.768.534-1.237.534-.47 0-.883-.178-1.24-.534zM10 17.536c0-2.094.732-3.873 2.194-5.338 1.463-1.465 3.24-2.198 5.33-2.198 1.609 0 3.046.445 4.31 1.335a7.371 7.371 0 012.712 3.469c.125.335.12.66-.016.973-.135.314-.37.534-.706.66-.335.125-.653.12-.955-.016a1.203 1.203 0 01-.643-.707c-.356-.942-.962-1.711-1.819-2.308a4.92 4.92 0 00-2.884-.894c-1.379 0-2.56.492-3.542 1.475-.982.984-1.473 2.167-1.473 3.548 0 1.068.298 2.03.894 2.889.596.858 1.364 1.465 2.303 1.82.335.127.57.346.706.66.136.314.142.639.015.974a1.138 1.138 0 01-.658.69 1.3 1.3 0 01-.972 0 7.197 7.197 0 01-3.48-2.748A7.441 7.441 0 0110 17.535z" fill="#E6C888"/></svg>