<svg width="40" height="40" fill="none" xmlns="http://www.w3.org/2000/svg"><path d="M0 7.059A7.059 7.059 0 017.059 0H32.94A7.059 7.059 0 0140 7.059V32.94A7.059 7.059 0 0132.941 40H7.06A7.059 7.059 0 010 32.941V7.06z" fill="#6D7FCE"/><path d="M20 25.27l4.15 2.51c.76.46 1.69-.22 1.49-1.08l-1.1-4.72 3.67-3.18c.67-.58.31-1.68-.57-1.75l-4.83-.41-1.89-4.46c-.34-.81-1.5-.81-1.84 0l-1.89 4.45-4.83.41c-.88.07-1.24 1.17-.57 1.75l3.67 3.18-1.1 4.72c-.2.86.73 1.54 1.49 1.08l4.15-2.5z" fill="#C5CCEB"/></svg>