<svg width="40" height="40" fill="none" xmlns="http://www.w3.org/2000/svg"><path d="M0 7.059A7.059 7.059 0 017.059 0H32.94A7.059 7.059 0 0140 7.059V32.94A7.059 7.059 0 0132.941 40H7.06A7.059 7.059 0 010 32.941V7.06z" fill="#D8FBDB"/><path d="M23.75 21a.75.75 0 00-.75-.75h-6a.75.75 0 100 1.5h6a.75.75 0 00.75-.75zm0 4a.75.75 0 00-.75-.75h-6a.75.75 0 100 1.5h6a.75.75 0 00.75-.75z" fill="#77CA7E"/><path fill-rule="evenodd" clip-rule="evenodd" d="M15 10.25A2.75 2.75 0 0012.25 13v14A2.75 2.75 0 0015 29.75h10A2.75 2.75 0 0027.75 27V15.968c0-.381-.124-.751-.354-1.055l-2.998-3.968a1.75 1.75 0 00-1.396-.695H15zM13.75 13c0-.69.56-1.25 1.25-1.25h7.25v4.397c0 .414.336.75.75.75h3.25V27c0 .69-.56 1.25-1.25 1.25H15c-.69 0-1.25-.56-1.25-1.25V13z" fill="#77CA7E"/></svg>