<svg width="40" height="40" fill="none" xmlns="http://www.w3.org/2000/svg"><path d="M0 7.059A7.059 7.059 0 017.059 0H32.94A7.059 7.059 0 0140 7.059V32.94A7.059 7.059 0 0132.941 40H7.06A7.059 7.059 0 010 32.941V7.06z" fill="#A7B2E2"/><path d="M12 27l-.93-.37a1.001 1.001 0 001.125 1.35L12 27zm4.706-.936l.474-.881-.317-.17-.352.07.195.981zm-3.082-3.147l.93.37.163-.414-.196-.399-.897.443zM27 20c0 3.246-2.853 6-6.53 6v2c4.641 0 8.53-3.514 8.53-8h-2zm-13.059 0c0-3.246 2.854-6 6.53-6v-2c-4.64 0-8.53 3.514-8.53 8h2zm6.53-6c3.676 0 6.53 2.754 6.53 6h2c0-4.486-3.889-8-8.53-8v2zm0 12a6.94 6.94 0 01-3.29-.817l-.949 1.761A8.896 8.896 0 0020.47 28v-2zm-8.276 1.98l4.706-.936-.39-1.961-4.706.936.39 1.962v-.001zm2.326-5.506a5.599 5.599 0 01-.58-2.474h-2c0 1.2.281 2.338.785 3.36l1.795-.886zm-1.826.073l-1.625 4.084 1.858.738 1.624-4.083-1.858-.739h.001zM17 21a1 1 0 100-2 1 1 0 000 2zm3.5 0a1 1 0 100-2 1 1 0 000 2zm3.5 0a1 1 0 100-2 1 1 0 000 2z" fill="#6D7FCE"/></svg>